<svg width="58" height="58" viewBox="0 0 58 58" fill="none" xmlns="http://www.w3.org/2000/svg">
<g clip-path="url(#clip0_1026_132)">
<path d="M15.7605 25.0173L17.6745 25.288L15.7605 25.0173ZM15.7219 25.288L13.8079 25.0173L15.7219 25.288ZM42.2395 25.0173L44.1535 24.7467L42.2395 25.0173ZM42.2781 25.288L40.3641 25.5587L42.2781 25.288ZM36.7333 48.3333V50.2667C37.2461 50.2667 37.7378 50.063 38.1004 49.7004C38.463 49.3378 38.6667 48.8461 38.6667 48.3333H36.7333ZM21.2667 48.3333H19.3333C19.3333 48.8461 19.537 49.3378 19.8996 49.7004C20.2622 50.063 20.7539 50.2667 21.2667 50.2667V48.3333ZM18.386 35.3916L19.9172 34.2084L18.386 35.3916ZM39.614 35.3916L38.0828 34.2084L39.614 35.3916ZM23.2 58H34.8V54.1333H23.2V58ZM13.8427 24.7467L13.804 25.0173L17.632 25.5587L17.6707 25.288L13.8427 24.7467ZM29 11.6C25.3141 11.5994 21.7517 12.9287 18.9672 15.3438C16.1827 17.759 14.3631 21.0977 13.8427 24.7467L17.6707 25.288C18.0607 22.5614 19.4212 20.0671 21.5024 18.2629C23.5835 16.4588 26.2457 15.4659 29 15.4667V11.6ZM44.1573 24.7467C43.6369 21.0977 41.8173 17.759 39.0328 15.3438C36.2483 12.9287 32.6859 11.5994 29 11.6V15.4667C31.7541 15.4667 34.4158 16.4598 36.4968 18.2639C38.5778 20.0679 39.9385 22.5618 40.3293 25.288L44.1573 24.7467ZM44.196 25.0173L44.1573 24.7467L40.3293 25.288L40.368 25.5587L44.196 25.0173ZM41.1413 36.5748C43.5773 33.4273 44.8069 29.3248 44.196 25.0135L40.368 25.5625C40.5894 27.083 40.5015 28.6326 40.1095 30.1182C39.7175 31.6039 39.0295 32.9951 38.0867 34.2084L41.1413 36.5748ZM34.8 42.1467V48.3333H38.6667V42.1505H34.8V42.1467ZM36.7333 46.4H21.2667V50.2667H36.7333V46.4ZM23.2 48.3333V42.1505H19.3333V48.3333H23.2ZM13.804 25.0173C13.5101 27.0502 13.6291 29.1214 14.1539 31.1073C14.6788 33.0931 15.5987 34.9526 16.8587 36.5748L19.9133 34.2084C18.9705 32.9951 18.2825 31.6039 17.8905 30.1182C17.4985 28.6326 17.4106 27.083 17.632 25.5625L13.804 25.0135V25.0173ZM23.2 42.1467C23.2 38.9644 21.5064 36.2577 19.9133 34.2045L16.8587 36.5709C18.3396 38.4849 19.3333 40.3139 19.3333 42.1467H23.2ZM38.0867 34.2045C36.4897 36.2616 34.8 38.9644 34.8 42.1467H38.6667C38.6667 40.3139 39.6604 38.4849 41.1413 36.5709L38.0867 34.2045V34.2045ZM27.0667 0V7.73333H30.9333V0H27.0667ZM0 30.9333H7.73333V27.0667H0V30.9333ZM50.2667 30.9333H58V27.0667H50.2667V30.9333ZM12.9688 14.0979L7.1688 8.29787L4.4312 11.0355L10.2312 16.8355L12.9688 14.0979ZM47.7688 16.8355L53.5688 11.0355L50.8312 8.29787L45.0312 14.0979L47.7688 16.8355Z" fill="#E2C374"/>
</g>
<defs>
<clipPath id="clip0_1026_132">
<rect width="58" height="58" fill="white"/>
</clipPath>
</defs>
</svg>
