<svg width="10" height="11" viewBox="0 0 10 11" fill="none" xmlns="http://www.w3.org/2000/svg">
<path d="M9.46484 0.769531H0.535156C0.394531 0.769531 0.273438 0.820313 0.171875 0.921875C0.0703125 1.02344 0.0195312 1.14453 0.0195312 1.28516V10.2148C0.0195312 10.3555 0.0703125 10.4766 0.171875 10.5781C0.273438 10.6797 0.394531 10.7305 0.535156 10.7305H9.46484C9.60547 10.7305 9.72656 10.6797 9.82812 10.5781C9.92969 10.4766 9.98047 10.3555 9.98047 10.2148V1.28516C9.98047 1.14453 9.92969 1.02344 9.82812 0.921875C9.72656 0.820313 9.60547 0.769531 9.46484 0.769531ZM9.61719 10.2148C9.61719 10.2539 9.60156 10.2891 9.57031 10.3203C9.53906 10.3516 9.50391 10.3672 9.46484 10.3672H0.535156C0.496094 10.3672 0.460938 10.3516 0.429688 10.3203C0.398438 10.2891 0.382812 10.2539 0.382812 10.2148V1.28516C0.382812 1.24609 0.398438 1.21094 0.429688 1.17969C0.460938 1.14844 0.496094 1.13281 0.535156 1.13281H9.46484C9.50391 1.13281 9.53906 1.14844 9.57031 1.17969C9.60156 1.21094 9.61719 1.24609 9.61719 1.28516C9.61719 1.28516 9.61719 1.75 9.61719 2.67969C9.61719 3.60938 9.61719 4.63281 9.61719 5.75C9.61719 6.86719 9.61719 7.89062 9.61719 8.82031C9.61719 9.75 9.61719 10.2148 9.61719 10.2148ZM5 1.96484C4.47656 1.96484 3.98438 2.06641 3.52344 2.26953C3.07031 2.46484 2.67188 2.73437 2.32812 3.07812C1.98438 3.42188 1.71484 3.82031 1.51953 4.27344C1.31641 4.73438 1.21484 5.22656 1.21484 5.75C1.21484 6.27344 1.31641 6.76562 1.51953 7.22656C1.71484 7.67969 1.98438 8.07812 2.32812 8.42188C2.67188 8.76562 3.07031 9.03516 3.52344 9.23047C3.98438 9.43359 4.47656 9.53516 5 9.53516C5.52344 9.53516 6.01562 9.43359 6.47656 9.23047C6.92969 9.03516 7.32812 8.76562 7.67188 8.42188C8.01562 8.07812 8.28516 7.67969 8.48047 7.22656C8.68359 6.76562 8.78516 6.27344 8.78516 5.75C8.78516 5.22656 8.68359 4.73438 8.48047 4.27344C8.28516 3.82031 8.01562 3.42188 7.67188 3.07812C7.32812 2.73437 6.92969 2.46484 6.47656 2.26953C6.01562 2.06641 5.52344 1.96484 5 1.96484ZM5 9.17188C4.53125 9.17188 4.08984 9.08203 3.67578 8.90234C3.25391 8.72266 2.88672 8.48047 2.57422 8.17578C2.26953 7.86328 2.02734 7.49609 1.84766 7.07422C1.66797 6.66016 1.57812 6.21875 1.57812 5.75C1.57812 5.28125 1.66797 4.83984 1.84766 4.42578C2.02734 4.00391 2.26953 3.64062 2.57422 3.33594C2.88672 3.02344 3.25391 2.77734 3.67578 2.59766C4.08984 2.41797 4.53125 2.32812 5 2.32812C5.46875 2.32812 5.91016 2.41797 6.32422 2.59766C6.74609 2.77734 7.10938 3.02344 7.41406 3.33594C7.72656 3.64062 7.97266 4.00391 8.15234 4.42578C8.33203 4.83984 8.42188 5.28125 8.42188 5.75C8.42188 6.21875 8.33203 6.66016 8.15234 7.07422C7.97266 7.49609 7.72656 7.86328 7.41406 8.17578C7.10938 8.48047 6.74609 8.72266 6.32422 8.90234C5.91016 9.08203 5.46875 9.17188 5 9.17188ZM3.19531 5.12891C3.02344 5.12891 2.875 5.19141 2.75 5.31641C2.625 5.44141 2.5625 5.58984 2.5625 5.76172C2.5625 5.93359 2.625 6.08203 2.75 6.20703C2.875 6.33203 3.02344 6.39453 3.19531 6.39453C3.375 6.39453 3.52734 6.33203 3.65234 6.20703C3.77734 6.08203 3.83984 5.93359 3.83984 5.76172C3.83984 5.58984 3.77734 5.44141 3.65234 5.31641C3.52734 5.19141 3.375 5.12891 3.19531 5.12891ZM6.80469 5.12891C6.625 5.12891 6.47266 5.19141 6.34766 5.31641C6.22266 5.44141 6.16016 5.58984 6.16016 5.76172C6.16016 5.93359 6.22266 6.08203 6.34766 6.20703C6.47266 6.33203 6.625 6.39453 6.80469 6.39453C6.97656 6.39453 7.125 6.33203 7.25 6.20703C7.375 6.08203 7.4375 5.93359 7.4375 5.76172C7.4375 5.58984 7.375 5.44141 7.25 5.31641C7.125 5.19141 6.97656 5.12891 6.80469 5.12891ZM5 3.03125C4.82812 3.03125 4.67969 3.09375 4.55469 3.21875C4.42969 3.34375 4.36719 3.49219 4.36719 3.66406C4.36719 3.83594 4.42969 3.98438 4.55469 4.10938C4.67969 4.23438 4.82812 4.29688 5 4.29688C5.17188 4.29688 5.32031 4.23438 5.44531 4.10938C5.57031 3.98438 5.63281 3.83594 5.63281 3.66406C5.63281 3.49219 5.57031 3.34375 5.44531 3.21875C5.32031 3.09375 5.17188 3.03125 5 3.03125ZM5 3.92188C4.92969 3.92188 4.86328 3.89844 4.80078 3.85156C4.74609 3.79688 4.71875 3.73047 4.71875 3.65234C4.71875 3.57422 4.74609 3.50781 4.80078 3.45312C4.85547 3.39844 4.92188 3.37109 5 3.37109C5.07031 3.37109 5.13281 3.39844 5.1875 3.45312C5.25 3.50781 5.28125 3.57422 5.28125 3.65234C5.28125 3.72266 5.25 3.78516 5.1875 3.83984C5.13281 3.89453 5.07031 3.92188 5 3.92188Z" fill="black"/>
</svg>
