<svg width="24" height="19" viewBox="0 0 24 19" fill="none" xmlns="http://www.w3.org/2000/svg">
<path d="M23.3893 3.18836C23.2908 2.78854 23.098 2.41885 22.8274 2.11098C22.5569 1.80311 22.2166 1.56624 21.8357 1.42066C18.1714 -0.0108425 12.3214 2.41594e-06 12 2.41594e-06C11.6786 2.41594e-06 5.82857 -0.0108425 2.16429 1.42066C1.78344 1.56624 1.44314 1.80311 1.17256 2.11098C0.901982 2.41885 0.709192 2.78854 0.610714 3.18836C0.332143 4.26199 0 6.23573 0 9.5C0 12.7643 0.332143 14.738 0.610714 15.8116C0.709192 16.2115 0.901982 16.5812 1.17256 16.889C1.44314 17.1969 1.78344 17.4338 2.16429 17.5793C5.67857 18.9566 11.1857 19 11.925 19H12.075C12.8143 19 18.3214 18.9566 21.8357 17.5793C22.2166 17.4338 22.5569 17.1969 22.8274 16.889C23.098 16.5812 23.2908 16.2115 23.3893 15.8116C23.6679 14.738 24 12.7643 24 9.5C24 6.23573 23.6679 4.26199 23.3893 3.18836V3.18836ZM15.6643 9.85788L10.5214 13.3282C10.4532 13.379 10.3704 13.4057 10.2857 13.4041C10.2147 13.4014 10.1452 13.3829 10.0821 13.3499C10.0137 13.3138 9.95638 13.2593 9.91667 13.1923C9.87695 13.1253 9.85635 13.0484 9.85714 12.9703V6.02968C9.85635 5.95155 9.87695 5.87473 9.91667 5.80773C9.95638 5.74073 10.0137 5.68617 10.0821 5.65012C10.1505 5.61322 10.2274 5.59576 10.3047 5.59958C10.3821 5.60339 10.457 5.62835 10.5214 5.6718L15.6643 9.14212C15.724 9.18022 15.7733 9.23303 15.8074 9.29561C15.8415 9.3582 15.8595 9.42852 15.8595 9.5C15.8595 9.57149 15.8415 9.6418 15.8074 9.70439C15.7733 9.76697 15.724 9.81978 15.6643 9.85788Z" fill="#7d7d7d"/>
</svg>
