<svg width="55" height="55" viewBox="0 0 55 55" fill="none" xmlns="http://www.w3.org/2000/svg">
<path d="M40.1682 10.7308C43.022 9.59319 45.288 7.54756 47.1414 5.14232C47.8258 4.25399 48.9546 3.03752 47.5887 2.22934C46.7159 1.71237 45.46 1.4841 44.4878 1.20589C43.6263 0.959576 42.7564 0.740956 41.8786 0.559681C35.2268 -0.817501 27.8428 0.150135 23.3026 5.68194C22.2313 4.08362 20.6905 2.10765 18.6843 1.74342C16.9458 1.42787 14.9031 2.36026 14.7466 4.29469C14.5687 6.4981 16.8006 7.70366 17.7586 9.42073C18.7434 11.1861 19.1924 13.251 19.4303 15.2412C16.7964 14.5291 14.4134 13.9115 11.6528 14.2434C10.3234 14.4033 8.96385 14.7012 7.72933 15.2337C0.205187 18.0783 -0.716291 28.003 0.618509 34.7698C2.15263 42.5499 7.01431 51.2309 14.8053 54.1896C16.6034 54.8728 18.5575 55.177 20.4702 54.8912C21.3858 54.7544 22.2665 54.2924 23.1792 54.2215C24.2778 54.1359 25.4472 54.8035 26.5479 54.9315C30.7134 55.4162 34.6826 53.2564 37.653 50.5134C43.7513 44.8821 47.1683 35.8893 46.5993 27.6451C46.3043 23.3721 44.7832 18.6619 41.0129 16.216C39.0428 14.9378 36.5448 14.4284 34.226 14.3621C31.4406 14.282 28.9556 15.2874 26.2411 15.6529C26.169 13.9727 25.955 12.4164 25.5987 10.9779C30.3274 12.0463 35.5566 12.5674 40.1682 10.7308C38.157 11.5314 44.3082 9.08084 40.1682 10.7308ZM25.8022 17.8693C28.2561 17.6268 30.5611 16.6595 33.0259 16.5274C35.2369 16.409 37.7647 16.7464 39.6815 17.9226C43.2453 20.1096 44.3854 24.7787 44.4915 28.682C44.7232 37.2035 40.4309 47.3717 32.6034 51.5205C30.747 52.504 28.6069 53.0818 26.5017 52.7533C25.5458 52.6039 24.6693 52.1469 23.7004 52.0777C22.5582 51.9963 21.614 52.4851 20.5255 52.7004C16.1871 53.5581 12.0132 50.6753 9.23618 47.6281C3.47484 41.3074 0.0306263 30.5174 3.56883 22.3353C4.88559 19.2901 7.28034 17.346 10.4799 16.6314C12.7278 16.1291 15.0831 16.1635 17.2937 16.8265C20.1135 17.6721 22.8423 18.1668 25.8022 17.8693C23.6953 18.0812 27.0846 17.7426 25.8022 17.8693ZM24.0935 15.8174C23.2694 15.8291 22.4516 15.7838 21.6455 15.6797C21.361 12.669 20.6376 9.38338 18.7002 6.97688C18.1686 6.3164 15.5875 4.0681 17.8056 3.84066C19.5831 3.65855 21.2141 6.31305 21.964 7.61344C21.7076 8.06117 21.2876 8.67842 21.387 9.23316C21.5377 10.0749 22.5028 10.184 23.183 10.3716C23.7092 11.9905 24.0117 13.8019 24.0935 15.8174C23.2694 15.8291 24.0935 15.8174 24.0935 15.8174ZM24.8317 8.58401V8.58317C24.5627 8.51519 24.2903 8.44428 24.0147 8.37043C28.5813 0.926846 38.2044 1.33429 45.4877 3.76765C42.5428 7.6512 38.0164 11.9195 24.8317 8.58401Z" fill="#5E5E5E"/>
<path d="M6.13732 32.8981C5.58888 32.8981 5.12017 32.481 5.06772 31.9241C4.171 22.4547 9.40446 19.4326 9.62769 19.3084C10.1472 19.0201 10.8022 19.2068 11.0909 19.7255C11.3783 20.242 11.195 20.8924 10.6814 21.1832C10.6474 21.2034 9.60587 21.8307 8.66971 23.3938C7.39953 25.5141 6.89473 28.3939 7.20986 31.7219C7.26567 32.3127 6.83137 32.8372 6.23971 32.8935C6.20572 32.8964 6.17131 32.8981 6.13732 32.8981Z" fill="#5E5E5E"/>
<path d="M7.68819 37.2864C7.09359 37.2864 6.61145 36.8055 6.61145 36.2118C6.61145 35.618 7.09275 35.1367 7.68693 35.1367H7.68819C8.28236 35.1367 8.76408 35.618 8.76408 36.2118C8.76408 36.8055 8.28236 37.2864 7.68819 37.2864Z" fill="#5E5E5E"/>
</svg>
