<svg width="80" height="80" viewBox="0 0 80 80" fill="none" xmlns="http://www.w3.org/2000/svg">
<path d="M35.375 72.472C43.6949 72.3827 51.8828 70.382 59.3063 66.6245C59.5155 66.5206 59.6914 66.3601 59.814 66.1612C59.9366 65.9624 60.0011 65.7331 60 65.4995V61.512C61.0652 61.2481 62.0962 60.8617 63.0725 60.3608C68.5625 57.5383 70.59 51.8758 71.2075 49.5733C71.2361 49.4677 71.2504 49.3589 71.25 49.2495V47.3408C72.0618 46.643 72.8071 45.8713 73.4763 45.0358C76.1298 41.594 77.5472 37.359 77.5 33.0133C77.5012 32.8477 77.4694 32.6835 77.4065 32.5303C77.3436 32.3771 77.2509 32.2379 77.1338 32.1208L73.3838 28.3708C73.219 28.2061 73.0115 28.0908 72.7847 28.0378C72.5578 27.9848 72.3207 27.9962 72.1 28.0708C71.6863 28.2108 71.265 28.3333 70.8425 28.457C69.9488 28.6955 69.0742 29.001 68.2263 29.3708C52.5113 36.6245 41.625 33.507 28.125 25.6733C27.2921 25.0924 26.5907 24.3429 26.0663 23.4733C24.6382 21.2534 23.4332 18.8978 22.4688 16.4408C22.3949 16.2722 22.3079 16.1096 22.2088 15.9545L15.9588 8.45452C15.7897 8.25171 15.5608 8.10763 15.3048 8.04296C15.0488 7.97829 14.7789 7.99634 14.5338 8.09452L8.28379 10.5945C7.97833 10.717 7.73351 10.9551 7.60246 11.2569C7.47141 11.5588 7.4647 11.9002 7.58379 12.207C8.6104 14.7997 9.01208 17.5977 8.75629 20.3745C8.58272 21.9733 8.19117 23.5407 7.59254 25.0333C7.26292 25.8427 6.87134 26.6254 6.42129 27.3745C4.56888 31.0552 3.25463 34.9828 2.51879 39.037C1.33379 45.7608 4.82879 56.3208 10.31 62.5783C16.03 69.1095 25.1763 72.4733 35.375 72.472ZM68.75 49.087C68.1725 51.157 66.4138 55.837 61.9275 58.1433C60.944 58.6407 59.8954 58.9976 58.8125 59.2033C56.1193 58.2327 53.3629 57.4471 50.5625 56.852C52.2036 56.4668 53.8226 55.9932 55.4125 55.4333C59.0343 54.1472 62.4846 52.4218 65.6863 50.2958L64.3038 48.2133C61.2731 50.2267 58.0065 51.8601 54.5775 53.077C48.7437 55.135 42.5471 55.9632 36.3775 55.5095C31.0166 54.6189 26.0498 52.1298 22.1275 48.3683C18.0917 44.1666 15.582 38.7326 15 32.9358V31.6133C16.6155 31.1962 18.1591 30.5384 19.5788 29.662C27.1475 46.6783 40.5 47.6245 46.2713 47.9383C46.2713 47.9383 49.5 48.102 50.5413 48.102C55.812 48.0909 61.0487 47.2575 66.0625 45.632L68.75 47.4233V49.087ZM15.045 29.032L16.145 21.3308L16.6625 21.072C17.194 23.1968 17.8493 25.2887 18.625 27.337C17.4898 28.0174 16.2908 28.5851 15.045 29.032ZM26.8725 27.8358C40.7213 35.8745 52.6463 39.3145 69.2738 31.6395C70.0108 31.3237 70.7699 31.0622 71.545 30.857L72.1538 30.677L74.99 33.5133C74.9406 37.1205 73.7245 40.6147 71.5238 43.4733C71.0251 44.0842 70.4783 44.6544 69.8888 45.1783L66.9438 43.2145C66.7856 43.1085 66.6051 43.0403 66.4163 43.0152C66.2275 42.99 66.0355 43.0086 65.855 43.0695C64.5525 43.5033 63.2425 43.8708 61.93 44.1945C62.7525 43.7779 63.5763 43.3195 64.4013 42.8195C67.2948 41.0483 69.9152 38.8654 72.18 36.3395L70.32 34.6683C68.2174 37.0139 65.7848 39.0413 63.0988 40.687C58.2197 43.6308 52.6688 45.2779 46.9738 45.472L46.64 45.4533C40.9625 45.1508 28.765 44.487 21.765 28.4533C22.9438 27.8488 24.0367 27.0901 25.015 26.197C25.5413 26.8413 26.1696 27.3949 26.875 27.8358H26.8725ZM23.5188 24.1408C22.7382 24.9453 21.827 25.6119 20.8238 26.112C20.0657 24.0504 19.4312 21.9454 18.9238 19.8083L20.6738 18.6408C21.4838 20.5424 22.4348 22.3809 23.5188 24.1408ZM14.625 10.7495L19.4025 16.4833L16.875 18.172L15 19.107L11.2825 17.2495C11.1528 15.6249 10.8331 14.021 10.33 12.4708L14.625 10.7495ZM9.90754 25.9758C10.5944 24.2646 11.0439 22.4675 11.2438 20.6345C11.2638 20.4358 11.2713 20.242 11.285 20.0458L13.635 21.2208C13.635 21.2208 12.51 29.1358 12.51 29.1645C11.2796 28.9407 10.1181 28.4336 9.11754 27.6833C9.35004 27.2333 9.62504 26.6633 9.90754 25.9758ZM4.98129 39.4758C5.61057 36.1878 6.59812 32.9787 7.92629 29.9058C9.28839 30.8534 10.8559 31.4643 12.5 31.6883C12.5 31.6883 12.5 33.0958 12.5075 33.1408C13.1424 39.5298 15.9113 45.5186 20.3675 50.1408C24.6851 54.2822 30.1556 57.019 36.0588 57.9908C37.7344 58.2221 39.4236 58.3411 41.115 58.347C44.0122 58.3535 46.9016 58.6492 49.74 59.2295C52.3723 59.7766 54.9648 60.4999 57.5 61.3945V64.7245C40.3338 72.9745 21.375 71.417 12.19 60.932C7.23004 55.2683 3.92879 45.442 4.98129 39.472V39.4758Z" fill="#5E5E5E"/>
<path d="M39.2963 66.4787C42.5557 66.47 45.8061 66.135 48.9988 65.4787L48.4988 63.0287C34.4726 65.8749 21.5363 62.2199 14.7363 53.4874C12.3262 50.3382 10.6951 46.6636 9.9763 42.7637L7.5238 43.2499C8.31622 47.5344 10.1119 51.5703 12.7638 55.0274C18.5176 62.4137 28.2163 66.4787 39.2963 66.4787Z" fill="#5E5E5E"/>
<path d="M7.5 38.0049H10V40.5049H7.5V38.0049Z" fill="#5E5E5E"/>
</svg>
