<svg width="66" height="62" viewBox="0 0 66 62" fill="none" xmlns="http://www.w3.org/2000/svg">
<path d="M28.9174 28.2627H27.3987C26.1487 28.2627 25.1317 29.2181 25.1317 30.3923V55.2435C25.1317 56.4176 26.1486 57.373 27.3987 57.373H28.9174C30.1673 57.373 31.1843 56.4176 31.1843 55.2435V30.3923C31.1843 29.2181 30.1674 28.2627 28.9174 28.2627ZM29.2498 55.2435C29.2498 55.4157 29.1007 55.5558 28.9174 55.5558H27.3987C27.2154 55.5558 27.0662 55.4157 27.0662 55.2435V30.3923C27.0662 30.22 27.2153 30.0799 27.3987 30.0799H28.9174C29.1006 30.0799 29.2498 30.22 29.2498 30.3923V55.2435Z" fill="#5E5E5E"/>
<path d="M20.7531 34.3972C20.2189 34.3972 19.7858 34.8039 19.7858 35.3058V55.2436C19.7858 55.4157 19.6368 55.5558 19.4534 55.5558H17.9347C17.7514 55.5558 17.6022 55.4157 17.6022 55.2436V35.0805C17.6022 34.5786 17.1691 34.1719 16.635 34.1719C16.1008 34.1719 15.6677 34.5786 15.6677 35.0805V55.2436C15.6677 56.4178 16.6846 57.373 17.9347 57.373H19.4534C20.7033 57.373 21.7203 56.4178 21.7203 55.2436V35.3058C21.7203 34.8039 21.2873 34.3972 20.7531 34.3972Z" fill="#5E5E5E"/>
<path d="M38.7715 27.9951H37.2528C36.0029 27.9951 34.986 28.9504 34.986 30.1246V37.896C34.986 38.398 35.5385 42.8291 35.9532 38.8046C37.2528 45.2765 36.9204 38.398 36.9204 37.896V30.1246C36.9204 29.9524 37.0695 29.8124 37.2528 29.8124H38.7715C38.9549 29.8124 39.1039 29.9524 39.1039 30.1246V54.9759C39.1039 55.148 38.9549 55.2881 38.7715 55.2881H37.2528C37.0695 55.2881 36.9204 55.148 36.9204 54.9759V41.7682C36.9204 41.2663 36.4875 35.0791 35.9532 35.0791C35.4189 35.0791 34.986 41.2663 34.986 41.7682V54.9759C34.986 56.1501 36.0029 57.1053 37.2528 57.1053H38.7715C40.0214 57.1053 41.0384 56.1501 41.0384 54.9759V30.1246C41.0384 28.9504 40.0214 27.9951 38.7715 27.9951Z" fill="#5E5E5E"/>
<path d="M53.2688 20.6348H47.6207V18.6333C49.1218 17.8535 50.1407 16.3511 50.1407 14.629C50.1407 13.4075 49.6343 12.259 48.7149 11.3953C47.7953 10.5315 46.5729 10.0557 45.2725 10.0559H43.8408V9.5365C43.8408 7.0149 41.6569 4.96336 38.9726 4.96336H36.0408C35.7184 2.17644 33.1983 0 30.1474 0C27.0964 0 24.5763 2.17644 24.2539 4.96336H21.3221C18.6379 4.96336 16.454 7.0149 16.454 9.5365V10.0559H15.0222C12.3379 10.0559 10.1539 12.1074 10.1539 14.629C10.1539 16.3013 11.1149 17.7662 12.545 18.5637V56.0162C12.545 59.3156 15.4025 62 18.9148 62H41.251C44.7632 62 47.6209 59.3157 47.6209 56.0162V50.2262H53.2689C56.3001 50.2262 58.766 47.9098 58.766 45.0623V25.7988C58.7659 22.9513 56.3 20.6348 53.2688 20.6348ZM15.0222 11.8731H17.4212C17.9554 11.8731 18.3884 11.4664 18.3884 10.9645V9.5365C18.3884 8.01692 19.7045 6.7806 21.3221 6.7806H24.8638C25.575 6.7806 26.1536 6.23712 26.1536 5.56898C26.1536 3.50024 27.9452 1.81724 30.1474 1.81724C32.3496 1.81724 34.1412 3.50024 34.1412 5.56898C34.1412 6.23712 34.7198 6.7806 35.4311 6.7806H38.9727C40.5903 6.7806 41.9064 8.01692 41.9064 9.5365V10.9645C41.9064 11.4664 42.3393 11.8731 42.8736 11.8731H45.2727C46.0563 11.8731 46.793 12.1596 47.3471 12.6802C47.9012 13.2008 48.2064 13.8929 48.2064 14.629C48.2064 16.1486 46.8903 17.3849 45.2727 17.3849H29.5789C27.7364 17.3849 26.0042 18.0588 24.7014 19.2827C23.3986 20.5067 22.681 22.1338 22.681 23.8646V28.9671C22.681 29.8493 21.9171 30.567 20.9779 30.567C20.0388 30.567 19.2748 29.8493 19.2748 28.9671V19.3816C19.2748 18.2806 18.3213 17.3849 17.1492 17.3849H15.0221C13.4045 17.3849 12.0884 16.1486 12.0884 14.629C12.0884 13.1094 13.4045 11.8731 15.0222 11.8731ZM15.0221 19.2021H17.1492C17.2546 19.2021 17.3403 19.2827 17.3403 19.3816V22.1612H14.4795V19.1731C14.6577 19.1917 14.8387 19.2021 15.0221 19.2021ZM41.251 60.1828H18.9148C16.4692 60.1828 14.4795 58.3137 14.4795 56.0162V23.9786H17.3403V28.9672C17.3403 30.8515 18.9721 32.3844 20.9779 32.3844C22.9837 32.3844 24.6155 30.8515 24.6155 28.9672V23.9786H37.6148C38.1491 23.9786 42.0779 23.9694 41.7368 23.9787C43.9243 23.9788 41.7368 22.1614 37.6148 22.1613H24.9572C25.2034 21.5712 25.5777 21.0294 26.0692 20.5678C27.0067 19.6871 28.2531 19.2023 29.5788 19.2023H45.2725C45.4119 19.2023 45.5497 19.1955 45.6862 19.1846V22.1614L39.7693 22.2955C39.235 22.2955 40.7696 22.5681 40.7696 23.0701C40.7696 23.572 41.2025 23.9787 41.7368 23.9787H45.6862V56.0163C45.6862 58.3137 43.6967 60.1828 41.251 60.1828ZM56.8314 45.0623C56.8314 46.9076 55.2332 48.409 53.2688 48.409H47.6207V46.3495H53.2688C54.0242 46.3495 54.639 45.772 54.639 45.0623V29.7763C54.639 29.2744 54.2234 29.7763 53.6891 29.7763C53.1548 29.7763 52.7045 28.9671 52.7045 33.9508V44.5322H47.6207V26.3289H52.7045L52.7333 32.087C52.7333 32.5889 53.6718 32.3844 53.6718 30.9873C54.2061 30.9873 54.639 30.5806 54.639 30.0787V25.7988C54.639 25.0891 54.0242 24.5116 53.2688 24.5116H47.6207V22.4521H53.2688C55.2332 22.4521 56.8314 23.9535 56.8314 25.7988V45.0623Z" fill="#5E5E5E"/>
</svg>
