<svg width="57" height="57" viewBox="0 0 57 57" fill="none" xmlns="http://www.w3.org/2000/svg">
<path d="M41.5142 24.2473V22.4215C41.5142 19.1373 40.5123 15.9867 38.6197 13.3037L34.9125 8.07129V3.40664C34.9125 1.5252 33.3761 0 31.5058 0H25.5164C23.6349 0 22.1097 1.53633 22.1097 3.40664V8.04902L18.4025 13.3037C16.5099 15.9867 15.508 19.1262 15.508 22.4104V24.2473C15.508 25.3939 16.0535 26.407 16.8884 27.0639C16.0312 27.9879 15.4968 29.2125 15.4968 30.5707C15.4968 32.1516 16.2205 33.5654 17.3449 34.5117C16.2093 35.458 15.4968 36.8719 15.4968 38.4527C15.4968 39.8109 16.0201 41.0467 16.8884 41.9596C16.0535 42.6164 15.508 43.6295 15.508 44.7762V51.0662C15.508 54.3393 18.1687 57 21.4417 57H35.5804C38.8535 57 41.5142 54.3393 41.5142 51.0662V44.7762C41.5142 43.6295 40.9687 42.6053 40.1226 41.9596C40.9798 41.0467 41.5142 39.8109 41.5142 38.4639C41.5142 36.883 40.7906 35.4691 39.6662 34.5229C40.7906 33.5766 41.5142 32.1627 41.5142 30.5818C41.5142 29.2236 40.991 28.0102 40.1226 27.0861C40.9687 26.4182 41.5142 25.4051 41.5142 24.2473ZM24.4699 3.40664C24.4699 2.83887 24.9375 2.37129 25.5052 2.37129H31.4947C32.0625 2.37129 32.53 2.83887 32.53 3.40664V7.23633H24.4699V3.40664ZM20.6179 35.6918H36.3709C37.896 35.6918 39.1207 36.9275 39.1207 38.4416C39.1207 39.9668 37.8849 41.1914 36.3709 41.1914H20.6068C19.0816 41.1914 17.857 39.9557 17.857 38.4416C17.8681 36.9275 19.0927 35.6918 20.6179 35.6918ZM17.8681 30.5707C17.8681 29.0455 19.1039 27.8209 20.6179 27.8209H36.3709C37.896 27.8209 39.1207 29.0566 39.1207 30.5707C39.1207 32.0848 37.8849 33.3205 36.3709 33.3205H20.6179C19.0927 33.3205 17.8681 32.0848 17.8681 30.5707ZM39.1318 51.0662C39.1318 53.0367 37.5398 54.6287 35.5693 54.6287H21.4306C19.4601 54.6287 17.8681 53.0367 17.8681 51.0662V44.7762C17.8681 44.1193 18.4025 43.585 19.0593 43.585H37.9517C38.6085 43.585 39.1429 44.1193 39.1429 44.7762V51.0662H39.1318ZM39.1318 24.2473C39.1318 24.9041 38.5974 25.4385 37.9406 25.4385H19.0593C18.4025 25.4385 17.8681 24.9041 17.8681 24.2473V22.4104C17.8681 19.616 18.7142 16.9441 20.3285 14.673L23.9021 9.61875H33.0978L36.6826 14.673C38.2968 16.9553 39.1429 19.6271 39.1429 22.4215L39.1318 24.2473Z" fill="#5E5E5E"/>
</svg>
