<svg width="56" height="57" viewBox="0 0 56 57" fill="none" xmlns="http://www.w3.org/2000/svg">
<g clip-path="url(#clip0_997_228)">
<path d="M40.8817 4.58203H15.1998C14.5837 4.58203 14.0842 5.09038 14.0842 5.71749V9.80196C14.0842 10.4291 14.5837 10.9374 15.1998 10.9374H40.8817C41.4977 10.9374 41.9972 10.4291 41.9972 9.80196V5.71749C41.9972 5.09038 41.4977 4.58203 40.8817 4.58203ZM39.7661 8.6665H16.3153V6.85295H39.7661V8.6665Z" fill="#5E5E5E"/>
<path d="M9.98321 18.8344H26.0344C26.6505 18.8344 27.1499 18.326 27.1499 17.6989C27.1499 17.0718 26.6505 16.5635 26.0344 16.5635H9.98321C9.3671 16.5635 8.86768 17.0718 8.86768 17.6989C8.86768 18.326 9.3671 18.8344 9.98321 18.8344Z" fill="#5E5E5E"/>
<path d="M30.582 18.8344H32.5884C33.2044 18.8344 33.7039 18.326 33.7039 17.6989C33.7039 17.0718 33.2044 16.5635 32.5884 16.5635H30.582C29.966 16.5635 29.4664 17.0718 29.4664 17.6989C29.4664 18.326 29.966 18.8344 30.582 18.8344Z" fill="#5E5E5E"/>
<path d="M13.1573 43.9293C15.1005 43.9293 16.6816 42.3201 16.6816 40.3421C16.6816 38.3642 15.1006 36.7549 13.1573 36.7549C11.2139 36.7549 9.63293 38.3641 9.63293 40.3421C9.63293 42.3201 11.2139 43.9293 13.1573 43.9293ZM13.1573 39.0258C13.8703 39.0258 14.4505 39.6163 14.4505 40.3421C14.4505 41.0679 13.8703 41.6584 13.1573 41.6584C12.4442 41.6584 11.864 41.0679 11.864 40.3421C11.864 39.6163 12.4442 39.0258 13.1573 39.0258Z" fill="#5E5E5E"/>
<path d="M42.8428 43.9293C44.7861 43.9293 46.3671 42.3201 46.3671 40.3421C46.3671 38.3642 44.7861 36.7549 42.8428 36.7549C40.8995 36.7549 39.3186 38.3641 39.3186 40.3421C39.3186 42.3201 40.8995 43.9293 42.8428 43.9293ZM42.8428 39.0258C43.556 39.0258 44.1361 39.6163 44.1361 40.3421C44.1361 41.0679 43.556 41.6584 42.8428 41.6584C42.1298 41.6584 41.5497 41.0679 41.5497 40.3421C41.5497 39.6163 42.1298 39.0258 42.8428 39.0258Z" fill="#5E5E5E"/>
<path d="M54.8845 21.2485H51.494V6.62281C51.494 3.49655 48.9953 0.953125 45.9238 0.953125H10.0762C7.0048 0.953125 4.50599 3.49655 4.50599 6.62281V21.2485H1.11554C0.499426 21.2485 0 21.7569 0 22.384V32.6457C0 33.2728 0.499426 33.7812 1.11554 33.7812H4.50599V47.7876C4.50599 48.4147 5.00542 48.923 5.62153 48.923H6.48618V52.2569C6.48618 54.3469 8.1567 56.0471 10.2101 56.0471H10.8788C12.9322 56.0471 14.6027 54.3468 14.6027 52.2569V48.923H41.3974V52.2569C41.3974 54.3469 43.0679 56.0471 45.1213 56.0471H45.79C47.8434 56.0471 49.5139 54.3468 49.5139 52.2569V48.923H50.3786C50.9946 48.923 51.4941 48.4147 51.4941 47.7876V33.7812H54.8845C55.5005 33.7812 56 33.2728 56 32.6457V22.384C56 21.7569 55.5005 21.2485 54.8845 21.2485ZM4.48078 31.5102H2.23108V23.5194H4.48078V31.5102ZM12.3715 52.257C12.3715 53.0947 11.7019 53.7763 10.8787 53.7763H10.21C9.38681 53.7763 8.71715 53.0947 8.71715 52.257V48.9232H12.3715V52.257ZM47.2827 52.257C47.2827 53.0947 46.6131 53.7763 45.7899 53.7763H45.1212C44.298 53.7763 43.6283 53.0947 43.6283 52.257V48.9232H47.2827V52.257ZM49.263 46.6522H6.73707V33.8108H49.263V46.6522ZM49.263 31.5399H49.2629H44.3524C44.2933 31.5076 44.2311 31.4796 44.1649 31.458L29.9866 26.8289C29.3997 26.6372 28.7716 26.9661 28.5835 27.5633C28.3955 28.1604 28.7184 28.7998 29.3051 28.9912L37.1113 31.5398H25.7599L11.3939 26.8289C10.807 26.6372 10.1791 26.966 9.99098 27.5633C9.80279 28.1604 10.1258 28.7998 10.7125 28.9912L18.5187 31.5398H6.73707V14.6138H49.263V31.5399ZM49.263 12.3429H6.73707V6.62281C6.73707 4.74873 8.23501 3.22404 10.0762 3.22404H45.9239C47.7651 3.22404 49.263 4.74873 49.263 6.62281V12.3429ZM53.7689 31.5102H51.5192V23.5194H53.7689V31.5102Z" fill="#5E5E5E"/>
</g>
<defs>
<clipPath id="clip0_997_228">
<rect width="56" height="57" fill="white"/>
</clipPath>
</defs>
</svg>
