<svg width="60" height="56" viewBox="0 0 60 56" fill="none" xmlns="http://www.w3.org/2000/svg">
<g clip-path="url(#clip0_997_205)">
<path d="M46.4062 14.4377H45.2344V8.31269C45.2344 7.70861 44.7096 7.21894 44.0625 7.21894H32.8125C32.1653 7.21894 31.6407 7.70861 31.6407 8.31269V9.79613H28.3594V8.31269C28.3594 7.70861 27.8348 7.21894 27.1876 7.21894H22.7345V1.09375C22.7345 0.48967 22.2098 0 21.5626 0H15.9376C15.2904 0 14.7657 0.48967 14.7657 1.09375V14.4377H13.5939C12.9466 14.4377 12.422 14.9273 12.422 15.5314V54.9063C12.422 55.5103 12.9466 56 13.5939 56H46.4062C47.0533 56 47.5781 55.5103 47.5781 54.9063V15.5314C47.5781 14.9273 47.0533 14.4377 46.4062 14.4377ZM39.6094 9.40643H42.8906V14.4377H41.7188H39.6094V9.40643ZM33.9844 9.40643H37.2656V14.4377H33.9844V9.40643ZM28.3594 11.9835H31.6407V14.4377H28.3594V11.9835ZM22.7345 9.40643H26.0157V14.4377H22.7345V9.40643ZM40.3452 16.6252C39.8616 17.8982 38.5589 18.8126 37.0313 18.8126H22.9688C21.4412 18.8126 20.1385 17.8982 19.6548 16.6252H40.3452ZM17.1095 2.18749H20.3907V14.4377H17.1095V2.18749ZM45.2344 53.8125H14.7657V36.847L30.0001 28.6378L45.2344 36.847V53.8125ZM45.2344 34.3211L30.586 26.4276C30.577 26.4228 30.5677 26.4191 30.5586 26.4145C30.5375 26.4039 30.5165 26.3935 30.4948 26.3841C30.4784 26.377 30.462 26.3706 30.4455 26.3643C30.4277 26.3574 30.4097 26.3506 30.3915 26.3446C30.3717 26.3379 30.3517 26.3324 30.3317 26.3268C30.316 26.3224 30.3003 26.3181 30.2845 26.3144C30.2629 26.3094 30.2415 26.3051 30.2198 26.3013C30.2043 26.2986 30.1887 26.2958 30.1731 26.2938C30.1519 26.2908 30.1307 26.2885 30.1095 26.2866C30.0923 26.2851 30.0752 26.2839 30.0579 26.283C30.0387 26.2822 30.0195 26.2818 30.0003 26.2818C29.9807 26.2817 29.9611 26.2822 29.9415 26.283C29.9246 26.2838 29.9078 26.2851 29.8911 26.2865C29.8695 26.2884 29.8481 26.2907 29.8265 26.2936C29.8111 26.2958 29.796 26.2983 29.7808 26.3011C29.7588 26.305 29.737 26.3093 29.7151 26.3144C29.6996 26.318 29.6842 26.3222 29.6689 26.3263C29.6485 26.332 29.6282 26.3378 29.6081 26.3445C29.5902 26.3504 29.5728 26.3571 29.5553 26.3638C29.5385 26.3703 29.5216 26.3767 29.5048 26.384C29.4837 26.3932 29.4632 26.4033 29.4426 26.4137C29.4332 26.4186 29.4234 26.4224 29.414 26.4274L14.7656 34.3209V16.6252H17.2271C17.7717 19.1182 20.1392 21.0001 22.9688 21.0001H37.0313C39.8609 21.0001 42.2285 19.1182 42.7729 16.6252H45.2344V34.3211Z" fill="#5E5E5E"/>
<path d="M25.9261 49.417H25.8984C25.2512 49.417 24.7266 49.9067 24.7266 50.5107C24.7266 51.1148 25.2512 51.6045 25.8984 51.6045H25.9261C26.5733 51.6045 27.098 51.1148 27.098 50.5107C27.098 49.9068 26.5733 49.417 25.9261 49.417Z" fill="#5E5E5E"/>
<path d="M34.1016 49.417H29.293C28.6457 49.417 28.1211 49.9067 28.1211 50.5107C28.1211 51.1148 28.6457 51.6045 29.293 51.6045H34.1016C34.7488 51.6045 35.2735 51.1148 35.2735 50.5107C35.2735 49.9067 34.7488 49.417 34.1016 49.417Z" fill="#5E5E5E"/>
</g>
<defs>
<clipPath id="clip0_997_205">
<rect width="60" height="56" fill="white"/>
</clipPath>
</defs>
</svg>
