<svg width="71" height="71" viewBox="0 0 71 71" fill="none" xmlns="http://www.w3.org/2000/svg">
<path d="M15.2899 21.8986H17.6684L19.796 50.0679C19.796 50.075 19.7925 50.0797 19.7925 50.0868C19.7925 50.1022 19.8008 50.114 19.8008 50.1294L20.4279 58.4305C20.7096 62.1603 23.8596 65.0832 27.6001 65.0832H43.4C47.1405 65.0832 50.2917 62.1615 50.5734 58.4305L52.5566 32.1711C52.5566 32.1664 52.559 32.164 52.559 32.1593C52.559 32.1569 52.5578 32.1557 52.5578 32.1534L53.3329 21.8974H55.7102C56.3634 21.8974 56.8935 21.3673 56.8935 20.7141V13.9064C56.8935 13.2532 56.3634 12.723 55.7102 12.723H53.1317L51.4597 6.77797C51.3165 6.26914 50.8514 5.9165 50.3201 5.9165H20.68C20.1499 5.9165 19.6848 6.26914 19.5416 6.77915L17.8684 12.7242H15.2899C14.6367 12.7242 14.1066 13.2544 14.1066 13.9076V20.7153C14.1066 21.3685 14.6367 21.8986 15.2899 21.8986ZM48.9191 48.9046H22.0811L20.906 33.3438H50.0953L48.9191 48.9046ZM48.2138 58.253C48.0245 60.7557 45.9098 62.7165 43.4 62.7165H27.6001C25.0903 62.7165 22.9768 60.7557 22.7875 58.253L22.2597 51.2713H48.7404L48.2138 58.253ZM50.274 30.9771H20.7273L20.0422 21.8986H50.9591L50.274 30.9771ZM21.5758 8.28317H49.4243L50.6728 12.7242H20.3274L21.5758 8.28317ZM16.4732 15.0909H18.7654H52.2359H54.5281V19.5319H52.2359H18.7654H16.4732V15.0909Z" fill="#5E5E5E"/>
<path d="M35.5001 47.0822C38.785 47.0822 41.4582 44.409 41.4582 41.1241C41.4582 37.8392 38.785 35.166 35.5001 35.166C32.2151 35.166 29.542 37.8392 29.542 41.1241C29.542 44.409 32.2151 47.0822 35.5001 47.0822ZM35.5001 37.5327C37.481 37.5327 39.0915 39.1432 39.0915 41.1241C39.0915 43.105 37.481 44.7155 35.5001 44.7155C33.5204 44.7155 31.9087 43.105 31.9087 41.1241C31.9087 39.1432 33.5204 37.5327 35.5001 37.5327Z" fill="#5E5E5E"/>
</svg>
