<svg width="36" height="60" viewBox="0 0 36 60" fill="none" xmlns="http://www.w3.org/2000/svg">
<path d="M33.636 7.152C34.424 6.71007 34.9367 5.90123 35 5C35 1.045 23.88 0 18 0C12.12 0 1 1.045 1 5C1.06334 5.90123 1.57601 6.71007 2.364 7.152C0.9 8.494 0 10.162 0 14V50C0 50.818 0.387 51.982 2.067 53.053C2.449 55.5 4.929 60 18 60C30.994 60 33.521 55.552 33.926 53.057C35.611 51.984 36 50.819 36 50V14C36 10.162 35.1 8.494 33.636 7.152ZM18 2C27.743 2 33 4.129 33 5C33 5.871 27.743 8 18 8C8.257 8 3 5.871 3 5C3 4.129 8.257 2 18 2ZM34 44.231C30.292 44.138 28.49 42.331 26.418 40.253C23.963 37.791 21.181 35 15 35C8.819 35 4.668 36.286 2 37.632V20.7C4.4 19.087 10.365 16 21 16C28.454 16 32.17 18.563 34 20.822V44.231ZM18 58C10.2 58 6.2 56.282 4.712 54.278C9.02759 55.5263 13.5088 56.107 18 56C22.4853 56.1065 26.9605 55.5274 31.271 54.283C29.768 56.3 25.768 58 18 58ZM32.51 51.583C32.4726 51.6037 32.4365 51.6268 32.402 51.652C29.678 53.1 24.182 54 18 54C11.818 54 6.325 53.1 3.6 51.653C3.56494 51.6272 3.52819 51.6038 3.49 51.583C2.934 51.278 2 50.667 2 50V39.908C4.346 38.52 8.418 37 15 37C20.351 37 22.609 39.266 25 41.666C27.2 43.871 29.48 46.132 34 46.223V50C34 50.667 33.066 51.278 32.51 51.583ZM34 17.969C31.574 15.883 27.571 14 21 14C11.2 14 5.1 16.547 2 18.348V14C2 10.4 2.826 9.3 4.3 8.13C8.049 9.551 14.148 10 18 10C21.852 10 27.951 9.551 31.7 8.13C33.174 9.3 34 10.4 34 14V17.969Z" fill="#5E5E5E"/>
<path d="M23 6H25C25.5523 6 26 5.55228 26 5C26 4.44772 25.5523 4 25 4H23C22.4477 4 22 4.44772 22 5C22 5.55228 22.4477 6 23 6Z" fill="#5E5E5E"/>
</svg>
