<svg width="60" height="62" viewBox="0 0 60 62" fill="none" xmlns="http://www.w3.org/2000/svg">
<g clip-path="url(#clip0_1025_18)">
<path d="M30.3112 16.73L28.0438 1.1011C27.9538 0.465605 27.4263 0.000609374 26.8088 0.000609374C26.7962 0.000609374 26.7812 0.000609374 26.7662 0.000609374C26.1338 0.0213162 25.6163 0.530147 25.5638 1.1838L24.4688 14.7514C24.4013 15.5884 22.9638 15.5884 22.8963 14.7514L21.8013 1.18368C21.7488 0.514647 21.2063 0.000488281 20.5563 0.000488281C19.9062 0.000488281 19.3638 0.514526 19.3137 1.18368L18.2188 14.7513C18.1513 15.5883 16.7137 15.5883 16.6462 14.7513L15.5514 1.18368C15.4989 0.53269 14.9814 0.0237381 14.3489 0.000488281C14.3339 0.000488281 14.3189 0.000488281 14.3064 0.000488281C13.6889 0.000488281 13.1613 0.465484 13.0689 1.10098L10.8014 16.73C10.1364 21.3102 12.5414 25.6889 16.5964 27.5179L14.6665 55.4694C14.5515 57.1511 15.1215 58.8225 16.234 60.0573C17.344 61.2921 18.9189 62 20.5614 62C22.194 62 23.7689 61.2922 24.8814 60.0573C25.9938 58.8225 26.5638 57.1511 26.4489 55.4694L24.5189 27.5179C28.5737 25.6916 30.9787 21.3102 30.3112 16.73ZM22.8163 25.4229C22.2688 25.6064 21.9139 26.1514 21.9538 26.7429L23.9488 55.6527C24.0188 56.6344 23.6989 57.5747 23.0488 58.2954C21.7538 59.7344 19.3688 59.7499 18.0589 58.2954C17.4115 57.5747 17.0914 56.6369 17.1589 55.6527L19.1564 26.7403C19.1939 26.1487 18.8414 25.6036 18.2939 25.4202C14.8539 24.2707 12.7415 20.7755 13.274 17.1123L13.9514 12.4469L14.1539 14.9681C14.294 16.7144 15.7339 18.0836 17.4314 18.0836C18.8689 18.0836 20.1214 17.1019 20.5564 15.7379C20.9914 17.1019 22.2439 18.0836 23.6814 18.0836C25.3764 18.0836 26.8188 16.7144 26.9589 14.9707L27.1614 12.4494L27.8388 17.1149C28.3712 20.7782 26.2588 24.2734 22.8163 25.4229Z" fill="#5E5E5E"/>
<path d="M48.7785 0.235667C48.4485 -0.00712353 48.0234 -0.064037 47.641 0.0729187C47.5335 0.111668 36.8086 4.18292 36.8086 16.7895C36.8086 25.8647 39.6636 30.4474 41.2735 32.3074L39.6736 33.9607C39.4686 34.1725 39.3411 34.4489 39.3136 34.746L37.3361 55.1825C37.1636 56.921 37.7185 58.6622 38.8535 59.959C39.9884 61.2558 41.611 61.9998 43.3034 61.9998C46.6133 61.9998 49.3058 59.2176 49.3084 55.7973V1.28966C49.3085 0.871161 49.1111 0.478458 48.7785 0.235667ZM46.8035 55.8001C46.8035 57.7944 45.2336 59.4168 43.3035 59.4168C42.3036 59.4168 41.3811 58.9931 40.7086 58.2258C40.036 57.4586 39.721 56.4691 39.8211 55.441L41.7536 35.4643L43.9361 33.2065C44.1936 32.9405 44.3211 32.5685 44.2936 32.1938C44.2661 31.8193 44.0786 31.4705 43.7861 31.2458C43.7411 31.2122 39.3036 27.6911 39.3036 16.7922C39.3036 8.81229 44.151 4.88574 46.8035 3.33576V55.8001Z" fill="#5E5E5E"/>
</g>
<defs>
<clipPath id="clip0_1025_18">
<rect width="60" height="62" fill="white"/>
</clipPath>
</defs>
</svg>
