<svg width="64" height="64" viewBox="0 0 64 64" fill="none" xmlns="http://www.w3.org/2000/svg">
<g clip-path="url(#clip0_988_91)">
<path d="M62.9227 33.8881C62.848 24.4375 58.1973 17.0668 52.2667 17.0668C50.5173 11.2108 46.816 7.4668 42.6667 7.4668C38.5173 7.4668 34.8267 11.2108 33.0667 17.0668C31.3173 11.2108 27.616 7.4668 23.4667 7.4668C19.3173 7.4668 15.6267 11.2108 13.8667 17.0668C8.10667 17.0668 3.56267 24.0108 3.232 33.0668H3.2C1.44 33.0668 0 34.5068 0 36.2668C0 37.7281 0.992 38.9548 2.336 39.3281L5.824 53.3015C6.31467 55.2001 8.01067 56.5228 9.96267 56.5228H17.7707C19.7227 56.5228 21.4187 55.2001 21.9093 53.2908L22.9333 49.1948L23.9573 53.3015C24.448 55.2001 26.144 56.5228 28.096 56.5228H35.904C37.856 56.5228 39.552 55.2001 40.0427 53.2908L41.0667 49.1948L42.0907 53.3015C42.5813 55.2001 44.2773 56.5228 46.2293 56.5228H54.0373C55.9893 56.5228 57.6853 55.2001 58.176 53.2908L61.664 39.3175C63.008 38.9335 64 37.7175 64 36.2561C64 35.3068 63.584 34.4641 62.9227 33.8775V33.8881ZM60.768 33.0668H43.7653C44.096 25.4508 47.8507 19.2001 52.2667 19.2001C56.6827 19.2001 60.4373 25.4508 60.768 33.0668ZM33.0667 19.2001C37.4827 19.2001 41.2373 25.4508 41.568 33.0668H24.5653C24.896 25.4508 28.6507 19.2001 33.0667 19.2001ZM42.6667 9.60013C45.728 9.60013 48.6507 12.6935 50.1333 17.3975C46.8053 18.4428 44.0853 21.8988 42.6667 26.6135C41.248 21.8881 38.528 18.4321 35.2 17.3975C36.6827 12.6935 39.6053 9.60013 42.6667 9.60013ZM23.4667 9.60013C26.528 9.60013 29.4507 12.6935 30.9333 17.3975C27.6053 18.4428 24.8853 21.8988 23.4667 26.6135C22.048 21.8881 19.328 18.4321 16 17.3975C17.4827 12.6935 20.4053 9.60013 23.4667 9.60013ZM13.8667 19.2001C18.2827 19.2001 22.0373 25.4508 22.368 33.0668H5.36533C5.696 25.4508 9.45067 19.2001 13.8667 19.2001ZM56.1067 52.7788C55.8613 53.7281 55.008 54.4001 54.0373 54.4001H46.2293C45.248 54.4001 44.4053 53.7388 44.16 52.7895L42.1013 44.5441C41.984 44.0641 41.5573 43.7335 41.0667 43.7335C40.576 43.7335 40.1493 44.0641 40.032 44.5441L37.9733 52.7788C37.728 53.7281 36.8747 54.4001 35.904 54.4001H28.096C27.1147 54.4001 26.272 53.7388 26.0267 52.7895L23.968 44.5441C23.8507 44.0641 23.424 43.7335 22.9333 43.7335C22.4427 43.7335 22.016 44.0641 21.8987 44.5441L19.84 52.7788C19.5947 53.7281 18.7413 54.4001 17.7707 54.4001H9.96267C8.98133 54.4001 8.13867 53.7388 7.89333 52.7895L4.56533 39.4668H59.4347L56.1067 52.7788ZM60.8 37.3335H3.2C2.61333 37.3335 2.13333 36.8535 2.13333 36.2668C2.13333 35.6801 2.61333 35.2001 3.2 35.2001H60.8C61.3867 35.2001 61.8667 35.6801 61.8667 36.2668C61.8667 36.8535 61.3867 37.3335 60.8 37.3335Z" fill="#5E5E5E"/>
</g>
<defs>
<clipPath id="clip0_988_91">
<rect width="64" height="64" fill="white"/>
</clipPath>
</defs>
</svg>
