<svg width="45" height="46" viewBox="0 0 45 46" fill="none" xmlns="http://www.w3.org/2000/svg">
<rect y="0.736328" width="45" height="45" rx="22.5" fill="#8685C5"/>
<path d="M17.2525 30.7959V29.0293C16.4732 29.0117 15.776 28.9385 15.1607 28.8096C14.5514 28.6748 13.9947 28.4961 13.4908 28.2734V25.9531C13.9889 26.1934 14.5836 26.4131 15.275 26.6123C15.9664 26.8057 16.6256 26.9229 17.2525 26.9639V24.2393C16.3268 23.876 15.5855 23.5244 15.0289 23.1846C14.4781 22.8389 14.0797 22.458 13.8336 22.042C13.5934 21.6201 13.4732 21.1162 13.4732 20.5303C13.4732 19.9326 13.6314 19.417 13.9479 18.9834C14.2701 18.5439 14.7154 18.1924 15.2838 17.9287C15.8522 17.665 16.5084 17.501 17.2525 17.4365V16.0918H18.4566V17.4014C19.1363 17.4248 19.7691 17.5039 20.3551 17.6387C20.9469 17.7676 21.527 17.958 22.0953 18.21L21.2691 20.2666C20.7887 20.0674 20.3053 19.9121 19.8189 19.8008C19.3385 19.6895 18.8844 19.6162 18.4566 19.5811V22.1738C19.107 22.4141 19.7252 22.6748 20.3111 22.9561C20.8971 23.2373 21.3746 23.5947 21.7438 24.0283C22.1129 24.4619 22.2975 25.0303 22.2975 25.7334C22.2975 26.6064 21.9781 27.3389 21.3395 27.9307C20.7066 28.5225 19.7457 28.877 18.4566 28.9941V30.7959H17.2525ZM18.4566 26.9023C18.8668 26.832 19.1686 26.7119 19.3619 26.542C19.5553 26.3662 19.652 26.1406 19.652 25.8652C19.652 25.7012 19.608 25.5547 19.5201 25.4258C19.4322 25.2969 19.2975 25.1768 19.1158 25.0654C18.94 24.9482 18.7203 24.8311 18.4566 24.7139V26.9023ZM17.2525 21.6816V19.6162C17.0123 19.6514 16.8072 19.71 16.6373 19.792C16.4674 19.8682 16.3385 19.9678 16.2506 20.0908C16.1627 20.2139 16.1188 20.3604 16.1188 20.5303C16.1188 20.7002 16.1568 20.8496 16.233 20.9785C16.315 21.1074 16.4381 21.2275 16.6022 21.3389C16.7721 21.4502 16.9889 21.5645 17.2525 21.6816ZM27.0133 30.7959V29.0293C26.234 29.0117 25.5368 28.9385 24.9215 28.8096C24.3122 28.6748 23.7555 28.4961 23.2516 28.2734V25.9531C23.7497 26.1934 24.3444 26.4131 25.0358 26.6123C25.7272 26.8057 26.3864 26.9229 27.0133 26.9639V24.2393C26.0875 23.876 25.3463 23.5244 24.7897 23.1846C24.2389 22.8389 23.8405 22.458 23.5944 22.042C23.3541 21.6201 23.234 21.1162 23.234 20.5303C23.234 19.9326 23.3922 19.417 23.7086 18.9834C24.0309 18.5439 24.4762 18.1924 25.0446 17.9287C25.6129 17.665 26.2692 17.501 27.0133 17.4365V16.0918H28.2174V17.4014C28.8971 17.4248 29.5299 17.5039 30.1159 17.6387C30.7077 17.7676 31.2877 17.958 31.8561 18.21L31.0299 20.2666C30.5495 20.0674 30.0661 19.9121 29.5797 19.8008C29.0993 19.6895 28.6452 19.6162 28.2174 19.5811V22.1738C28.8678 22.4141 29.486 22.6748 30.0719 22.9561C30.6579 23.2373 31.1354 23.5947 31.5045 24.0283C31.8737 24.4619 32.0582 25.0303 32.0582 25.7334C32.0582 26.6064 31.7389 27.3389 31.1002 27.9307C30.4674 28.5225 29.5065 28.877 28.2174 28.9941V30.7959H27.0133ZM28.2174 26.9023C28.6276 26.832 28.9293 26.7119 29.1227 26.542C29.3161 26.3662 29.4127 26.1406 29.4127 25.8652C29.4127 25.7012 29.3688 25.5547 29.2809 25.4258C29.193 25.2969 29.0582 25.1768 28.8766 25.0654C28.7008 24.9482 28.4811 24.8311 28.2174 24.7139V26.9023ZM27.0133 21.6816V19.6162C26.7731 19.6514 26.568 19.71 26.3981 19.792C26.2282 19.8682 26.0993 19.9678 26.0114 20.0908C25.9235 20.2139 25.8795 20.3604 25.8795 20.5303C25.8795 20.7002 25.9176 20.8496 25.9938 20.9785C26.0758 21.1074 26.1989 21.2275 26.3629 21.3389C26.5329 21.4502 26.7497 21.5645 27.0133 21.6816Z" fill="white"/>
</svg>
