<svg width="45" height="46" viewBox="0 0 45 46" fill="none" xmlns="http://www.w3.org/2000/svg">
<rect y="0.896484" width="45" height="45" rx="22.5" fill="#B4B3FF"/>
<path d="M21.279 32.5239V30.2666C20.2832 30.2441 19.3923 30.1506 18.6061 29.9858C17.8275 29.8136 17.1162 29.5853 16.4723 29.3008V26.3359C17.1087 26.6429 17.8687 26.9237 18.7521 27.1782C19.6356 27.4253 20.4779 27.575 21.279 27.6274V24.146C20.096 23.6818 19.1489 23.2326 18.4377 22.7983C17.7339 22.3566 17.2248 21.87 16.9103 21.3384C16.6034 20.7993 16.4499 20.1554 16.4499 19.4067C16.4499 18.6431 16.652 17.9842 17.0563 17.4302C17.4681 16.8687 18.0371 16.4194 18.7633 16.0825C19.4896 15.7456 20.3281 15.536 21.279 15.4536V13.7354H22.8175V15.4087C23.686 15.4386 24.4946 15.5397 25.2433 15.7119C25.9995 15.8766 26.7407 16.12 27.467 16.4419L26.4113 19.0698C25.7974 18.8153 25.1797 18.6169 24.5583 18.4746C23.9443 18.3324 23.3641 18.2388 22.8175 18.1938V21.5068C23.6486 21.8138 24.4385 22.147 25.1872 22.5063C25.9359 22.8657 26.5461 23.3224 27.0177 23.8765C27.4894 24.4305 27.7253 25.1567 27.7253 26.0552C27.7253 27.1707 27.3172 28.1066 26.5011 28.8628C25.6925 29.619 24.4647 30.0719 22.8175 30.2217V32.5239H21.279ZM22.8175 27.5488C23.3416 27.459 23.7272 27.3055 23.9743 27.0884C24.2214 26.8638 24.3449 26.5755 24.3449 26.2236C24.3449 26.014 24.2887 25.8268 24.1764 25.6621C24.0641 25.4974 23.8919 25.3439 23.6598 25.2017C23.4352 25.0519 23.1545 24.9022 22.8175 24.7524V27.5488ZM21.279 20.8779V18.2388C20.972 18.2837 20.71 18.3586 20.4928 18.4634C20.2757 18.5607 20.111 18.688 19.9987 18.8452C19.8864 19.0024 19.8302 19.1896 19.8302 19.4067C19.8302 19.6239 19.8789 19.8148 19.9762 19.9795C20.0811 20.1442 20.2383 20.2977 20.4479 20.4399C20.665 20.5822 20.9421 20.7282 21.279 20.8779Z" fill="white"/>
</svg>
