<svg width="45" height="46" viewBox="0 0 45 46" fill="none" xmlns="http://www.w3.org/2000/svg">
<rect y="0.310547" width="45" height="45" rx="22.5" fill="#8C8BAD"/>
<path d="M12.9653 29.5312V27.9609C12.2726 27.9453 11.6528 27.8802 11.106 27.7656C10.5643 27.6458 10.0695 27.487 9.62159 27.2891V25.2266C10.0643 25.4401 10.5929 25.6354 11.2075 25.8125C11.8221 25.9844 12.408 26.0885 12.9653 26.125V23.7031C12.1424 23.3802 11.4836 23.0677 10.9888 22.7656C10.4992 22.4583 10.145 22.1198 9.92627 21.75C9.71273 21.375 9.60596 20.9271 9.60596 20.4062C9.60596 19.875 9.74659 19.4167 10.0278 19.0312C10.3143 18.6406 10.7101 18.3281 11.2153 18.0938C11.7205 17.8594 12.3039 17.7135 12.9653 17.6562V16.4609H14.0356V17.625C14.6398 17.6458 15.2023 17.7161 15.7231 17.8359C16.2492 17.9505 16.7648 18.1198 17.27 18.3438L16.5356 20.1719C16.1086 19.9948 15.6789 19.8568 15.2466 19.7578C14.8195 19.6589 14.4159 19.5938 14.0356 19.5625V21.8672C14.6138 22.0807 15.1633 22.3125 15.6841 22.5625C16.2049 22.8125 16.6294 23.1302 16.9575 23.5156C17.2856 23.901 17.4497 24.4062 17.4497 25.0312C17.4497 25.8073 17.1659 26.4583 16.5981 26.9844C16.0356 27.5104 15.1815 27.8255 14.0356 27.9297V29.5312H12.9653ZM14.0356 26.0703C14.4002 26.0078 14.6685 25.901 14.8403 25.75C15.0122 25.5938 15.0981 25.3932 15.0981 25.1484C15.0981 25.0026 15.0591 24.8724 14.981 24.7578C14.9028 24.6432 14.783 24.5365 14.6216 24.4375C14.4653 24.3333 14.27 24.2292 14.0356 24.125V26.0703ZM12.9653 21.4297V19.5938C12.7518 19.625 12.5695 19.6771 12.4185 19.75C12.2674 19.8177 12.1528 19.9062 12.0747 20.0156C11.9966 20.125 11.9575 20.2552 11.9575 20.4062C11.9575 20.5573 11.9914 20.6901 12.0591 20.8047C12.132 20.9193 12.2414 21.026 12.3872 21.125C12.5383 21.224 12.731 21.3255 12.9653 21.4297ZM21.6416 29.5312V27.9609C20.9489 27.9453 20.3291 27.8802 19.7822 27.7656C19.2405 27.6458 18.7458 27.487 18.2978 27.2891V25.2266C18.7405 25.4401 19.2692 25.6354 19.8838 25.8125C20.4984 25.9844 21.0843 26.0885 21.6416 26.125V23.7031C20.8187 23.3802 20.1598 23.0677 19.665 22.7656C19.1754 22.4583 18.8213 22.1198 18.6025 21.75C18.389 21.375 18.2822 20.9271 18.2822 20.4062C18.2822 19.875 18.4228 19.4167 18.7041 19.0312C18.9905 18.6406 19.3864 18.3281 19.8916 18.0938C20.3968 17.8594 20.9801 17.7135 21.6416 17.6562V16.4609H22.7119V17.625C23.3161 17.6458 23.8786 17.7161 24.3994 17.8359C24.9254 17.9505 25.4411 18.1198 25.9463 18.3438L25.2119 20.1719C24.7848 19.9948 24.3551 19.8568 23.9228 19.7578C23.4958 19.6589 23.0921 19.5938 22.7119 19.5625V21.8672C23.29 22.0807 23.8395 22.3125 24.3603 22.5625C24.8812 22.8125 25.3056 23.1302 25.6338 23.5156C25.9619 23.901 26.126 24.4062 26.126 25.0312C26.126 25.8073 25.8421 26.4583 25.2744 26.9844C24.7119 27.5104 23.8577 27.8255 22.7119 27.9297V29.5312H21.6416ZM22.7119 26.0703C23.0765 26.0078 23.3447 25.901 23.5166 25.75C23.6885 25.5938 23.7744 25.3932 23.7744 25.1484C23.7744 25.0026 23.7353 24.8724 23.6572 24.7578C23.5791 24.6432 23.4593 24.5365 23.2978 24.4375C23.1416 24.3333 22.9463 24.2292 22.7119 24.125V26.0703ZM21.6416 21.4297V19.5938C21.428 19.625 21.2458 19.6771 21.0947 19.75C20.9437 19.8177 20.8291 19.9062 20.751 20.0156C20.6728 20.125 20.6338 20.2552 20.6338 20.4062C20.6338 20.5573 20.6676 20.6901 20.7353 20.8047C20.8083 20.9193 20.9176 21.026 21.0635 21.125C21.2145 21.224 21.4072 21.3255 21.6416 21.4297ZM30.3178 29.5312V27.9609C29.6251 27.9453 29.0053 27.8802 28.4585 27.7656C27.9168 27.6458 27.422 27.487 26.9741 27.2891V25.2266C27.4168 25.4401 27.9454 25.6354 28.56 25.8125C29.1746 25.9844 29.7605 26.0885 30.3178 26.125V23.7031C29.4949 23.3802 28.8361 23.0677 28.3413 22.7656C27.8517 22.4583 27.4975 22.1198 27.2788 21.75C27.0652 21.375 26.9585 20.9271 26.9585 20.4062C26.9585 19.875 27.0991 19.4167 27.3803 19.0312C27.6668 18.6406 28.0626 18.3281 28.5678 18.0938C29.073 17.8594 29.6564 17.7135 30.3178 17.6562V16.4609H31.3881V17.625C31.9923 17.6458 32.5548 17.7161 33.0756 17.8359C33.6017 17.9505 34.1173 18.1198 34.6225 18.3438L33.8881 20.1719C33.4611 19.9948 33.0314 19.8568 32.5991 19.7578C32.172 19.6589 31.7684 19.5938 31.3881 19.5625V21.8672C31.9663 22.0807 32.5158 22.3125 33.0366 22.5625C33.5574 22.8125 33.9819 23.1302 34.31 23.5156C34.6381 23.901 34.8022 24.4062 34.8022 25.0312C34.8022 25.8073 34.5184 26.4583 33.9506 26.9844C33.3881 27.5104 32.534 27.8255 31.3881 27.9297V29.5312H30.3178ZM31.3881 26.0703C31.7527 26.0078 32.021 25.901 32.1928 25.75C32.3647 25.5938 32.4506 25.3932 32.4506 25.1484C32.4506 25.0026 32.4116 24.8724 32.3335 24.7578C32.2553 24.6432 32.1355 24.5365 31.9741 24.4375C31.8178 24.3333 31.6225 24.2292 31.3881 24.125V26.0703ZM30.3178 21.4297V19.5938C30.1043 19.625 29.922 19.6771 29.771 19.75C29.6199 19.8177 29.5053 19.9062 29.4272 20.0156C29.3491 20.125 29.31 20.2552 29.31 20.4062C29.31 20.5573 29.3439 20.6901 29.4116 20.8047C29.4845 20.9193 29.5939 21.026 29.7397 21.125C29.8908 21.224 30.0835 21.3255 30.3178 21.4297Z" fill="white"/>
</svg>
