<svg width="63" height="63" viewBox="0 0 63 63" fill="none" xmlns="http://www.w3.org/2000/svg">
<g clip-path="url(#clip0_1025_29)" filter="url(#filter0_d_1025_29)">
<path d="M35.6542 6.8704C39.1819 7.41674 42.454 8.65797 45.1169 10.4594C47.6921 12.2016 49.5854 14.3845 50.5925 16.7725C50.7654 17.1833 51.1636 17.4301 51.5828 17.4301C51.7221 17.4301 51.8635 17.4028 51.9999 17.3453C52.5467 17.1145 52.8026 16.4847 52.5723 15.9379C51.4032 13.1655 49.2413 10.6558 46.3208 8.67979C43.3969 6.70172 39.8222 5.34174 35.9827 4.74714C35.3974 4.65651 34.8477 5.05808 34.757 5.6447C34.666 6.23049 35.0675 6.77935 35.6542 6.8704Z" fill="#5E5E5E"/>
<path d="M14.7799 14.9286C14.9499 15.3365 15.3825 15.6113 15.8239 15.5903C16.2599 15.5693 16.6602 15.2609 16.7928 14.8451C16.9271 14.4242 16.7769 13.9328 16.4244 13.6647C16.0598 13.3878 15.5239 13.3777 15.1496 13.642C14.7514 13.9232 14.5957 14.4792 14.7799 14.9286Z" fill="#5E5E5E"/>
<path d="M19.9555 10.9283C20.1272 11.3407 20.5673 11.6185 21.0142 11.59C21.4452 11.5619 21.8371 11.2547 21.9693 10.8439C22.104 10.426 21.9529 9.93923 21.6063 9.66983C21.24 9.38575 20.6949 9.374 20.3189 9.64633C19.9278 9.92957 19.7692 10.4814 19.9555 10.9283Z" fill="#5E5E5E"/>
<path d="M25.5155 14.9286C25.6854 15.3365 26.1185 15.6113 26.5599 15.5903C26.9959 15.5693 27.397 15.2609 27.5296 14.8451C27.6639 14.4238 27.5128 13.9324 27.1599 13.6647C26.7953 13.3878 26.2599 13.3777 25.8851 13.642C25.4874 13.9232 25.3313 14.4792 25.5155 14.9286Z" fill="#5E5E5E"/>
<path d="M59 34.046C59 31.6806 57.4801 29.6648 55.3665 28.92V26.2319C55.7064 26.1065 56.0337 25.9411 56.3413 25.7347C57.5645 24.9126 58.2661 23.6152 58.2661 22.1738C58.2661 21.2725 57.9875 20.4194 57.4697 19.7018C57.7315 19.0812 57.8104 18.3922 57.6832 17.7133C56.7634 12.7937 53.6046 8.29037 48.7886 5.03204C43.992 1.78715 37.8522 0 31.5 0C25.1478 0 19.008 1.78715 14.2114 5.03204C9.39543 8.28995 6.23656 12.7937 5.31676 17.7133C5.1573 18.5647 5.32137 19.4316 5.76533 20.1596C5.43089 20.7731 5.25675 21.4563 5.25675 22.1738C5.25675 23.6152 5.95835 24.9135 7.18195 25.7351C7.32798 25.8333 7.47946 25.921 7.63346 26.0011V28.92C5.51985 29.6648 4 31.6806 4 34.046V34.2642C4 35.8311 4.66761 37.2443 5.73218 38.2372C5.42166 38.8347 5.25675 39.4994 5.25675 40.1838C5.25675 41.2592 5.64783 42.2541 6.35405 43.0317V46.9081C6.35405 51.0493 9.72315 54.4188 13.8648 54.4188H49.1352C53.2768 54.4188 56.646 51.0493 56.646 46.9081V43.5189C57.6795 42.6952 58.2661 41.4997 58.2661 40.1833C58.2661 39.3579 58.0336 38.5766 57.5993 37.901C58.4692 36.9376 59 35.662 59 34.2642V34.046ZM56.8516 34.046V34.2642C56.8516 35.3733 56.2985 36.3552 55.4542 36.9506C54.9041 37.3383 54.239 37.5498 53.566 37.5498H36.9084L43.7587 30.7604H53.5655C55.3774 30.7604 56.8516 32.2345 56.8516 34.046ZM20.2815 30.7604L20.4519 30.9312L21.5538 32.0327L19.2472 34.3398L15.6679 30.7604H20.2815ZM30.4241 37.8645L23.8336 31.2745C23.8336 31.274 23.8332 31.2736 23.8328 31.2732L23.32 30.7604H40.7022L33.523 37.8603C33.5226 37.8608 33.5221 37.8612 33.5217 37.862C33.5209 37.8629 33.5196 37.8637 33.5188 37.8645L31.9712 39.4121L30.4241 37.8645ZM7.42827 18.1077C8.24191 13.7571 11.0785 9.74518 15.4153 6.81122C19.8603 3.80424 25.5725 2.14844 31.5 2.14844C37.4275 2.14844 43.1397 3.80424 47.5847 6.81122C51.9215 9.74518 54.7577 13.7571 55.5717 18.1077C55.7224 18.9146 55.0778 19.6855 54.2588 19.6855H8.74125C7.9209 19.6855 7.27763 18.9146 7.42827 18.1077ZM7.4845 21.6002C7.88355 21.7546 8.31366 21.8339 8.74125 21.8339H54.2588C54.8517 21.8339 55.4479 21.6803 55.9649 21.3895C56.066 21.638 56.1177 21.9053 56.1177 22.1734C56.1177 22.8872 55.7627 23.535 55.1433 23.9509C54.5101 24.3764 53.7036 24.4783 52.9793 24.2492C52.6214 24.1359 52.2836 23.9899 51.9144 23.911C51.5149 23.8254 51.1062 23.7877 50.6979 23.7877C48.779 23.7877 47.7492 24.5144 46.9222 25.0981C46.1962 25.6109 45.623 26.0158 44.386 26.0158C43.149 26.0158 42.5758 25.6109 41.8498 25.0985C41.0228 24.514 39.9935 23.7877 38.0741 23.7877C36.1552 23.7877 35.1259 24.5144 34.2988 25.0985C33.5729 25.6109 32.9997 26.0158 31.7627 26.0158C30.5257 26.0158 29.952 25.6109 29.2261 25.0981C28.399 24.514 27.3697 23.7877 25.4508 23.7877C23.5319 23.7877 22.5022 24.5144 21.6751 25.0981C20.9492 25.6109 20.3755 26.0158 19.1389 26.0158C17.9015 26.0158 17.3283 25.6109 16.6019 25.0981C15.7749 24.514 14.7455 23.7877 12.8262 23.7877C12.0671 23.7877 11.3827 23.9165 10.7336 24.1813C9.96695 24.4943 9.06981 24.415 8.37996 23.9513C7.7606 23.5355 7.40561 22.8876 7.40561 22.1738C7.40519 21.9762 7.43204 21.784 7.4845 21.6002ZM9.99548 26.5135C10.559 26.4862 11.0877 26.344 11.6123 26.1442C12.1355 25.9445 12.7062 25.905 13.2605 25.9546C14.2089 26.0389 14.7275 26.4052 15.3628 26.8534C16.1899 27.4375 17.2192 28.1643 19.1385 28.1643C21.0574 28.1643 22.0867 27.4375 22.9138 26.8534C23.6397 26.341 24.2134 25.9361 25.4504 25.9361C26.6874 25.9361 27.2606 26.341 27.9865 26.8534C28.8136 27.4375 29.8434 28.1643 31.7623 28.1643C33.6812 28.1643 34.7105 27.4375 35.5376 26.8534C36.2635 26.341 36.8371 25.9361 38.0737 25.9361C39.3107 25.9361 39.8844 26.341 40.6103 26.8534C41.4374 27.4375 42.4667 28.1643 44.3856 28.1643C46.3045 28.1643 47.3338 27.4375 48.1609 26.8534C48.8872 26.341 49.4604 25.9361 50.6975 25.9361C51.1364 25.9361 51.5673 26.0091 51.9765 26.1698C52.3755 26.3268 52.7909 26.4396 53.2177 26.4896V28.6124H43.3168C43.3164 28.6124 43.3164 28.6124 43.316 28.6124H43.3156H20.7297C20.7289 28.6124 20.7276 28.6124 20.7268 28.6124C20.7255 28.6124 20.7242 28.6124 20.7234 28.6124H9.7819V26.5194C9.85323 26.5189 9.92415 26.5168 9.99548 26.5135ZM6.14844 34.046C6.14844 32.2345 7.62255 30.7604 9.43404 30.7604H12.6298L18.4877 36.6187C18.6891 36.8201 18.9623 36.933 19.2472 36.933C19.5321 36.933 19.8053 36.8201 20.0067 36.6187L23.0733 33.5521L27.0709 37.5498H9.43404C8.86629 37.5498 8.30191 37.3996 7.80928 37.118C6.81815 36.552 6.14844 35.4853 6.14844 34.2642V34.046ZM7.58269 39.3731C8.17393 39.5875 8.80503 39.6983 9.43404 39.6983H29.2194L31.2117 41.6906C31.6238 42.1031 32.3141 42.1039 32.7274 41.694L34.7411 39.6983H53.5655C54.1715 39.6983 54.7766 39.5955 55.3489 39.3974C55.4689 39.3559 55.5915 39.3139 55.7043 39.256C55.7408 39.2371 55.7937 39.1951 55.8369 39.1981C55.8965 39.2023 55.912 39.2782 55.9334 39.3261C56.0497 39.5824 56.1118 39.8632 56.1168 40.1447C56.1349 41.1581 55.4051 42.0061 54.4522 42.2823C53.9063 42.4409 53.315 42.4056 52.7888 42.1908C52.1409 41.926 51.4566 41.7972 50.6975 41.7972C48.7786 41.7972 47.7492 42.524 46.9222 43.1081C46.1958 43.6208 45.6226 44.0258 44.3856 44.0258C43.149 44.0258 42.5754 43.6208 41.8494 43.1081C41.0224 42.524 39.993 41.7972 38.0741 41.7972C36.1552 41.7972 35.1259 42.524 34.2984 43.1081C33.5725 43.6208 32.9993 44.0258 31.7623 44.0258C30.5252 44.0258 29.952 43.6208 29.2257 43.1081C28.3986 42.524 27.3693 41.7972 25.4504 41.7972C23.5315 41.7972 22.5022 42.524 21.6747 43.1081C20.9487 43.6208 20.3755 44.0258 19.1385 44.0258C17.9011 44.0258 17.3279 43.6204 16.6019 43.1081C15.7744 42.524 14.7451 41.7972 12.8258 41.7972C12.0667 41.7972 11.3823 41.926 10.7336 42.1912C10.0324 42.4774 9.215 42.4396 8.55326 42.067C7.9679 41.7376 7.53191 41.1728 7.42953 40.5018C7.3989 40.3033 7.39722 40.1003 7.42365 39.9009C7.43121 39.843 7.52982 39.3538 7.58269 39.3731ZM54.4975 46.9081C54.4975 49.8647 52.0919 52.2704 49.1352 52.2704H13.8648C10.9081 52.2704 8.50249 49.8647 8.50249 46.9081V44.3602C9.38452 44.6103 10.3366 44.5927 11.2438 44.291C11.2623 44.2847 11.2808 44.2784 11.2988 44.2725C11.3815 44.2435 11.4641 44.2138 11.5455 44.1802C11.9316 44.0224 12.3504 43.946 12.8258 43.946C14.0632 43.946 14.6364 44.3505 15.3624 44.8633C16.1899 45.4474 17.2192 46.1742 19.1385 46.1742C21.0574 46.1742 22.0867 45.4474 22.9138 44.8633C23.6397 44.3505 24.2134 43.946 25.45 43.946C26.687 43.946 27.2606 44.3505 27.9865 44.8633C28.8136 45.4474 29.8429 46.1742 31.7623 46.1742C33.6812 46.1742 34.7105 45.4474 35.5376 44.8633C36.2635 44.3505 36.8371 43.946 38.0737 43.946C39.3107 43.946 39.8844 44.3505 40.6099 44.8633C41.4369 45.4474 42.4667 46.1742 44.3856 46.1742C46.3045 46.1742 47.3338 45.4474 48.1609 44.8633C48.8868 44.3505 49.4604 43.946 50.6975 43.946C51.0176 43.946 51.3386 43.9817 51.6479 44.0677C51.942 44.1496 52.2198 44.2788 52.514 44.3619C53.1526 44.5419 53.8421 44.5801 54.4971 44.4735V46.9081H54.4975Z" fill="#5E5E5E"/>
<path d="M28.2677 10.9284C28.4376 11.3362 28.8707 11.6132 29.3125 11.5905C29.7485 11.5683 30.1484 11.2611 30.2814 10.8457C30.4165 10.4244 30.2651 9.93386 29.913 9.66489C29.5492 9.38668 29.0125 9.37619 28.6386 9.64181C28.2421 9.92295 28.0801 10.4789 28.2677 10.9284Z" fill="#5E5E5E"/>
<path d="M33.1135 15.6634C33.2834 16.0717 33.7161 16.3462 34.1575 16.3252C34.5939 16.3042 34.993 15.9954 35.1268 15.5804C35.2623 15.1595 35.1104 14.6677 34.758 14.3996C34.3933 14.1222 33.8575 14.113 33.4832 14.3769C33.0854 14.658 32.9293 15.214 33.1135 15.6634Z" fill="#5E5E5E"/>
<path d="M30.3708 6.01838C30.7531 6.27308 31.2906 6.24791 31.646 5.95669C31.9935 5.67219 32.1324 5.16823 31.9721 4.74778C31.816 4.33949 31.4022 4.04869 30.9637 4.05079C30.5298 4.05331 30.1174 4.33823 29.9638 4.74442C29.7922 5.19928 29.9676 5.7473 30.3708 6.01838Z" fill="#5E5E5E"/>
</g>
<defs>
<filter id="filter0_d_1025_29" x="0" y="0" width="63" height="63" filterUnits="userSpaceOnUse" color-interpolation-filters="sRGB">
<feFlood flood-opacity="0" result="BackgroundImageFix"/>
<feColorMatrix in="SourceAlpha" type="matrix" values="0 0 0 0 0 0 0 0 0 0 0 0 0 0 0 0 0 0 127 0" result="hardAlpha"/>
<feOffset dy="4"/>
<feGaussianBlur stdDeviation="2"/>
<feComposite in2="hardAlpha" operator="out"/>
<feColorMatrix type="matrix" values="0 0 0 0 0 0 0 0 0 0 0 0 0 0 0 0 0 0 0.25 0"/>
<feBlend mode="normal" in2="BackgroundImageFix" result="effect1_dropShadow_1025_29"/>
<feBlend mode="normal" in="SourceGraphic" in2="effect1_dropShadow_1025_29" result="shape"/>
</filter>
<clipPath id="clip0_1025_29">
<rect width="55" height="55" fill="white" transform="translate(4)"/>
</clipPath>
</defs>
</svg>
