<svg width="55" height="55" viewBox="0 0 55 55" fill="none" xmlns="http://www.w3.org/2000/svg">
<path d="M31.6542 6.8704C35.1819 7.41674 38.454 8.65797 41.1169 10.4594C43.6921 12.2016 45.5854 14.3845 46.5925 16.7725C46.7654 17.1833 47.1636 17.4301 47.5828 17.4301C47.7221 17.4301 47.8635 17.4028 47.9999 17.3453C48.5467 17.1145 48.8026 16.4847 48.5723 15.9379C47.4032 13.1655 45.2413 10.6558 42.3208 8.67979C39.3969 6.70172 35.8222 5.34174 31.9827 4.74714C31.3974 4.65651 30.8477 5.05808 30.757 5.6447C30.666 6.23049 31.0675 6.77935 31.6542 6.8704V6.8704Z" fill="#5E5E5E"/>
<path d="M10.7799 14.9286C10.9499 15.3365 11.3825 15.6113 11.8239 15.5903C12.2599 15.5693 12.6602 15.2609 12.7928 14.8451C12.9271 14.4242 12.7769 13.9328 12.4244 13.6647C12.0598 13.3878 11.5239 13.3777 11.1496 13.642C10.7514 13.9232 10.5957 14.4792 10.7799 14.9286Z" fill="#5E5E5E"/>
<path d="M15.9555 10.9283C16.1272 11.3407 16.5673 11.6185 17.0142 11.59C17.4452 11.5619 17.8371 11.2547 17.9693 10.8439C18.104 10.426 17.9529 9.93923 17.6063 9.66983C17.24 9.38575 16.6949 9.374 16.3189 9.64633C15.9278 9.92957 15.7692 10.4814 15.9555 10.9283Z" fill="#5E5E5E"/>
<path d="M21.5155 14.9286C21.6854 15.3365 22.1185 15.6113 22.5599 15.5903C22.9959 15.5693 23.397 15.2609 23.5296 14.8451C23.6639 14.4238 23.5128 13.9324 23.1599 13.6647C22.7953 13.3878 22.2599 13.3777 21.8851 13.642C21.4874 13.9232 21.3313 14.4792 21.5155 14.9286Z" fill="#5E5E5E"/>
<path d="M55 34.046C55 31.6806 53.4801 29.6648 51.3665 28.92V26.2319C51.7064 26.1065 52.0337 25.9411 52.3413 25.7347C53.5645 24.9126 54.2661 23.6152 54.2661 22.1738C54.2661 21.2725 53.9875 20.4194 53.4697 19.7018C53.7315 19.0812 53.8104 18.3922 53.6832 17.7133C52.7634 12.7937 49.6046 8.29037 44.7886 5.03204C39.992 1.78715 33.8522 0 27.5 0C21.1478 0 15.008 1.78715 10.2114 5.03204C5.39543 8.28995 2.23656 12.7937 1.31676 17.7133C1.1573 18.5647 1.32137 19.4316 1.76533 20.1596C1.43089 20.7731 1.25675 21.4563 1.25675 22.1738C1.25675 23.6152 1.95835 24.9135 3.18195 25.7351C3.32798 25.8333 3.47946 25.921 3.63346 26.0011V28.92C1.51985 29.6648 0 31.6806 0 34.046V34.2642C0 35.8311 0.66761 37.2443 1.73218 38.2372C1.42166 38.8347 1.25675 39.4994 1.25675 40.1838C1.25675 41.2592 1.64783 42.2541 2.35405 43.0317V46.9081C2.35405 51.0493 5.72315 54.4188 9.86477 54.4188H45.1352C49.2768 54.4188 52.646 51.0493 52.646 46.9081V43.5189C53.6795 42.6952 54.2661 41.4997 54.2661 40.1833C54.2661 39.3579 54.0336 38.5766 53.5993 37.901C54.4692 36.9376 55 35.662 55 34.2642V34.046ZM52.8516 34.046V34.2642C52.8516 35.3733 52.2985 36.3552 51.4542 36.9506C50.9041 37.3383 50.239 37.5498 49.566 37.5498H32.9084L39.7587 30.7604H49.5655C51.3774 30.7604 52.8516 32.2345 52.8516 34.046ZM16.2815 30.7604L16.4519 30.9312L17.5538 32.0327L15.2472 34.3398L11.6679 30.7604H16.2815ZM26.4241 37.8645L19.8336 31.2745C19.8336 31.274 19.8332 31.2736 19.8328 31.2732L19.32 30.7604H36.7022L29.523 37.8603C29.5226 37.8608 29.5221 37.8612 29.5217 37.862C29.5209 37.8629 29.5196 37.8637 29.5188 37.8645L27.9712 39.4121L26.4241 37.8645ZM3.42827 18.1077C4.24191 13.7571 7.07851 9.74518 11.4153 6.81122C15.8603 3.80424 21.5725 2.14844 27.5 2.14844C33.4275 2.14844 39.1397 3.80424 43.5847 6.81122C47.9215 9.74518 50.7577 13.7571 51.5717 18.1077C51.7224 18.9146 51.0778 19.6855 50.2588 19.6855H4.74125C3.9209 19.6855 3.27763 18.9146 3.42827 18.1077ZM3.4845 21.6002C3.88355 21.7546 4.31366 21.8339 4.74125 21.8339H50.2588C50.8517 21.8339 51.4479 21.6803 51.9649 21.3895C52.066 21.638 52.1177 21.9053 52.1177 22.1734C52.1177 22.8872 51.7627 23.535 51.1433 23.9509C50.5101 24.3764 49.7036 24.4783 48.9793 24.2492C48.6214 24.1359 48.2836 23.9899 47.9144 23.911C47.5149 23.8254 47.1062 23.7877 46.6979 23.7877C44.779 23.7877 43.7492 24.5144 42.9222 25.0981C42.1962 25.6109 41.623 26.0158 40.386 26.0158C39.149 26.0158 38.5758 25.6109 37.8498 25.0985C37.0228 24.514 35.9935 23.7877 34.0741 23.7877C32.1552 23.7877 31.1259 24.5144 30.2988 25.0985C29.5729 25.6109 28.9997 26.0158 27.7627 26.0158C26.5257 26.0158 25.952 25.6109 25.2261 25.0981C24.399 24.514 23.3697 23.7877 21.4508 23.7877C19.5319 23.7877 18.5022 24.5144 17.6751 25.0981C16.9492 25.6109 16.3755 26.0158 15.1389 26.0158C13.9015 26.0158 13.3283 25.6109 12.6019 25.0981C11.7749 24.514 10.7455 23.7877 8.82622 23.7877C8.06713 23.7877 7.38274 23.9165 6.73359 24.1813C5.96695 24.4943 5.06981 24.415 4.37996 23.9513C3.7606 23.5355 3.40561 22.8876 3.40561 22.1738C3.40519 21.9762 3.43205 21.784 3.4845 21.6002V21.6002ZM5.99548 26.5135C6.55903 26.4862 7.08775 26.344 7.61227 26.1442C8.13553 25.9445 8.70621 25.905 9.26052 25.9546C10.2089 26.0389 10.7275 26.4052 11.3628 26.8534C12.1899 27.4375 13.2192 28.1643 15.1385 28.1643C17.0574 28.1643 18.0867 27.4375 18.9138 26.8534C19.6397 26.341 20.2134 25.9361 21.4504 25.9361C22.6874 25.9361 23.2606 26.341 23.9865 26.8534C24.8136 27.4375 25.8434 28.1643 27.7623 28.1643C29.6812 28.1643 30.7105 27.4375 31.5376 26.8534C32.2635 26.341 32.8371 25.9361 34.0737 25.9361C35.3107 25.9361 35.8844 26.341 36.6103 26.8534C37.4374 27.4375 38.4667 28.1643 40.3856 28.1643C42.3045 28.1643 43.3338 27.4375 44.1609 26.8534C44.8872 26.341 45.4604 25.9361 46.6975 25.9361C47.1364 25.9361 47.5673 26.0091 47.9765 26.1698C48.3755 26.3268 48.7909 26.4396 49.2177 26.4896V28.6124H39.3168C39.3164 28.6124 39.3164 28.6124 39.316 28.6124H39.3156H16.7297C16.7289 28.6124 16.7276 28.6124 16.7268 28.6124C16.7255 28.6124 16.7242 28.6124 16.7234 28.6124H5.7819V26.5194C5.85323 26.5189 5.92415 26.5168 5.99548 26.5135V26.5135ZM2.14844 34.046C2.14844 32.2345 3.62255 30.7604 5.43404 30.7604H8.62984L14.4877 36.6187C14.6891 36.8201 14.9623 36.933 15.2472 36.933C15.5321 36.933 15.8053 36.8201 16.0067 36.6187L19.0733 33.5521L23.0709 37.5498H5.43404C4.86629 37.5498 4.30191 37.3996 3.80928 37.118C2.81815 36.552 2.14844 35.4853 2.14844 34.2642V34.046ZM3.58269 39.3731C4.17393 39.5875 4.80503 39.6983 5.43404 39.6983H25.2194L27.2117 41.6906C27.6238 42.1031 28.3141 42.1039 28.7274 41.694L30.7411 39.6983H49.5655C50.1715 39.6983 50.7766 39.5955 51.3489 39.3974C51.4689 39.3559 51.5915 39.3139 51.7043 39.256C51.7408 39.2371 51.7937 39.1951 51.8369 39.1981C51.8965 39.2023 51.912 39.2782 51.9334 39.3261C52.0497 39.5824 52.1118 39.8632 52.1168 40.1447C52.1349 41.1581 51.4051 42.0061 50.4522 42.2823C49.9063 42.4409 49.315 42.4056 48.7888 42.1908C48.1409 41.926 47.4566 41.7972 46.6975 41.7972C44.7786 41.7972 43.7492 42.524 42.9222 43.1081C42.1958 43.6208 41.6226 44.0258 40.3856 44.0258C39.149 44.0258 38.5754 43.6208 37.8494 43.1081C37.0224 42.524 35.993 41.7972 34.0741 41.7972C32.1552 41.7972 31.1259 42.524 30.2984 43.1081C29.5725 43.6208 28.9993 44.0258 27.7623 44.0258C26.5252 44.0258 25.952 43.6208 25.2257 43.1081C24.3986 42.524 23.3693 41.7972 21.4504 41.7972C19.5315 41.7972 18.5022 42.524 17.6747 43.1081C16.9487 43.6208 16.3755 44.0258 15.1385 44.0258C13.9011 44.0258 13.3279 43.6204 12.6019 43.1081C11.7744 42.524 10.7451 41.7972 8.8258 41.7972C8.06671 41.7972 7.38232 41.926 6.73359 42.1912C6.03241 42.4774 5.215 42.4396 4.55326 42.067C3.9679 41.7376 3.53191 41.1728 3.42953 40.5018C3.3989 40.3033 3.39722 40.1003 3.42365 39.9009C3.43121 39.843 3.52982 39.3538 3.58269 39.3731V39.3731ZM50.4975 46.9081C50.4975 49.8647 48.0919 52.2704 45.1352 52.2704H9.86477C6.90815 52.2704 4.50249 49.8647 4.50249 46.9081V44.3602C5.38452 44.6103 6.33663 44.5927 7.24384 44.291C7.26231 44.2847 7.28077 44.2784 7.29881 44.2725C7.38148 44.2435 7.46414 44.2138 7.54555 44.1802C7.93159 44.0224 8.35037 43.946 8.8258 43.946C10.0632 43.946 10.6364 44.3505 11.3624 44.8633C12.1899 45.4474 13.2192 46.1742 15.1385 46.1742C17.0574 46.1742 18.0867 45.4474 18.9138 44.8633C19.6397 44.3505 20.2134 43.946 21.45 43.946C22.687 43.946 23.2606 44.3505 23.9865 44.8633C24.8136 45.4474 25.8429 46.1742 27.7623 46.1742C29.6812 46.1742 30.7105 45.4474 31.5376 44.8633C32.2635 44.3505 32.8371 43.946 34.0737 43.946C35.3107 43.946 35.8844 44.3505 36.6099 44.8633C37.4369 45.4474 38.4667 46.1742 40.3856 46.1742C42.3045 46.1742 43.3338 45.4474 44.1609 44.8633C44.8868 44.3505 45.4604 43.946 46.6975 43.946C47.0176 43.946 47.3386 43.9817 47.6479 44.0677C47.942 44.1496 48.2198 44.2788 48.514 44.3619C49.1526 44.5419 49.8421 44.5801 50.4971 44.4735V46.9081H50.4975Z" fill="#5E5E5E"/>
<path d="M24.2677 10.9284C24.4376 11.3362 24.8707 11.6132 25.3125 11.5905C25.7485 11.5683 26.1484 11.2611 26.2814 10.8457C26.4165 10.4244 26.2651 9.93386 25.913 9.66489C25.5492 9.38668 25.0125 9.37619 24.6386 9.64181C24.2421 9.92295 24.0801 10.4789 24.2677 10.9284Z" fill="#5E5E5E"/>
<path d="M29.1135 15.6639C29.2834 16.0722 29.7161 16.3466 30.1575 16.3257C30.5939 16.3047 30.993 15.9958 31.1268 15.5808C31.2623 15.16 31.1104 14.6682 30.758 14.4C30.3933 14.1227 29.8575 14.1134 29.4832 14.3774C29.0854 14.6585 28.9293 15.2145 29.1135 15.6639V15.6639Z" fill="#5E5E5E"/>
<path d="M26.3708 6.01838C26.7531 6.27308 27.2906 6.24791 27.646 5.95669C27.9935 5.67219 28.1324 5.16823 27.9721 4.74778C27.816 4.33949 27.4022 4.04869 26.9637 4.05079C26.5298 4.05331 26.1174 4.33823 25.9638 4.74442C25.7922 5.19928 25.9676 5.7473 26.3708 6.01838V6.01838Z" fill="#5E5E5E"/>
</svg>
