<svg width="60" height="61" viewBox="0 0 60 61" fill="none" xmlns="http://www.w3.org/2000/svg">
<path d="M46.9342 46.9785C45.3623 45.8372 51.9827 47.4073 47.2001 47.4073C45.3707 47.4073 47.4241 47.8992 48.2614 46.8858C48.2614 43.8837 48.1756 42.2608 48.2614 40.4437V13.5405C48.2612 13.4257 48.2368 13.3119 48.1894 13.2046L44.913 5.70424V2.04669C44.913 1.79266 44.7954 1.54903 44.5861 1.36941C44.3768 1.18978 44.0929 1.08887 43.7969 1.08887H23.7065C23.4105 1.08887 23.1266 1.18978 22.9173 1.36941C22.708 1.54903 22.5904 1.79266 22.5904 2.04669V5.70424L19.313 13.2042C19.2656 13.3117 19.2422 13.4256 19.242 13.5405V30.7813H3.6162C3.46212 30.7813 3.30971 30.8087 3.16856 30.8617C3.02741 30.9147 2.90058 30.9922 2.79606 31.0894C2.69154 31.1865 2.6116 31.3012 2.56125 31.4262C2.51091 31.5511 2.49127 31.6837 2.50356 31.8155L4.40711 52.2351C4.52554 53.4332 5.1621 54.5499 6.19159 55.3656C7.22107 56.1812 8.56894 56.6367 9.97005 56.6424H19.5849C20.4492 56.6399 21.3009 56.4656 22.0735 56.1332C22.8461 55.8009 23.5185 55.3195 24.038 54.7268H39.2224C43.0829 54.7268 40.2349 54.7268 43.0829 54.7268C49.5099 54.6161 45.8886 54.2261 47.4179 54.2693C48.9472 54.2261 46.6395 55.1807 48.0145 54.6048C48.0145 52.8893 47.5993 54.3443 48.2614 53.7584C49.3406 54.07 47.1228 52.8216 48.2614 52.8112C53.044 52.8112 46.2721 52.4085 47.844 51.2672C46.7976 47.4178 48.204 50.1394 48.204 48.2651C48.204 46.3908 48.87 48.3841 46.9342 46.9785ZM42.1863 6.83579L39.675 12.5827H21.9687L24.48 6.83579H42.1863ZM43.7969 8.60584L45.5347 12.5827H42.0591L43.7969 8.60584ZM39.3324 14.4983V20.2453H21.4743V14.4983H39.3324ZM41.5646 14.4983H46.0291L46.2438 46.5496C44.6295 46.7862 41.6215 44.2669 41.5646 48.1268V14.4983ZM42.6807 3.00451V4.92015H24.8227V3.00451H42.6807ZM21.4743 22.1609H39.3324V45.5572C39.3324 46.7599 39.3765 46.5513 39.2224 47.0642H25.6299L27.0514 31.8155C27.0637 31.6837 27.0441 31.5511 26.9937 31.4262C26.9434 31.3012 26.8634 31.1865 26.7589 31.0894C26.6544 30.9922 26.5276 30.9147 26.3864 30.8617C26.2453 30.8087 26.0929 30.7813 25.9388 30.7813H21.4743V22.1609ZM24.7297 32.6969L24.3726 36.5282H5.18241L4.82525 32.6969H24.7297ZM19.5849 54.7268H9.97005C9.1294 54.7234 8.32068 54.4501 7.703 53.9607C7.08532 53.4714 6.70341 52.8013 6.6324 52.0825L5.36099 38.4439H24.194L22.9226 52.0825C22.8516 52.8013 22.4697 53.4714 21.852 53.9607C21.2343 54.4501 20.4256 54.7234 19.5849 54.7268ZM25.0508 52.8112C25.0971 52.6211 25.1297 52.4287 25.1484 52.2351L25.4513 48.9799H38.3404C38.2566 49.6159 38.344 50.2523 38.3404 50.8955C38.3368 51.5388 38.4343 52.125 38.4343 52.8112H25.0508ZM45.2745 50.2822C44.1923 50.7409 46.6586 50.3659 45.4527 50.4111C45.1792 50.4111 42.0487 56.091 42.0487 50.4095C41.5856 46.1207 44.2986 46.5496 46.8878 46.5496C49.4769 46.5496 47.4179 43.0972 47.4179 49.3773C47.4179 51.7419 47.4158 49.3404 45.2745 50.2822ZM45.1509 50.4095C44.4753 50.4134 46.8996 46.3998 46.2419 46.2669C46.7852 45.3091 47.1453 50.9333 47.1453 49.4477C47.1453 46.0884 48.6926 48.0003 47.5781 46.5496C48.5008 46.1587 45.2885 49.1228 46.5561 49.1228C49.1318 51.6961 44.9559 48.6736 44.9559 50.8955C44.9559 53.1174 52.469 50.4095 45.1509 50.4095Z" fill="#5E5E5E"/>
</svg>
