<svg width="52" height="53" viewBox="0 0 52 53" fill="none" xmlns="http://www.w3.org/2000/svg">
<g clip-path="url(#clip0_1025_88)">
<path d="M22.548 33.124C21.9873 33.124 21.5323 33.5878 21.5323 34.1592C21.5323 34.7306 21.9873 35.1943 22.548 35.1943C23.1086 35.1943 23.5636 34.7306 23.5636 34.1592C23.5636 33.5878 23.1086 33.124 22.548 33.124Z" fill="#5E5E5E"/>
<path d="M18.4853 0H17.4696C15.2297 0 13.4072 1.85738 13.4072 4.14052C13.4072 5.21067 13.8163 6.22967 14.5269 6.99165L8.35472 24.998C8.22766 25.1704 8.15839 25.3776 8.1521 25.589L0.149888 48.9344C0.14613 48.9452 0.142677 48.9562 0.139326 48.9671C-0.19969 50.0734 0.0892551 51.2695 0.893427 52.0892C1.69597 52.9072 2.86922 53.2038 3.95655 52.8578C3.96732 52.8544 3.97808 52.8508 3.98865 52.847C40.0379 40.0096 45.0309 38.2324 45.14 38.1934C45.8876 38.9175 46.8874 39.3346 47.9374 39.3346C50.1773 39.3346 51.9998 37.4777 51.9998 35.1951V34.1589C51.9997 15.2183 36.9218 0 18.4853 0ZM12.6636 18.7042C15.1989 18.2257 17.4696 20.2213 17.4696 22.7726C17.4696 25.0556 15.6473 26.9131 13.4072 26.9131C12.2223 26.9131 11.1091 26.389 10.3391 25.4851L12.6636 18.7042ZM28.516 41.92C27.9393 41.1888 27.6256 40.2883 27.6256 39.3345C27.6256 37.0514 29.4479 35.194 31.688 35.194C33.8974 35.194 35.7579 37.0153 35.7494 39.3438L28.516 41.92ZM37.7391 38.6351C37.3848 35.4612 34.7605 33.1238 31.6879 33.1238C28.3279 33.1238 25.5943 35.9099 25.5943 39.3345C25.5943 40.5211 25.9181 41.6528 26.5215 42.6303L3.33733 50.8859C2.97404 50.9963 2.59846 50.8994 2.32942 50.6253C2.06058 50.3512 1.96552 49.9681 2.07379 49.598L9.60505 27.6265C10.6707 28.4942 12.0056 28.9832 13.4073 28.9832C16.7673 28.9832 19.5009 26.1971 19.5009 22.7725C19.5009 19.3452 16.7615 16.5553 13.3979 16.562L16.2968 8.10486C16.6737 8.22069 17.0677 8.28084 17.4697 8.28084H18.4854C32.4854 8.28084 43.8751 19.8896 43.8751 34.1588V35.194C43.8751 35.6038 43.9341 36.0054 44.0476 36.3894L37.7391 38.6351ZM49.9686 35.1951C49.9685 36.3361 49.0573 37.2643 47.9374 37.2643C47.2791 37.2643 46.6594 36.9371 46.2785 36.3867C46.035 36.0369 45.9062 35.6245 45.9062 35.194V34.1588C45.9062 18.7131 33.6416 6.21063 18.4854 6.21063H17.4697C17.0473 6.21063 16.6426 6.07937 16.2995 5.83124C16.2988 5.83072 16.298 5.83021 16.2974 5.82959C15.7596 5.44285 15.4386 4.8113 15.4386 4.14042C15.4386 2.99885 16.3498 2.07021 17.4697 2.07021H18.4854C36.0003 2.07021 49.9686 16.4 49.9686 34.1589V35.1951Z" fill="#5E5E5E"/>
<path d="M34.5607 19.845C32.9745 18.2271 30.4037 18.2254 28.8163 19.8444C27.2288 21.4611 27.2272 24.0815 28.8156 25.6993C30.4027 27.3181 32.973 27.3185 34.5604 25.6997C36.1476 24.0827 36.149 21.4627 34.5607 19.845ZM33.1243 24.2354C33.1241 24.2356 33.1239 24.2358 33.1237 24.236C32.3324 25.0432 31.048 25.0475 30.2519 24.2354C29.4601 23.429 29.4559 22.1199 30.2525 21.3084C31.0438 20.5013 32.3283 20.497 33.1243 21.309C33.9183 22.1176 33.9182 23.427 33.1243 24.2354Z" fill="#5E5E5E"/>
<path d="M14.5461 38.1741C13.3555 36.9604 11.4287 36.9601 10.238 38.174C9.04715 39.3875 9.04684 41.3514 10.2379 42.565C11.4285 43.7787 13.3553 43.779 14.546 42.5651C14.546 42.5651 14.546 42.5651 14.5461 42.565C15.737 41.3516 15.737 39.3876 14.5461 38.1741ZM13.1099 41.1012C12.7129 41.5057 12.0711 41.5059 11.674 41.1012C11.2772 40.6968 11.277 40.0425 11.6741 39.6377C12.0709 39.2333 12.7127 39.2331 13.1099 39.6378C13.5068 40.0424 13.5068 40.6968 13.1099 41.1012Z" fill="#5E5E5E"/>
<path d="M38.7974 28.9834H36.7662C36.2054 28.9834 35.7506 29.4469 35.7506 30.0186C35.7506 30.5902 36.2053 31.0537 36.7662 31.0537H38.7974C39.3582 31.0537 39.813 30.5902 39.813 30.0186C39.813 29.4469 39.3582 28.9834 38.7974 28.9834Z" fill="#5E5E5E"/>
<path d="M27.5186 12.9935C27.2678 12.4821 26.6574 12.2747 26.1562 12.5304L22.0938 14.6007C21.5921 14.8563 21.3887 15.4782 21.6395 15.9894C21.8908 16.5017 22.5016 16.7077 23.0021 16.4524L27.0644 14.3822C27.5661 14.1264 27.7694 13.5046 27.5186 12.9935Z" fill="#5E5E5E"/>
<path d="M25.4875 29.5559L23.4564 25.4154C23.2055 24.9039 22.5951 24.6966 22.0939 24.9523C21.5922 25.208 21.3889 25.8298 21.6396 26.341L23.6708 30.4815C23.922 30.9938 24.5327 31.1998 25.0332 30.9445C25.5349 30.6889 25.7383 30.067 25.4875 29.5559Z" fill="#5E5E5E"/>
<path d="M16.4544 31.0537H14.4232C13.8624 31.0537 13.4076 31.5173 13.4076 32.0889C13.4076 32.6605 13.8624 33.124 14.4232 33.124H16.4544C17.0152 33.124 17.47 32.6605 17.47 32.0889C17.47 31.5173 17.0152 31.0537 16.4544 31.0537Z" fill="#5E5E5E"/>
</g>
<defs>
<clipPath id="clip0_1025_88">
<rect width="52" height="53" fill="white"/>
</clipPath>
</defs>
</svg>
