<svg width="46" height="72" viewBox="0 0 46 72" fill="none" xmlns="http://www.w3.org/2000/svg">
<path d="M31.6271 1.49862L31.6278 1.49879L39.8719 3.41609C39.8723 3.41616 39.8726 3.41623 39.8729 3.41631C41.4513 3.79111 42.8732 4.73892 43.8994 6.11403C44.926 7.4898 45.4928 9.20869 45.5 10.9878C45.5 10.9881 45.5 10.9884 45.5 10.9887L45.5 46.2973C45.4978 48.3619 44.7391 50.334 43.4012 51.7828C42.0646 53.2302 40.2613 54.036 38.3895 54.0384H36.8754H36.1532L36.4074 54.7144L42.0636 69.7571C42.0898 69.827 42.1035 69.9029 42.1031 69.9803C42.1026 70.0577 42.0881 70.1333 42.0611 70.2027C42.0341 70.272 41.9958 70.3325 41.95 70.3815L42.3152 70.7229L41.9499 70.3815C41.9042 70.4304 41.8522 70.4668 41.798 70.4907C41.7439 70.5146 41.6876 70.526 41.6319 70.5257C41.5761 70.5253 41.5198 70.5131 41.4659 70.4885C41.4118 70.4638 41.3601 70.4266 41.3148 70.377C41.2693 70.3272 41.2316 70.2661 41.2053 70.1963L39.7608 66.3547L39.639 66.0307H39.2928H6.70718H6.36101L6.23917 66.3547L4.79468 70.1963L5.26269 70.3723L4.79468 70.1963C4.74135 70.3382 4.64307 70.4388 4.53411 70.4885C4.42705 70.5373 4.30928 70.538 4.202 70.4907C4.09285 70.4426 3.99369 70.3436 3.93888 70.2027C3.88382 70.0612 3.88288 69.8996 3.93644 69.7572L9.59263 54.7144L9.8468 54.0384H9.12462H7.61048C5.73874 54.036 3.93542 53.2302 2.59879 51.7828L2.23146 52.122L2.59879 51.7828C1.261 50.3341 0.502281 48.3621 0.5 46.2976V10.9878C0.507005 9.20913 1.07335 7.4906 2.09941 6.11487C3.1249 4.7399 4.546 3.79182 6.12378 3.41631C6.12417 3.41622 6.12457 3.41612 6.12496 3.41603L14.3689 1.49879L14.3696 1.49862C20.0565 0.167126 25.9401 0.167126 31.6271 1.49862ZM7.02782 64.2577L6.7737 64.9337H7.49584H38.5042H39.2263L38.9722 64.2577L37.0102 59.0389L36.8884 58.7148H36.5422H9.45779H9.1116L8.98977 59.0389L7.02782 64.2577ZM35.7536 57.6172H36.4759L36.2215 56.9412L35.2519 54.3641L35.13 54.0402H34.7839H11.2161H10.87L10.7481 54.3641L9.77848 56.9412L9.5241 57.6172H10.2465H35.7536ZM44.563 46.2983V46.2979L44.5679 10.9869L44.5679 10.9848C44.5619 9.47736 44.0821 8.0126 43.2011 6.83219C42.3196 5.65112 41.0866 4.82274 39.7004 4.49394L39.6983 4.49345L31.4527 2.5758C25.8836 1.27254 20.1213 1.27254 14.5523 2.5758L6.30668 4.49345L6.30668 4.49344L6.30455 4.49395C4.91837 4.82274 3.6854 5.65112 2.8039 6.83219C1.92289 8.0126 1.44305 9.47736 1.43705 10.9848V10.9868L1.43705 46.2978L1.43705 46.2983C1.43878 48.0472 2.08074 49.7311 3.23302 50.9788C4.38653 52.228 5.95942 52.9389 7.60927 52.9408H7.60985H38.3902H38.3907C40.0406 52.9389 41.6135 52.228 42.767 50.9788C43.9193 49.7311 44.5612 48.0472 44.563 46.2983Z" fill="#5E5E5E" stroke="#5E5E5E"/>
<path d="M40.0516 10.6104H5.94838C5.69156 10.6105 5.4453 10.7211 5.26369 10.9177C5.08209 11.1144 4.98001 11.381 4.97986 11.6592V27.2713C4.97986 27.5495 5.0819 27.8162 5.26353 28.0129C5.44517 28.2096 5.69151 28.3201 5.94838 28.3201H40.0516C40.3084 28.3201 40.5548 28.2096 40.7364 28.0129C40.918 27.8162 41.0201 27.5495 41.0201 27.2713V11.6592C41.0199 11.381 40.9179 11.1144 40.7363 10.9177C40.5546 10.7211 40.3084 10.6105 40.0516 10.6104ZM6.91691 26.2225V12.708H39.083V26.2225H6.91691Z" fill="#5E5E5E"/>
<path d="M34.5537 35.2129C33.4864 35.2129 32.4431 35.5556 31.5558 36.1977C30.6684 36.8397 29.9768 37.7523 29.5683 38.8201C29.1599 39.8878 29.0531 41.0627 29.2613 42.1962C29.4695 43.3297 29.9834 44.3709 30.7381 45.1881C31.4927 46.0053 32.4542 46.5618 33.5009 46.7873C34.5477 47.0127 35.6327 46.897 36.6187 46.4547C37.6047 46.0125 38.4474 45.2635 39.0403 44.3026C39.6333 43.3417 39.9497 42.2119 39.9497 41.0562C39.9481 39.507 39.3791 38.0217 38.3675 36.9263C37.3559 35.8308 35.9843 35.2146 34.5537 35.2129ZM34.5537 44.8019C33.8695 44.8019 33.2008 44.5822 32.6319 44.1707C32.0631 43.7591 31.6198 43.1741 31.3579 42.4896C31.0961 41.8052 31.0276 41.0521 31.1611 40.3255C31.2946 39.5989 31.624 38.9314 32.1078 38.4076C32.5915 37.8837 33.2079 37.527 33.8788 37.3825C34.5498 37.2379 35.2453 37.3121 35.8774 37.5956C36.5094 37.8791 37.0497 38.3592 37.4297 38.9752C37.8098 39.5912 38.0127 40.3154 38.0127 41.0562C38.0117 42.0493 37.6469 43.0014 36.9984 43.7036C36.35 44.4058 35.4707 44.8008 34.5537 44.8019Z" fill="#5E5E5E"/>
<path d="M11.4464 35.2129C10.3791 35.2129 9.33585 35.5556 8.44847 36.1977C7.56109 36.8397 6.86946 37.7523 6.46105 38.8201C6.05263 39.8878 5.94577 41.0627 6.15398 42.1962C6.36219 43.3297 6.87611 44.3709 7.63077 45.1881C8.38542 46.0053 9.34691 46.5618 10.3936 46.7873C11.4404 47.0127 12.5254 46.897 13.5114 46.4547C14.4974 46.0125 15.3401 45.2635 15.933 44.3026C16.526 43.3417 16.8424 42.2119 16.8424 41.0562C16.8408 39.507 16.2718 38.0217 15.2602 36.9263C14.2486 35.8308 12.877 35.2146 11.4464 35.2129ZM11.4464 44.8019C10.7622 44.8019 10.0935 44.5822 9.52464 44.1707C8.95581 43.7591 8.51246 43.1741 8.25065 42.4896C7.98885 41.8052 7.92034 41.0521 8.05381 40.3255C8.18728 39.5989 8.51672 38.9314 9.00047 38.4076C9.48422 37.8837 10.1006 37.527 10.7715 37.3825C11.4425 37.2379 12.138 37.3121 12.7701 37.5956C13.4021 37.8791 13.9424 38.3592 14.3224 38.9752C14.7025 39.5912 14.9054 40.3154 14.9054 41.0562C14.9044 42.0493 14.5396 43.0014 13.8911 43.7036C13.2427 44.4058 12.3634 44.8008 11.4464 44.8019Z" fill="#5E5E5E"/>
<path d="M17.4656 7.49816H28.5345C28.7913 7.49816 29.0377 7.3877 29.2193 7.19109C29.4009 6.99448 29.503 6.72782 29.503 6.44976C29.503 6.17171 29.4009 5.90505 29.2193 5.70844C29.0377 5.51182 28.7913 5.40137 28.5345 5.40137H17.4656C17.2087 5.40137 16.9624 5.51182 16.7807 5.70844C16.5991 5.90505 16.4971 6.17171 16.4971 6.44976C16.4971 6.72782 16.5991 6.99448 16.7807 7.19109C16.9624 7.3877 17.2087 7.49816 17.4656 7.49816Z" fill="#5E5E5E"/>
</svg>
