<svg width="63" height="64" viewBox="0 0 63 64" fill="none" xmlns="http://www.w3.org/2000/svg">
<path d="M19.6875 6H21.6562V11H23.625V6H25.5938V4H19.6875V6Z" fill="#5E5E5E"/>
<path d="M29.5312 4H28.5468C28.3402 3.99995 28.1387 4.06599 27.971 4.18876C27.8034 4.31153 27.678 4.4848 27.6127 4.684L25.6439 10.684L27.5142 11.316L27.9444 10H30.1337L30.5658 11.316L32.4361 10.684L30.4674 4.684C30.4019 4.48447 30.2763 4.31097 30.1082 4.18817C29.9401 4.06538 29.7382 3.99953 29.5312 4ZM28.6 8L29.039 6.662L29.4781 8H28.6Z" fill="#5E5E5E"/>
<path d="M38.5737 3.41895L36.9141 5.77895L35.2544 3.41895L33.6519 4.58095L35.7043 7.49995L33.6519 10.4189L35.2544 11.5809L36.9141 9.22095L38.5737 11.5809L40.1763 10.4189L38.1239 7.49995L40.1763 4.58095L38.5737 3.41895Z" fill="#5E5E5E"/>
<path d="M41.3438 4H43.3125V11H41.3438V4Z" fill="#5E5E5E"/>
<path d="M9.84375 38C9.06499 38 8.30371 38.2346 7.65619 38.6741C7.00868 39.1136 6.504 39.7384 6.20598 40.4693C5.90796 41.2002 5.82998 42.0044 5.98191 42.7804C6.13384 43.5563 6.50885 44.269 7.05952 44.8284C7.61019 45.3878 8.31178 45.7688 9.07558 45.9231C9.83938 46.0775 10.6311 45.9983 11.3506 45.6955C12.0701 45.3928 12.685 44.8801 13.1177 44.2223C13.5503 43.5645 13.7813 42.7911 13.7813 42C13.7813 40.9391 13.3664 39.9217 12.628 39.1716C11.8896 38.4214 10.888 38 9.84375 38ZM9.84375 44C9.45437 44 9.07373 43.8827 8.74997 43.6629C8.42621 43.4432 8.17387 43.1308 8.02486 42.7654C7.87585 42.3999 7.83687 41.9978 7.91283 41.6098C7.9888 41.2219 8.1763 40.8655 8.45164 40.5858C8.72697 40.3061 9.07777 40.1156 9.45967 40.0384C9.84157 39.9613 10.2374 40.0009 10.5972 40.1522C10.9569 40.3036 11.2644 40.56 11.4807 40.8889C11.697 41.2178 11.8125 41.6044 11.8125 42C11.8125 42.5304 11.6051 43.0391 11.2359 43.4142C10.8667 43.7893 10.3659 44 9.84375 44Z" fill="#5E5E5E"/>
<path d="M49.2188 42C49.2188 42.7911 49.4497 43.5645 49.8823 44.2223C50.315 44.8801 50.9299 45.3928 51.6494 45.6955C52.3689 45.9983 53.1606 46.0775 53.9244 45.9231C54.6882 45.7688 55.3898 45.3878 55.9405 44.8284C56.4912 44.269 56.8662 43.5563 57.0181 42.7804C57.17 42.0044 57.092 41.2002 56.794 40.4693C56.496 39.7384 55.9913 39.1136 55.3438 38.6741C54.6963 38.2346 53.935 38 53.1562 38C52.112 38 51.1104 38.4214 50.372 39.1716C49.6336 39.9217 49.2188 40.9391 49.2188 42ZM53.1562 40C53.5456 40 53.9263 40.1173 54.25 40.3371C54.5738 40.5568 54.8261 40.8692 54.9751 41.2346C55.1241 41.6001 55.1631 42.0022 55.0872 42.3902C55.0112 42.7781 54.8237 43.1345 54.5484 43.4142C54.273 43.6939 53.9222 43.8844 53.5403 43.9616C53.1584 44.0387 52.7626 43.9991 52.4028 43.8478C52.0431 43.6964 51.7356 43.44 51.5193 43.1111C51.303 42.7822 51.1875 42.3956 51.1875 42C51.1875 41.4696 51.3949 40.9609 51.7641 40.5858C52.1333 40.2107 52.6341 40 53.1562 40Z" fill="#5E5E5E"/>
<path d="M40.3594 36H22.6406C20.8138 36.0021 19.0623 36.7403 17.7705 38.0526C16.4787 39.3649 15.7521 41.1441 15.75 43V45C15.75 45.2652 15.8537 45.5196 16.0383 45.7071C16.2229 45.8946 16.4733 46 16.7344 46H46.2656C46.5267 46 46.7771 45.8946 46.9617 45.7071C47.1463 45.5196 47.25 45.2652 47.25 45V43C47.2479 41.1441 46.5213 39.3649 45.2295 38.0526C43.9377 36.7403 42.1862 36.0021 40.3594 36ZM45.2812 44H17.7188V43C17.7203 41.6744 18.2394 40.4036 19.1621 39.4662C20.0848 38.5289 21.3357 38.0016 22.6406 38H40.3594C41.6643 38.0016 42.9152 38.5289 43.8379 39.4662C44.7606 40.4036 45.2797 41.6744 45.2812 43V44Z" fill="#5E5E5E"/>
<path d="M20.6719 41H42.3281V43H20.6719V41Z" fill="#5E5E5E"/>
<path d="M11.0417 29.622C11.1339 29.7399 11.2511 29.8351 11.3846 29.9006C11.518 29.966 11.6643 30 11.8125 30H51.1875C51.3356 30.0001 51.4819 29.9663 51.6154 29.9009C51.7488 29.8356 51.8661 29.7405 51.9583 29.6228C52.0506 29.505 52.1155 29.3676 52.1482 29.2208C52.1809 29.0741 52.1806 28.9217 52.1473 28.775L49.6962 17.988C49.5063 17.1371 49.0365 16.3773 48.3643 15.834C47.6922 15.2908 46.8578 14.9966 45.9989 15H16.9972C16.1395 14.997 15.3064 15.291 14.6352 15.8334C13.964 16.3758 13.4948 17.1344 13.3048 17.984L10.8527 28.775C10.8195 28.9216 10.8193 29.0738 10.852 29.2205C10.8847 29.3671 10.9496 29.5044 11.0417 29.622ZM15.2234 18.434C15.3143 18.0256 15.5396 17.661 15.8621 17.4003C16.1846 17.1395 16.585 16.9984 16.9972 17H45.9989C46.4122 16.9983 46.8137 17.1399 47.1371 17.4014C47.4605 17.6628 47.6864 18.0285 47.7776 18.438L49.9501 28H13.0499L15.2234 18.434Z" fill="#5E5E5E"/>
<path d="M56.1094 32H59.0625C59.8457 32 60.5969 31.6839 61.1507 31.1213C61.7045 30.5587 62.0156 29.7956 62.0156 29C62.0156 28.2044 61.7045 27.4413 61.1507 26.8787C60.5969 26.3161 59.8457 26 59.0625 26H56.1094C55.6281 26.002 55.1547 26.1247 54.7312 26.357L52.9485 17.908C52.6986 16.2581 51.8738 14.7542 50.6244 13.6699C49.375 12.5856 47.7839 11.993 46.1406 12H46.0845C46.2011 11.6797 46.2624 11.3414 46.2656 11V4C46.2656 3.20435 45.9545 2.44129 45.4007 1.87868C44.8469 1.31607 44.0957 1 43.3125 1H19.6875C18.9043 1 18.1531 1.31607 17.5993 1.87868C17.0455 2.44129 16.7344 3.20435 16.7344 4V11C16.7376 11.3414 16.7989 11.6797 16.9155 12H16.8594C15.2258 11.9916 13.6431 12.5771 12.3974 13.6507C11.1517 14.7244 10.3252 16.2153 10.0672 17.854L8.26875 26.357C7.84533 26.1245 7.37193 26.0019 6.89062 26H3.9375C3.15428 26 2.40314 26.3161 1.84933 26.8787C1.29551 27.4413 0.984375 28.2044 0.984375 29C0.984375 29.7956 1.29551 30.5587 1.84933 31.1213C2.40314 31.6839 3.15428 32 3.9375 32H6.89062C6.95658 32 7.01859 31.981 7.0875 31.977L7.02253 32.284C5.7616 33.1202 4.72799 34.2651 4.01686 35.6135C3.30573 36.9619 2.93992 38.4703 2.95312 40V47.184C2.37932 47.3901 1.88221 47.7712 1.52981 48.2753C1.1774 48.7794 0.986898 49.3817 0.984375 50V52C0.984375 52.7957 1.29551 53.5587 1.84933 54.1213C2.40314 54.6839 3.15428 55 3.9375 55H5.90625V59C5.90625 60.0609 6.32109 61.0783 7.05952 61.8284C7.79794 62.5786 8.79946 63 9.84375 63C10.888 63 11.8896 62.5786 12.628 61.8284C13.3664 61.0783 13.7812 60.0609 13.7812 59V55H49.2188V59C49.2188 60.0609 49.6336 61.0783 50.372 61.8284C51.1104 62.5786 52.112 63 53.1562 63C54.2005 63 55.2021 62.5786 55.9405 61.8284C56.6789 61.0783 57.0938 60.0609 57.0938 59V55H59.0625C59.8457 55 60.5969 54.6839 61.1507 54.1213C61.7045 53.5587 62.0156 52.7957 62.0156 52V50C62.0131 49.3817 61.8226 48.7794 61.4702 48.2753C61.1178 47.7712 60.6207 47.3901 60.0469 47.184V40C60.0605 38.4707 59.6953 36.9625 58.9849 35.6142C58.2744 34.2658 57.2416 33.1206 55.9814 32.284L55.9164 31.977C55.9814 31.982 56.0434 32 56.1094 32ZM56.1094 28H59.0625C59.3236 28 59.574 28.1054 59.7586 28.2929C59.9432 28.4804 60.0469 28.7348 60.0469 29C60.0469 29.2652 59.9432 29.5196 59.7586 29.7071C59.574 29.8946 59.3236 30 59.0625 30H56.1094C55.8544 29.9946 55.6119 29.8867 55.4351 29.7L55.2097 28.634C55.281 28.4497 55.4046 28.2911 55.5647 28.1782C55.7249 28.0653 55.9145 28.0033 56.1094 28ZM18.7031 11V4C18.7031 3.73478 18.8068 3.48043 18.9914 3.29289C19.176 3.10536 19.4264 3 19.6875 3H43.3125C43.5736 3 43.824 3.10536 44.0086 3.29289C44.1932 3.48043 44.2969 3.73478 44.2969 4V11C44.2969 11.2652 44.1932 11.5196 44.0086 11.7071C43.824 11.8946 43.5736 12 43.3125 12H19.6875C19.4264 12 19.176 11.8946 18.9914 11.7071C18.8068 11.5196 18.7031 11.2652 18.7031 11ZM11.9976 18.221C12.1758 17.0425 12.7647 15.9681 13.657 15.1934C14.5493 14.4188 15.6857 13.9953 16.8594 14H46.1406C47.3228 13.9983 48.466 14.4294 49.3608 15.2144C50.2555 15.9993 50.8418 17.0856 51.0123 18.274L53.7567 31.285C53.0905 31.0991 52.4031 31.0032 51.7122 31H11.2878C10.5969 31.0032 9.90949 31.0991 9.24328 31.285L11.9976 18.221ZM6.89062 30H3.9375C3.67643 30 3.42605 29.8946 3.24144 29.7071C3.05684 29.5196 2.95312 29.2652 2.95312 29C2.95312 28.7348 3.05684 28.4804 3.24144 28.2929C3.42605 28.1054 3.67643 28 3.9375 28H6.89062C7.0848 28.0031 7.27374 28.0645 7.43366 28.1764C7.59358 28.2883 7.71734 28.4458 7.78936 28.629L7.56492 29.7C7.38809 29.8867 7.14561 29.9946 6.89062 30ZM11.8125 59C11.8125 59.5304 11.6051 60.0391 11.2359 60.4142C10.8667 60.7893 10.3659 61 9.84375 61C9.3216 61 8.82085 60.7893 8.45163 60.4142C8.08242 60.0391 7.875 59.5304 7.875 59V55H11.8125V59ZM55.125 59C55.125 59.5304 54.9176 60.0391 54.5484 60.4142C54.1792 60.7893 53.6784 61 53.1562 61C52.6341 61 52.1333 60.7893 51.7641 60.4142C51.3949 60.0391 51.1875 59.5304 51.1875 59V55H55.125V59ZM60.0469 52C60.0469 52.2652 59.9432 52.5196 59.7586 52.7071C59.574 52.8946 59.3236 53 59.0625 53H3.9375C3.67643 53 3.42605 52.8946 3.24144 52.7071C3.05684 52.5196 2.95312 52.2652 2.95312 52V50C2.95312 49.7348 3.05684 49.4804 3.24144 49.2929C3.42605 49.1054 3.67643 49 3.9375 49H59.0625C59.3236 49 59.574 49.1054 59.7586 49.2929C59.9432 49.4804 60.0469 49.7348 60.0469 50V52ZM58.0781 40V47H4.92188V40C4.85709 38.2155 5.49033 36.4774 6.68319 35.1657C7.87605 33.8541 9.53154 33.0754 11.2878 33H51.7122C53.4685 33.0754 55.1239 33.8541 56.3168 35.1657C57.5097 36.4774 58.1429 38.2155 58.0781 40Z" fill="#5E5E5E"/>
</svg>
