<svg width="63" height="63" viewBox="0 0 63 63" fill="none" xmlns="http://www.w3.org/2000/svg">
<g clip-path="url(#clip0_1516_2)">
<path d="M56.4375 57.75H6.5625C2.94525 57.75 0 54.8048 0 51.1875V45.9375C0 45.213 0.588 44.625 1.3125 44.625H2.625C5.52038 44.625 7.875 42.2704 7.875 39.375C7.875 36.4796 5.52038 34.125 2.625 34.125H1.3125C0.588 34.125 0 33.537 0 32.8125V27.5625C0 23.9453 2.94525 21 6.5625 21H56.4375C60.0548 21 63 23.9453 63 27.5625V32.8125C63 33.537 62.412 34.125 61.6875 34.125H60.375C57.4796 34.125 55.125 36.4796 55.125 39.375C55.125 40.7768 55.671 42.0945 56.6633 43.0868C57.6529 44.079 58.9706 44.625 60.3724 44.625H61.6849C62.4094 44.625 62.9974 45.213 62.9974 45.9375V51.1875C63 54.8048 60.0548 57.75 56.4375 57.75ZM2.625 47.25V51.1875C2.625 53.3584 4.39162 55.125 6.5625 55.125H56.4375C58.6084 55.125 60.375 53.3584 60.375 51.1875V47.25C58.2724 47.25 56.2931 46.431 54.8074 44.9453C53.319 43.4569 52.5 41.4776 52.5 39.375C52.5 35.0333 56.0332 31.5 60.375 31.5V27.5625C60.375 25.3916 58.6084 23.625 56.4375 23.625H6.5625C4.39162 23.625 2.625 25.3916 2.625 27.5625V31.5C6.96675 31.5 10.5 35.0333 10.5 39.375C10.5 43.7168 6.96675 47.25 2.625 47.25Z" fill="#5E5E5E"/>
<path d="M22.3125 26.25C21.588 26.25 21 25.662 21 24.9375V22.3125C21 21.588 21.588 21 22.3125 21C23.037 21 23.625 21.588 23.625 22.3125V24.9375C23.625 25.662 23.037 26.25 22.3125 26.25Z" fill="#5E5E5E"/>
<path d="M22.3125 48.4603C21.588 48.4603 21 47.8723 21 47.1478V42.7089C21 41.9844 21.588 41.3964 22.3125 41.3964C23.037 41.3964 23.625 41.9818 23.625 42.7089V47.1504C23.625 47.8749 23.037 48.4603 22.3125 48.4603ZM22.3125 37.3565C21.588 37.3565 21 36.7685 21 36.044V31.6025C21 30.878 21.588 30.29 22.3125 30.29C23.037 30.29 23.625 30.878 23.625 31.6025V36.044C23.625 36.7685 23.037 37.3565 22.3125 37.3565Z" fill="#5E5E5E"/>
<path d="M22.3125 57.75C21.588 57.75 21 57.162 21 56.4375V53.8125C21 53.088 21.588 52.5 22.3125 52.5C23.037 52.5 23.625 53.088 23.625 53.8125V56.4375C23.625 57.162 23.037 57.75 22.3125 57.75Z" fill="#5E5E5E"/>
<path d="M6.56247 23.6247C6.02959 23.6247 5.52822 23.2992 5.33397 22.7716C5.07934 22.0917 5.42322 21.3357 6.10309 21.0837L47.8406 5.4991C49.8697 4.73785 52.2532 5.8771 52.9462 7.92198L57.6791 21.8896C57.9101 22.5774 57.5426 23.3202 56.8575 23.5539C56.1776 23.7875 55.4268 23.4174 55.1932 22.7322L50.4603 8.7646C50.2293 8.0821 49.4366 7.70935 48.7567 7.9561L7.01922 23.5407C6.86959 23.5985 6.71472 23.6247 6.56247 23.6247Z" fill="#5E5E5E"/>
</g>
<defs>
<clipPath id="clip0_1516_2">
<rect width="63" height="63" fill="white"/>
</clipPath>
</defs>
</svg>
