<svg width="65" height="72" viewBox="0 0 65 72" fill="none" xmlns="http://www.w3.org/2000/svg">
<g clip-path="url(#clip0_1466_118)">
<path d="M55.9723 55.7425V17.9998C55.9723 10.5404 51.8855 9.26696 40.4994 9.04787L42.3771 3.78446C45.9798 4.45341 47.7905 5.39995 47.9245 5.99999C47.9245 6.8284 48.5251 7.50002 49.2659 7.50002C50.0066 7.50002 50.6072 6.8284 50.6072 5.99999C50.6072 0.78004 39.2238 0 32.433 0C27.0116 0 14.3929 0.584994 14.3929 5.99999C14.3929 6.8284 14.9935 7.50002 15.7343 7.50002C16.475 7.50002 17.0756 6.8284 17.0756 5.99999C17.2097 5.39995 19.007 4.443 22.615 3.77251L24.5007 9.04351C13.1188 9.26696 9.02783 10.5404 9.02783 17.9998V55.7425C9.02783 60.2425 12.0457 64.6734 15.5048 65.7489L10.9444 69.2649C10.3348 69.7358 10.1819 70.6703 10.603 71.3522C11.0241 72.0339 11.8597 72.2049 12.4694 71.734L19.9054 65.9995H45.0944L52.5278 71.734C53.1374 72.2049 53.9731 72.0341 54.3942 71.3522C54.8153 70.6704 54.6625 69.7358 54.0528 69.2649L49.3717 65.6544C54.1736 64.4184 55.9723 59.9635 55.9723 55.7425ZM32.433 2.99992C34.8373 2.98938 37.2403 3.11608 39.633 3.37947L37.6211 9.01187C36.0303 8.99991 34.343 8.99992 32.5001 8.99992C30.6572 8.99992 28.9698 8.99991 27.3778 9.01187L25.3604 3.37187C27.7108 3.11411 30.0713 2.98994 32.433 2.99992ZM53.2897 55.7425C53.2897 58.453 52.4179 62.9994 46.5834 62.9994H17.0754C14.7336 62.9994 11.7103 59.4804 11.7103 55.7425V17.9998C11.7103 12.5609 13.6524 11.9998 32.4999 11.9998C51.3474 11.9998 53.2897 12.5609 53.2897 17.9998V55.7425Z" fill="#5E5E5E"/>
<path d="M18.6443 43.4998H46.2447C48.5752 43.4998 50.777 41.1523 50.777 38.6683V21.987C50.7811 19.3695 48.5006 18 46.2447 18H18.6443C16.0795 18 14.2189 19.6769 14.2189 21.987V38.6683C14.2189 41.1523 16.3693 43.4998 18.6443 43.4998ZM16.9271 21.987C16.9271 21.2685 17.9793 20.9999 18.6442 20.9999H32.4444H46.2446C47.0083 20.9999 48.0686 21.3435 48.0686 21.987L48.0727 38.6683C48.0727 39.4723 47.0571 40.4998 46.2446 40.4998H18.6443C17.8588 40.4998 16.9273 39.5069 16.9273 38.6683L16.9271 21.987Z" fill="#5E5E5E"/>
<path d="M45.3645 48C42.3729 48 39.9478 50.6862 39.9478 54C39.9478 57.3137 42.3729 60.0001 45.3645 60.0001C48.356 60.0001 50.7812 57.3139 50.7812 54C50.7812 50.6864 48.356 48 45.3645 48ZM45.3645 57C43.8687 57 42.6562 55.6569 42.6562 54C42.6562 52.3432 43.8687 51.0001 45.3645 51.0001C46.8602 51.0001 48.0728 52.3432 48.0728 54C48.0729 55.6569 46.8602 57 45.3645 57Z" fill="#5E5E5E"/>
<path d="M19.6356 48C16.6441 48 14.2189 50.6862 14.2189 54C14.2189 57.3137 16.6441 60.0001 19.6356 60.0001C22.6271 60.0001 25.0523 57.3139 25.0523 54C25.0522 50.6864 22.6271 48 19.6356 48ZM19.6356 57C18.1398 57 16.9273 55.6569 16.9273 54C16.9273 52.3432 18.1398 51.0001 19.6356 51.0001C21.1313 51.0001 22.3439 52.3432 22.3439 54C22.3439 55.6569 21.1313 57 19.6356 57Z" fill="#5E5E5E"/>
</g>
<defs>
<clipPath id="clip0_1466_118">
<rect width="65" height="72" fill="white"/>
</clipPath>
</defs>
</svg>
