<svg width="69" height="75" viewBox="0 0 69 75" fill="none" xmlns="http://www.w3.org/2000/svg">
<g clip-path="url(#clip0_1458_2)">
<path d="M16.9914 75C16.7038 75.0018 16.4187 74.9411 16.153 74.8213C15.8873 74.7016 15.6464 74.5252 15.4443 74.3027L0.641663 58.2129C0.231503 57.7668 0.00109863 57.1619 0.00109863 56.5312C0.00109863 55.9006 0.231503 55.2957 0.641663 54.8496L34.8829 17.6309C36.6092 15.7802 38.8069 14.5356 41.1914 14.0582C43.576 13.5808 46.0374 13.8925 48.2571 14.9531L61.7013 0.345703C61.8016 0.236035 61.9208 0.149026 62.0522 0.0896938C62.1836 0.0303613 62.3245 -0.000122163 62.4667 3.67928e-07C62.7522 0.00130864 63.0256 0.125633 63.2268 0.345703L68.6821 6.27539C68.7824 6.38423 68.8619 6.51347 68.9161 6.65573C68.9704 6.798 68.9983 6.95049 68.9983 7.10449C68.9983 7.25849 68.9704 7.41099 68.9161 7.55325C68.8619 7.69551 68.7824 7.82476 68.6821 7.93359L55.2433 22.541C56.219 24.9537 56.5059 27.6292 56.0667 30.221C55.6274 32.8129 54.4824 35.2017 52.7798 37.0781L18.5331 74.3027C18.3317 74.5245 18.0916 74.7004 17.8269 74.8202C17.5622 74.9399 17.2782 75.001 16.9914 75V75ZM43.4055 16.1777C40.7921 16.1675 38.2816 17.2843 36.4246 19.2832L2.15643 56.5078L16.9699 72.6562L51.2542 35.4258C52.7307 33.7992 53.6939 31.7051 54.0049 29.4452C54.3159 27.1854 53.9586 24.8765 52.9846 22.8516C52.8765 22.6303 52.8365 22.3771 52.8705 22.1293C52.9044 21.8815 53.0106 21.652 53.1733 21.4746L66.3965 7.10156L62.4667 2.83008L49.2435 17.2031C49.0803 17.38 48.8692 17.4954 48.6412 17.5323C48.4132 17.5692 48.1803 17.5257 47.9767 17.4082C46.5627 16.5979 44.9878 16.1755 43.3893 16.1777H43.4055Z" fill="#5E5E5E"/>
<path d="M29.7239 61.6581C29.4384 61.6568 29.1651 61.5325 28.9638 61.3124L12.5871 43.5234C12.4868 43.4145 12.4073 43.2853 12.3531 43.143C12.2988 43.0008 12.2709 42.8483 12.2709 42.6943C12.2709 42.5403 12.2988 42.3878 12.3531 42.2455C12.4073 42.1033 12.4868 41.974 12.5871 41.8652L32.5971 20.1152C32.6972 20.0062 32.8161 19.9198 32.947 19.8608C33.0779 19.8018 33.2182 19.7715 33.3598 19.7715C33.5015 19.7715 33.6418 19.8018 33.7727 19.8608C33.9036 19.9198 34.0225 20.0062 34.1226 20.1152L50.4939 37.9101C50.5942 38.0189 50.6737 38.1482 50.728 38.2904C50.7822 38.4327 50.8101 38.5852 50.8101 38.7392C50.8101 38.8932 50.7822 39.0457 50.728 39.188C50.6737 39.3302 50.5942 39.4595 50.4939 39.5683L30.4839 61.3183C30.2818 61.5362 30.0086 61.6584 29.7239 61.6581V61.6581ZM14.8727 42.6913L29.7239 58.8281L48.2083 38.7363L33.3625 22.5996L14.8727 42.6913Z" fill="#5E5E5E"/>
<path d="M64.1484 12.3923C63.8629 12.3909 63.5895 12.2666 63.3883 12.0465L57.9114 6.11686C57.7091 5.89697 57.5955 5.59873 57.5955 5.28776C57.5955 4.97679 57.7091 4.67855 57.9114 4.45866C58.1137 4.23877 58.3881 4.11523 58.6742 4.11523C58.9603 4.11523 59.2347 4.23877 59.437 4.45866L64.8923 10.3883C65.043 10.5508 65.1463 10.7581 65.1891 10.9842C65.232 11.2102 65.2124 11.445 65.133 11.659C65.0535 11.873 64.9177 12.0568 64.7425 12.1872C64.5674 12.3177 64.3607 12.389 64.1484 12.3923V12.3923Z" fill="#5E5E5E"/>
</g>
<defs>
<clipPath id="clip0_1458_2">
<rect width="69" height="75" fill="white"/>
</clipPath>
</defs>
</svg>
