<svg xmlns="http://www.w3.org/2000/svg" version="1.1" xmlns:xlink="http://www.w3.org/1999/xlink" xmlns:svgjs="http://svgjs.com/svgjs" width="512" height="512" x="0" y="0" viewBox="0 0 73 73" style="enable-background:new 0 0 512 512" xml:space="preserve" class=""><g><g xmlns="http://www.w3.org/2000/svg" id="_x38_3"><path d="m48.8974533 6.9168334c-.9499016-3.4628081-4.8484726-3.6892247-6.6396484-.7275391-.6660156 1.1015625-.8754883 2.4423833-1.0117188 3.7558599-1.1912804.0369387-2.6620827.233428-3.6757813.1982422-.4013672-.0390625-.7421875.2841797-.777832.6826172-.0583496.6513672-.0975342 1.2771606-.1321411 1.8967896l-5.2213726.2028198c-1.2954102.046875-2.3383789 1.0126953-2.4790039 2.2949219-1.0202026 9.0386353-2.6268311 18.7279034-4.2047729 28.1441021-2.1805191-.6298561-3.9638176-.471096-4.1790161-.4849243-6.8567219-.458889-12.6172123 5.0137634-13.0751953 11.9492188-.5230064 7.9224129 5.6335368 13.2531509 11.8791256 13.962822 6.1982422.7042999 11.5433426-3.4719162 13.1991806-8.9272385 8.6684799.8423538 15.6639442 1.3399086 23.4480591 2.2730103.7921791.0923615 1.5283661-.1635361 2.0715942-.6543579 1.8280525-.8449821 2.167469-2.520092 2.4139404-4.4901123 5.2177277-41.7016182 5.2977676-40.5381508 4.8446655-42.2902832-.2698288-1.0432053-.9560394-2.0997171-2.0410156-2.3197021-.4892578-.4187012-1.1068726-.6572876-1.7711182-.6224976l-7.6318359.2970581c.0147095-.5112915.0126953-1.0217285-.0202026-1.5289917-.2445679-.2249756-.4890747-.4499512-.7336426-.6749268-.0010986.0091553-.0030518.0182495-.0042114.0274048-.3325691-.2678375-.2672997-.1531801-4.3220215-.3441772.1445312-.8408186.293457-1.7812488.0639648-2.620116zm-39.8994131 48.0117173c.4030666-6.1143303 5.288415-10.5751953 10.7871103-10.5751953 6.3312664 0 11.1062202 5.5998993 10.6835938 11.9931641-.4005241 6.0608521-5.4508781 11.0011444-11.4601555 10.554245-5.4904423-.4083176-10.4559574-5.2343064-10.0105486-11.9722138zm53.4609365-41.3115215c.5154114.5729332-4.8792381 45.115799-5.0166016 46.0966797-.0854492.6054688-.6186523 1.0078125-1.2368164.9335938-7.7577477-.9287567-14.4669876-1.4045715-23.2713013-2.2555542 1.128582-6.2888069-2.2716675-12.4172096-6.7466412-14.4981079 1.5959473-9.5244141 3.2279053-19.3363628 4.2630615-28.5070782.059082-.5371094.4970703-.9414063 1.0444336-.9619141l5.0845928-.1983032c-.0551338 1.0866776-.113121 1.744071-.1413689 2.1648884-.0377159.5618935-.0675926 1.0765591.6861191 1.1625938.9219017.1052322 3.7594337-.1041946 14.8089485-.0713787.1217651.1407471.4058228-.0491333 1.3867798-.475708.1976318-1.1315918.3807373-2.2867432.4934692-3.4448853 7.6650774-.1682882 8.047188-.6091251 8.6453249.0551739zm-10.5566406-2.4550781c-.1142578 1.8447266-.2680664 3.1259766-.5268555 4.8193359-8.3149834.0441113-10.2020912.0869141-13.4008789.0869141.1092949-1.5220766.1480904-2.9712467.2563477-4.4257813 1.1722603-.038847 2.6779633-.2324762 3.6650391-.1982422.3886719.0576172.7485352-.3730469.7861328-.7714844.1196289-1.2695313.2553711-2.7080083.859375-3.7070317 1.0955238-1.810257 3.3062477-1.8517561 3.9091797.3476563.2028046.7411914-.1179428 1.9222741-.2329102 2.8310552-.0558586.4285946.2634735.8172064.6953125.84375 1.2543488.080717 2.6812706.110321 3.9892578.1738281z" fill="#454545" data-original="#000000" class=""></path><path d="m45.5029221 7.3152709c-.3861885-.5077686-1.1986237-.3298049-1.3310547.2998047-.0791473.3711772-.1695175.5650077-.0297852.8701177.1327553.5718651.6285324.9335938 1.1245117.9335938 1.2035828-.0000001 1.4089089-1.7538744.2363282-2.1035162z" fill="#454545" data-original="#000000" class=""></path><path d="m39.1513596 21.9060917c-1.6352539-.0947266-3.2856445-.0917969-4.909668.0175781-.3764648.0244141-.6757813.3251953-.6987305.7021484-.0681305 1.1185226-.4069748 2.7678452-.4814453 3.9873047-.0249023.4072266.2797852.7587891.6860352.7929688 1.6417961.1376133 3.3328209.1419144 4.9785156.0703125.3691406-.015625.6713867-.2988281.7124023-.6660156.1692963-1.5127697.2479324-2.5882931.4135742-4.0712891.0478707-.4277859-.270977-.8064079-.7006835-.8330078zm-1.1342774 4.0957031c-1.2021484.0361328-2.3374023.0253906-3.3886719-.0371094.0976601-.8207512.2574883-1.7246571.3525391-2.5810547 1.0913086-.0546875 2.1943359-.0605469 3.2954102-.0175781-.0924225.9001332-.1658593 1.7432862-.2592774 2.6357422z" fill="#454545" data-original="#000000" class=""></path><path d="m38.0512619 31.9480839c-1.6279297-.0966797-3.2792969-.0917969-4.9101563.0175781-.3764648.0244141-.6757813.3251934-.6987305.7021465-.0697632 1.1433945-.4056778 2.745636-.4814434 3.9863281-.0249023.4072266.2797832.7587891.6860332.7929688 1.6168594.1370239 3.3579178.1420784 4.9780273.0712891.3691406-.015625.671875-.2978516.7128906-.6650391.1710472-1.5274658.2521515-2.6346474.4135742-4.0722656.0474932-.4244003-.2679289-.8062477-.7001951-.8330059zm-1.1342773 4.0957012c-1.2050781.0341797-2.3398438.0234375-3.3891602-.0380859.0979042-.820713.2586861-1.7336159.3525391-2.5810547 1.097168-.0546875 2.2011719-.0605469 3.2954102-.0175781-.097664.9573478-.1666146 1.750782-.2587891 2.6367187z" fill="#454545" data-original="#000000" class=""></path><path d="m36.4692307 41.9900742c-1.6279297-.0976563-3.2792969-.0908203-4.9096661.0175781-.3764648.0244141-.6757813.3251953-.6987305.7021484-.0680752 1.1156845-.4079475 2.7748108-.4819336 3.9863281-.0249023.4072266.2797852.7587891.6860352.7929688 1.6132183.1367149 3.3543682.1422844 4.9780254.0712891.3696289-.015625.671875-.2978516.7128906-.6650391.5197334-4.6325264.4594765-4.3814697.2421875-4.6396484-.1323242-.1572266-.3237304-.2529297-.5288085-.265625zm-1.1342774 4.0957031c-1.2041016.0351563-2.3388672.0234375-3.3891582-.0380859.1025372-.8505363.2602978-1.7437897.3530254-2.5810547 1.097168-.0537109 2.2001953-.0585938 3.2954102-.0175781-.097725.9514961-.1589089 1.6661681-.2592774 2.6367187z" fill="#454545" data-original="#000000" class=""></path><path d="m43.7963791 23.6482792c-.3813477-.0068359-.7558594.3222656-.7636719.7363281-.0073242.4140625.3222656.7558594.7363281.7636719l11.8286133.2177734h.0141602c.4077148 0 .7416992-.3271484.7495117-.7363281.0073242-.4140625-.3222656-.7558594-.7363281-.7636719z" fill="#454545" data-original="#000000" class=""></path><path d="m52.7299728 34.5271835-10.4545898-.0830078c-.0019531 0-.0039063 0-.0058594 0-.4116211 0-.746582.3320313-.75.7441406-.003418.4140625.3300781.7529297.7441406.7558594l10.4545898.0830078h.0058594c.4116211 0 .746582-.3320313.75-.7441406.003418-.4140625-.3295898-.7529297-.7441406-.7558594z" fill="#454545" data-original="#000000" class=""></path><path d="m51.271965 45.1883163-10.8271484-.515625c-.4223633-.0429688-.7651367.2998047-.784668.7128906-.0200195.4140625.2998047.765625.7133789.7851563l10.8271484.515625c.3774834.030201.7639885-.2769661.784668-.7128906.0200196-.4140625-.2998047-.765625-.7133789-.7851563z" fill="#454545" data-original="#000000" class=""></path><path d="m16.8793888 60.8279648c.2668571.3680801.7990322.416584 1.128418.0986328l8.1660156-7.8945313c.7117062-.6883698-.324789-1.7683296-1.0419922-1.078125l-7.5454102 7.2939453-2.7026377-3.7294922c-.2436523-.3349609-.7124023-.4072266-1.0473633-.1669922-.3354492.2441406-.409668.7128906-.1665039 1.0478516z" fill="#454545" data-original="#000000" class=""></path></g></g></svg>