<svg xmlns="http://www.w3.org/2000/svg" version="1.1" xmlns:xlink="http://www.w3.org/1999/xlink" xmlns:svgjs="http://svgjs.com/svgjs" width="512" height="512" x="0" y="0" viewBox="0 0 73 73" style="enable-background:new 0 0 512 512" xml:space="preserve" class=""><g><g xmlns="http://www.w3.org/2000/svg" id="_x36_1"><path d="m12.9376211 60.9866028c.0037842.0009766.0080566.0032349.0118408.0042114 6.3709936 1.5892296 12.8059874-3.611557 12.9460459-9.8359451.0452747-2.0120621-.5672302-4.1310806-2.052309-6.1622849 2.9103603.6109009 5.791502 1.4057083 10.1632099 3.1665039 8.3690529 3.3630714 20.9617577 6.6644287 29.1861572 6.0410767.3110352-.0236206.5681152-.2570801.625-.5638428 1.8829346-10.1567993 3.4694824-20.2997437 5.0258789-30.5123901.1174316-.770752-.1804199-1.2041626-.8056641-1.8059082-.8917847-1.3833618-2.645195 2.1869583-14.6142578-1.6256714-11.602993-3.6778126-16.4672279-9.0313454-38.3916016-7.7890625-.328125.0185547-.6054688.2480469-.6855469.5664063-2.5408944 10.1104125-4.147828 20.1555786-5.569642 29.5930786-3.1076312 2.050354-4.5722213 5.1943436-4.6426616 8.3405685-.1092448 4.8794136 3.1347428 9.7642059 8.8035503 10.5832596zm2.7300415-47.6155396c21.0058937-1.0836124 25.6610107 4.0614872 37.3017578 7.7509766 4.1777344 1.3320313 8.6738281 2.4208984 13.3828125 1.5898438-.2620468 1.5370007-3.2127113 22.7143593-4.7255859 29.4130859-.7316055-.0133018-1.7762032-.1304626-2.4140625-.2050781-18.0253601-1.6386681-25.5727806-7.5259666-38.741333-9.939209-1.2983379-.7262459-3.5851841-1.4571075-5.0252676-1.598877-1.734375-.1699219-3.4414063.0976563-5.015625.7705078 1.3496084-8.9003906 2.8896475-18.3183593 5.2373037-27.78125zm-2.1416015 46.1914063c-5.1505976-.5233231-8.0779896-4.9631767-7.8858967-9.3254547.2372398-5.3875465 4.9162416-8.6967316 9.495225-8.3772469 11.5348167.8048058 10.1439037 18.9262619-1.6093283 17.7027016z" fill="#3b3b3b" data-original="#000000" class=""></path><path d="m15.4801626 53.9257507c-.3097153 1.6890221-2.3239613 1.6185875-2.9775391.6035156-.5372248-.8328171-1.7978592-.0207596-1.2597656.8144531.7292271 1.1271362 1.9252787 1.2991142 2.0255127 1.3410034l-.0167236.1970825c-.0866909.9910851 1.4102287 1.1161041 1.4941406.1289063l.0314941-.3712769c2.124465-.571701 2.8342791-3.1992645 1.696044-4.8191528-1.1747704-1.6744728-4.0269222-1.9664116-4.4648428-3.0996094-.1943359-.5019531.1835938-1.2734375.6591797-1.7275391.4990234-.4755859 1.6982422-.828125 2.2158203-.6484375.9944973.3481979 1.7534075-1.4962502-.2808838-1.5342407l.0006104-.2850952c0-.9920273-1.5-.9926262-1.5 0l-.0010986.5457764c-2.1688528.7571793-3.0100203 2.8493843-2.493042 4.1895752.945055 2.4441109 5.3494434 2.0918427 4.8710937 4.6650391z" fill="#3b3b3b" data-original="#000000" class=""></path><path d="m15.9821157 35.9989929c1.0839891-.6940498 2.7312593.1865349 2.0820303 1.7226563-.1863194.4402084.082119.9453354.5585938 1.0302734 21.3755207 3.8096771 28.1014042 10.8852463 37.9199219 9.7275391.6689377-.079586.9021912-.9396172.3613281-1.3447266-.2255859-.1699219-.2441406-.5917969-.1474609-.9023438.1790085-.5724373 1.0732346-.691597 1.4667969-.3642578.6207047.5070877 1.5323334.1187553 1.5957031-.6669922 1.0595818-13.5433598 2.6445847-15.2040462 1.8642578-15.984375-.1767578-.1767578-.4296875-.25-.6738281-.2050781-1.6967812.3402691-2.8665848-.8582745-2.5195313-2.0478516.1113281-.3798828-.0917969-.7802734-.4648438-.9150391-1.2236328-.4433594-2.5292969-.8662109-3.7919922-1.2753906-12.8798409-4.180994-16.3391685-7.6703434-33.6875-8.4882813-.5200043-.0436363-.9482098.5567875-.7011719 1.0927734.1230469.2695313-.2148438 1.3085938-.5908203 1.6357422-.3710938.3212891-1.0107422.4453125-1.3720703.265625-.4793682-.2386551-1.0616913.0886765-1.0849609.6386719-.2617188 6.1142578-.6347656 10.1533203-1.9462881 15.2636719-.1688042.6622316.5629044 1.1852647 1.1318359.8173829zm13.069335-8.4716797c1.3193359-2.6933594 3.3632832-5.5429688 8.5253925-6.2587891 3.1494141-.4365234 6.9150391 3.0419922 8.1054688 5.6318359 1.4755859 3.2021484 1.0712891 7.1923828-1.0302734 10.1640625-3.9193993 5.541832-10.9747543 4.7930984-14.2890644.2724609-2.1933594-2.9921874-2.7207032-6.9345702-1.3115235-9.8095702zm27.8867207-.2734375c-.0559044 1.6510048 1.1282959 3.1647835 3.3007813 3.2939453-.8535156 4.5722656-1.4609375 9.0869141-1.8515625 13.7470703-1.7328606-.5106773-3.5143738.8251572-3.140625 2.7851563-5.6695938.2626038-11.0936127-2.4659767-17.1467285-4.6356812 8.4283752-.4140739 13.9444656-12.2387295 6.4188232-19.6152954 8.4315338 3.3008156 8.2419853 2.9597702 12.4193115 4.4248047zm-38.6826191-6.3867187c.7324219-.0263672 1.4921875-.2958984 1.9824219-.7216797.5078125-.4414063 1.0136719-1.4150391 1.1074219-2.3183594 6.4060955.3452511 10.7663975 1.0905628 14.8676777 2.1604614-5.0510273 1.0774536-7.1992207 4.206665-8.5092793 6.8795776-2.0636196 4.2116432-.5645809 10.2110596 3.3344727 13.2816162-3.7980957-1.1116943-7.5925293-2.0289307-11.3530273-2.7279053.2493248-2.0102921-1.5101891-3.2787971-3.0634766-3.1689453 1.1230468-4.8330077 1.4326171-8.9833983 1.633789-13.3847655z" fill="#3b3b3b" data-original="#000000" class=""></path><path d="m34.9865112 37.5798645-.2260742 1.0148315c-.1029243.46315.2461586.9130859.7333984.9130859.8852577 0 .7686729-1.1078987.956543-1.5977173 3.4724655.1227646 5.1942253-3.7825241 3.0620117-6.0126343-1.5072021-1.5763836-4.4872932-1.3912716-3.9423828-3.546875.4762764-1.8956413 2.7371254-2.0853767 4.5341797-1.1699219.8802452.451828 1.5663948-.8855476.6796875-1.3359375-.5625-.286499-1.1401367-.4777222-1.7115479-.588562l.2681885-1.1116333c.0966797-.4033203-.1513672-.8076172-.5537109-.9052734-.4013672-.0927734-.8076172.1503906-.9052734.5537109-.0839119.3549767-.2859688 1.164711-.3244629 1.3753662-3.1472893.2884464-4.2656326 3.4360847-3.0759277 5.2193604 1.0170937 1.5256424 3.0260429 1.5833549 3.9472656 2.546875.5878906.6142578.6679688 1.6865234.1835938 2.4404297-1.0403442 1.6097069-3.6571922 1.3503609-4.5869141-.7236328-.1699219-.3779297-.6181641-.5429688-.9921875-.3769531-.3779297.1699219-.5458984.6142578-.3769531.9921875.4716796 1.0493165 1.3226318 1.8764039 2.3305663 2.3132935z" fill="#3b3b3b" data-original="#000000" class=""></path><path d="m59.5192261 13.4579773c-.4091797.0673828-.6855469.4541016-.6181641.8623047l.5136719 3.1035156c.1638603.9779778 1.6419258.7343464 1.4804688-.2460938l-.5136719-3.1015625c-.0673829-.4091796-.4609375-.6865234-.8623047-.618164z" fill="#3b3b3b" data-original="#000000" class=""></path><path d="m64.2194214 12.5673523c-.7490234 1.4736328-1.4003906 3.0136719-1.9355469 4.5771484-.3249741.9443092 1.0975761 1.4239845 1.4179688.4863281.5136719-1.4970703 1.1376953-2.9716797 1.8554688-4.3837891.4495391-.8850392-.8892976-1.5628585-1.3378907-.6796874z" fill="#3b3b3b" data-original="#000000" class=""></path><path d="m66.385437 18.5038757 1.3945313-1.7958984c.6101456-.7831402-.5733109-1.7035103-1.1835938-.921875l-1.3964844 1.7978516c-.2539063.328125-.1943359.7988281.1328125 1.0527344.3320084.2561206.8023224.1905631 1.0527344-.1328126z" fill="#3b3b3b" data-original="#000000" class=""></path></g></g></svg>