<svg xmlns="http://www.w3.org/2000/svg" version="1.1" xmlns:xlink="http://www.w3.org/1999/xlink" xmlns:svgjs="http://svgjs.com/svgjs" width="512" height="512" x="0" y="0" viewBox="0 0 490 490" style="enable-background:new 0 0 512 512" xml:space="preserve" class=""><g>
<g xmlns="http://www.w3.org/2000/svg">
	<path style="" d="M490,245c0,35.53-7.56,69.29-21.17,99.76c-3.13,7.01-6.58,13.85-10.33,20.5   c-20.31,35.99-49.47,66.34-84.52,88.08c-27.47,17.04-58.56,28.8-91.85,33.86c-12.11,1.85-24.51,2.8-37.13,2.8   c-11.52,0-22.85-0.79-33.95-2.34c-7.04-0.97-13.99-2.25-20.83-3.82c-33.42-7.62-64.24-22.09-90.91-41.86   c-4.2-3.1-8.3-6.34-12.28-9.71c-0.81-0.67-1.61-1.36-2.41-2.05c-5.75-4.99-11.27-10.24-16.54-15.73C25.91,370.48,0,310.76,0,245   c0-38.76,9-75.43,25.03-108.01c14.65-29.78,35.17-56.15,60.06-77.61c2.82-2.43,5.69-4.8,8.62-7.1c3.45-2.71,6.97-5.33,10.56-7.86   C144.09,16.43,192.62,0,245,0c26.18,0,51.4,4.11,75.05,11.71c21.18,6.81,41.1,16.42,59.32,28.4c4.29,2.81,8.49,5.76,12.58,8.84   c33.42,25.08,60.21,58.51,77.28,97.19C482.58,176.37,490,209.82,490,245z" fill="#304f75" data-original="#304f75" class=""></path>
	<g>
		<path style="" d="M468.83,344.76c-3.13,7.01-6.58,13.85-10.33,20.5c-20.31,35.99-49.47,66.34-84.52,88.08    c-27.47,17.04-58.56,28.8-91.85,33.86c-30.65-0.15-61.28-1.26-91.91-3.36c-38.68-8.82-73.88-26.81-103.19-51.57    c-8.44-126.76-6.21-253.43,6.68-379.99c0.22-2.24,0.45-4.49,0.69-6.74c3.29-0.39,6.58-0.76,9.87-1.12    c91.79-10.17,183.49-11.61,275.1-4.31c27.92,2.22,55.83,5.25,83.73,9.1c2.74,32.32,4.78,64.63,6.13,96.93    C472.01,212.38,471.88,278.58,468.83,344.76z" fill="#d12c50" data-original="#d12c50"></path>
	</g>
	<g>
		<g>
			<path style="" d="M38.801,209.004L38.801,209.004c-6.997,1.447-13.842-3.052-15.289-10.049l-11.062-53.493     c-1.447-6.997,3.052-13.842,10.049-15.289h0c6.997-1.447,13.842,3.052,15.289,10.049l11.062,53.493     C50.297,200.711,45.798,207.557,38.801,209.004z" fill="#ffe05c" data-original="#ffe05c"></path>
			<path style="" d="M99.31,441.98c-4.2-3.1-8.3-6.34-12.28-9.71c-0.81-0.67-1.61-1.36-2.41-2.05     c-5.75-4.99-11.27-10.24-16.54-15.73L62.81,389c-1.45-7,3.05-13.85,10.05-15.29c0.89-0.18,1.77-0.27,2.64-0.27     c6,0,11.38,4.21,12.65,10.32l11.06,53.49C99.54,438.86,99.56,440.46,99.31,441.98z" fill="#ffe05c" data-original="#ffe05c"></path>
		</g>
		<path style="" d="M458.5,365.26c-20.31,35.99-49.47,66.34-84.52,88.08c-53.66,14.57-107.97,26.02-162.93,34.32    c-47.98-6.64-91.53-27.19-126.43-57.44c-26.34-96.4-46.2-194.15-59.59-293.23c-2.54-18.74-4.84-37.53-6.91-56.37    c22.21-7.63,44.53-14.71,66.97-21.24C162.07,37,240.39,21.1,320.05,11.71c19.64-2.31,39.35-4.23,59.15-5.76    c4.4,14.3,8.65,28.64,12.75,43C421.69,152.83,443.88,258.26,458.5,365.26z" fill="#f75454" data-original="#f75454" class=""></path>
		<path style="" d="M208.074,88.794c-67.784,14.017-111.527,80.568-97.509,148.352    c14.017,67.784,80.568,111.527,148.352,97.509s111.526-80.568,97.509-148.352C342.408,118.519,275.858,74.776,208.074,88.794z     M335.742,181l-44.677,9.239c-3.86-15.905-9.016-30.91-15.191-44.308c7.63-5.877,14.6-12.653,20.764-20.235    C314.84,139.042,328.893,158.149,335.742,181z M297.073,274.374c5.988,1.72,11.843,3.969,17.499,6.743    c-6.859,8.032-14.924,15.077-23.991,20.828c1.727-4.63,3.2-9.694,4.391-15.181C295.834,282.794,296.522,278.646,297.073,274.374z     M276.635,282.786c-4.191,19.324-12.035,31.532-21.519,33.493c-9.484,1.961-21.526-6.135-33.039-22.211    c-2.275-3.178-4.467-6.6-6.577-10.212c9.438-5.279,19.719-9.134,30.56-11.376c10.839-2.242,21.805-2.78,32.562-1.678    C278.118,274.955,277.464,278.966,276.635,282.786z M206.822,304.993c3.269,4.565,6.63,8.629,10.052,12.195    c-10.603-1.683-20.801-4.951-30.282-9.603c4.092-4.79,8.574-9.177,13.389-13.131C202.181,298.156,204.458,301.691,206.822,304.993    z M242.261,254.105c-12.494,2.584-24.354,6.996-35.27,13.015c-5.076-11.454-9.372-24.194-12.684-37.712l82.177-16.994    c2.321,13.723,3.43,27.121,3.314,39.649C267.389,250.868,254.754,251.522,242.261,254.105z M190.506,211.034    c-2.321-13.724-3.43-27.123-3.314-39.651c12.409,1.195,25.046,0.541,37.539-2.042c12.493-2.583,24.351-6.995,35.268-13.013    c5.076,11.454,9.372,24.194,12.684,37.712L190.506,211.034z M169.916,149.074c-5.988-1.72-11.844-3.968-17.501-6.741    c6.859-8.032,14.925-15.078,23.992-20.829c-1.727,4.63-3.2,9.694-4.39,15.181C171.156,140.654,170.468,144.802,169.916,149.074z     M190.354,140.662c4.192-19.324,12.035-31.532,21.519-33.493c9.484-1.961,21.526,6.135,33.038,22.211    c2.275,3.178,4.467,6.6,6.577,10.212c-9.438,5.278-19.718,9.132-30.557,11.374c-10.84,2.242-21.806,2.78-32.565,1.678    C188.872,148.492,189.526,144.482,190.354,140.662z M260.168,118.456c-3.269-4.565-6.63-8.629-10.052-12.195    c10.605,1.683,20.804,4.952,30.287,9.606c-4.093,4.79-8.577,9.176-13.392,13.13C264.81,125.293,262.533,121.758,260.168,118.456z     M141.41,157.794c8.666,4.515,17.751,7.971,27.086,10.34c-0.354,14.749,0.864,30.569,3.629,46.701l-44.677,9.239    C124.671,200.38,129.994,177.266,141.41,157.794z M131.248,242.449l44.677-9.239c3.86,15.905,9.017,30.911,15.192,44.31    c-7.629,5.877-14.597,12.654-20.76,20.237C152.152,284.41,138.097,265.302,131.248,242.449z M325.578,265.656    c-8.665-4.517-17.75-7.974-27.085-10.343c0.354-14.749-0.864-30.568-3.629-46.699l44.677-9.239    C342.318,223.069,336.995,246.185,325.578,265.656z" fill="#ffe05c" data-original="#ffe05c"></path>
		<g>
			<path style="" d="M122.855,397.188c-0.336-1.626,0.864-3.365,3.14-3.836l13.46-2.783     c8.583-1.775,16.179,0.858,18.439,11.782l0.067,0.325c2.259,10.924-3.903,16.538-12.876,18.394l-6.438,1.331l2.904,14.045     c0.43,2.081-1.891,3.646-4.427,4.17c-2.536,0.524-5.287,0.008-5.717-2.072L122.855,397.188z M134.196,400.877l2.837,13.72     l6.438-1.331c3.642-0.753,5.422-3.291,4.507-7.713l-0.148-0.715c-0.914-4.422-3.555-6.046-7.197-5.293L134.196,400.877z" fill="#ffe05c" data-original="#ffe05c"></path>
			<path style="" d="M162.532,431.023c-0.04-0.195-0.029-0.469-0.018-0.742l3.892-42.166     c0.245-2.424,2.942-4.135,5.933-4.753c2.991-0.619,6.146-0.118,7.331,2.01l20.363,37.151c0.119,0.247,0.238,0.493,0.278,0.688     c0.498,2.406-2.846,4.928-5.642,5.506c-1.626,0.336-3.033,0.085-3.706-1.2l-3.892-7.671l-13.72,2.837l-0.53,8.585     c-0.108,1.446-1.301,2.235-2.927,2.572C167.099,434.418,163.029,433.429,162.532,431.023z M183.312,412.486l-8.35-16.445     l-1.143,18.409L183.312,412.486z" fill="#ffe05c" data-original="#ffe05c"></path>
			<path style="" d="M221.812,409.813c-1.627-7.868-21.958-2.24-25.105-17.456     c-2.017-9.754,5.735-15.222,13.863-16.903c3.446-0.713,13.075-2.026,14.123,3.046c0.363,1.756-0.068,5.574-2.929,6.166     c-2.341,0.484-4.088-1.731-9.42-0.629c-4.617,0.955-6.113,3.23-5.696,5.246c1.345,6.503,21.702,1.005,25.091,17.391     c1.936,9.364-3.842,15.848-13.271,17.797c-8.518,1.762-16.532-0.921-17.419-5.213c-0.457-2.211,0.822-5.866,3.292-6.376     c3.057-0.632,6.002,3.777,12.049,2.526C219.383,414.791,222.458,412.935,221.812,409.813z" fill="#ffe05c" data-original="#ffe05c"></path>
			<path style="" d="M256.468,402.647c-1.627-7.868-21.958-2.24-25.105-17.456     c-2.017-9.754,5.735-15.222,13.863-16.903c3.446-0.713,13.075-2.026,14.123,3.046c0.363,1.756-0.068,5.574-2.929,6.166     c-2.341,0.484-4.088-1.731-9.42-0.629c-4.617,0.955-6.113,3.23-5.696,5.246c1.345,6.503,21.702,1.005,25.091,17.391     c1.936,9.364-3.842,15.848-13.271,17.797c-8.518,1.762-16.532-0.921-17.419-5.213c-0.457-2.211,0.822-5.866,3.292-6.376     c3.057-0.632,6.002,3.777,12.049,2.526C254.038,407.624,257.113,405.768,256.468,402.647z" fill="#ffe05c" data-original="#ffe05c"></path>
			<path style="" d="M265.053,367.782c-0.336-1.626,0.864-3.365,3.14-3.836l13.46-2.783     c8.583-1.775,16.179,0.858,18.439,11.782l0.067,0.325c2.259,10.924-3.903,16.538-12.876,18.394l-6.438,1.331l2.905,14.045     c0.43,2.081-1.891,3.646-4.427,4.17c-2.536,0.524-5.287,0.008-5.717-2.072L265.053,367.782z M276.394,371.471l2.837,13.72     l6.438-1.331c3.642-0.753,5.422-3.291,4.507-7.713l-0.148-0.715c-0.914-4.422-3.555-6.046-7.197-5.293L276.394,371.471z" fill="#ffe05c" data-original="#ffe05c"></path>
			<path style="" d="M307.633,389.761l-3.563-17.232c-2.313-11.184,3.784-16.785,12.758-18.641     s16.857,0.854,19.17,12.038l3.563,17.232c2.313,11.184-3.849,16.798-12.823,18.654S309.946,400.945,307.633,389.761z      M325.853,368.024c-0.928-4.487-3.555-6.046-7.197-5.293c-3.642,0.753-5.37,3.213-4.443,7.699l3.563,17.232     c0.928,4.487,3.49,6.059,7.132,5.306c3.642-0.753,5.435-3.226,4.507-7.713L325.853,368.024z" fill="#ffe05c" data-original="#ffe05c"></path>
			<path style="" d="M339.955,352.293c-0.336-1.626,0.604-3.312,2.49-3.702l13.46-2.783     c8.908-1.842,16.682,0.008,18.874,10.607c1.506,7.283-0.949,12.13-5.138,14.827l10.905,12.73c0.341,0.336,0.5,0.778,0.567,1.103     c0.524,2.536-2.292,5.966-5.284,6.585c-1.3,0.269-2.644,0.004-3.641-1.213l-12.485-15.455l-4.292,0.888l3.241,15.671     c0.43,2.081-1.891,3.646-4.427,4.17c-2.536,0.524-5.287,0.008-5.717-2.072L339.955,352.293z M351.296,355.982l2.501,12.095     l6.438-1.331c3.642-0.753,5.543-2.706,4.602-7.257c-0.941-4.552-3.461-5.59-7.103-4.837L351.296,355.982z" fill="#ffe05c" data-original="#ffe05c"></path>
			<path style="" d="M404.931,335.669c2.146-0.444,3.54,1.709,3.984,3.855c0.511,2.471-0.151,4.845-2.101,5.249     l-8.974,1.856l7.302,35.309c0.43,2.081-1.891,3.646-4.427,4.17c-2.536,0.524-5.287,0.008-5.717-2.072l-7.302-35.309l-8.974,1.856     c-1.951,0.403-3.5-1.514-4.011-3.985c-0.444-2.146-0.017-4.675,2.128-5.119L404.931,335.669z" fill="#ffe05c" data-original="#ffe05c"></path></g></g></g></g></svg>