<svg xmlns="http://www.w3.org/2000/svg" version="1.1" xmlns:xlink="http://www.w3.org/1999/xlink" xmlns:svgjs="http://svgjs.com/svgjs" width="512" height="512" x="0" y="0" viewBox="0 0 73 73" style="enable-background:new 0 0 512 512" xml:space="preserve" class=""><g><g xmlns="http://www.w3.org/2000/svg" id="_x34_4"><path d="m37.8212738 7.0825162.0702515-.067627c-15.5501747-.1498661-31.288014 12.4088531-31.0193391 30.8673015.2598958 17.8553162 14.6442113 30.4465294 31.4295373 29.6749535 2.2037849-.1013031 4.3944855-.4501343 6.5208321-1.0615387 2.6425323 2.0752792 7.0257759 3.4572678 9.8933716 2.2941895 1.1709595-.4851074 2.2140503-1.2636719 3.086731-2.2591553 3.2322388-2.9525185 3.7236328-7.9921913 2.9606934-12.3800087 4.8137131-6.8338432 6.1742783-14.6941185 4.9365921-22.0095291-2.2764246-13.4548913-13.342354-25.0665813-27.8786699-25.0585857zm15.0728149 6.6303716c-.0518799.1158447-.0855103.2404785-.0717163.3757324.2471848 2.4436693-2.3908157 4.1568918-4.5224609 2.9570303-1.5747681-.887804-2.4393082-3.1861515-4.5498047-3.9570303-3.8647385-1.4143057-6.7244987 3.0879507-9.8554688 2.7636719-1.1933594-.1269531-2.3691406-1.0615234-2.9970703-2.3808594-.4689941-.9869385-.6782837-2.2072754-.675293-3.763916 8.0704537-2.396442 16.0041314-.931264 22.671814 4.0053711zm-41.927185 15.4812002c5.256815-1.5810986 12.3463669 1.7308292 7.2089844 4.3984375-1.194931.6026459-2.4232216 1.1576996-3.1044922 2.2949219-.8652344 1.4453125-.4160156 3.4765625.9814453 4.4355469.5364304.3654823 1.2368679.6261711 1.3144531.921875.180233.6881599-3.2908173 2.9840279-7.1148682 1.8520508-.3972168-1.8232422-.6235962-3.7003174-.668335-5.6108398-.0673828-2.8625488.2824707-5.6309814 1.0368652-8.2788086.1123048.0201415.2285768.0224608.3459474-.0131837zm14.2939453 26.3515625c1.7759476-3.2702789 5.5180054-4.187191 6.0039063-3.6074219.3086052.3684845-.1863689 1.3895035-.3349609 2.2460938-.4093666 2.3211365 1.849247 4.6072426 4.1806641 4.2304688 2.6695251-.4372025 3.9243927-3.5594788 5.96875-3.8222656.96875-.1201172 2.0947266.4677734 3.0214844 1.5839844 1.347229 1.62146 2.2078857 4.9880371 1.9923096 7.4744873-2.8096848 1.0131493-5.5833969 1.5110588-8.381958 1.5733681-4.5172119.0919189-8.881958-.9226074-12.8101196-2.9314003-.5663454-1.9931642-.570801-5.0341799.3599241-6.7473146zm19.1015625-13.3017578c-.0470009-1.2075233-.1936874-2.3838768-.3740234-3.9550781-.0252686-.2312012-.1613159-.4194336-.3427734-.5385742-.9822922-.9302063-2.6976738-2.7770462-5.5849609-4.8774414-.3768463-.2718239-.9008026-.1433411-1.109375.265625-1.9747314 3.8706055-3.2148438 7.5454102-3.9960938 11.8083496-.6551056-.3295021-.695652-.3498802-.8212891-.4196777.7822266-5.4111328.921875-10.5322266.9960938-15.3222656.0039063-.2363281-.1044922-.4599609-.2910156-.6044922-2.4882813-1.9267578-4.7607422-3.5410156-6.9384766-4.9296875-.4082546-1.2598171-.693243-1.458292-.5185547-1.7265625.1358871-.2104053.21731-.082552 1.546875-.2255859 2.8115234 1.8730469 5.4619141 3.5097656 7.8808594 4.8681641.203125.1142578.4492188.1279297.6650391.0341797 4.2705078-1.8447266 9.1435547-3.3886719 14.1210938-4.4765625.0602264.0950966.1608963.2599983.2199707.3602295-3.5230713 1.7200928-7.1191406 4.2661133-10.4484863 7.4229736-.3039398.2876225-.3136749.7670765-.0214844 1.0673828 1.9853516 2.0410156 3.7792969 3.7216797 5.3310547 4.9960938.6715775.5476952 1.3553467-.399334 5.0927734-1.1435547.1569214.1843262.3220215.4020996.4855347.6345215-3.3299751 2.1196594-4.472374 3.0095024-5.590332 6.8907471-.002804-.0012133-.2415316-.1035349-.3024294-.1287844zm4.2497559-3.8027344c6.5974236 7.1281586 14.5384483 20.602829 7.7124634 27.4631386 4.7075272-7.2716446-1.9557686-18.3408928-9.3595581-25.3970985.3967284-.8118897.9551391-1.5118409 1.6470947-2.0660401zm7.6388549 20.8027344c.1822777 1.9817924-.0792656 3.4410057-.5450439 4.6103516-1.974659 2.8742027-5.6043396 3.1557274-8.0101929 1.6445351 2.8718872-1.2058105 5.529541-2.9697304 7.4827271-5.3154335.3671264-.2998048.7184448-.6209718 1.0725097-.9394532zm-5.4157104-22.3511963c.2860718-.1865234.5562744-.3566895.788147-.4888916.0272217-.012207.0574951-.0075684.0836792-.0231934.3544922-.2148438.46875-.6757813.2548828-1.0302734-.2089844-.3457031-.7626953-1.21875-1.390625-1.8466797-.171875-.1728516-.4179688-.2519531-.6601563-.2080078-1.6816406.2949219-3.1708984.78125-4.6035156 1.2695313-1.2910156-1.0839844-2.7509766-2.4501953-4.3515625-4.0703125 3.2871094-3.0205078 6.8085938-5.4277344 10.2226563-6.9853516.3497314-.1594238.5054932-.5532227.390625-.9104004-.0180054-.1235352-.0557251-.2446289-.1376953-.3503418-.4865265-.6292381-.8727303-1.8382893-1.7089844-1.6660156-5.0917969 1.0830078-10.0966797 2.6416016-14.5 4.5146484-7.034771-3.9879189-7.4769859-4.9866257-8.2021484-4.9003906-1.3749275.1749916-2.2407608-.0689564-2.8925781.9228516-.3212891.4892578-.3886719 1.1083984-.1787109 1.6552734 1.3884449 3.3572369-.8676529.2095108 7.6748047 6.7822266-.0800781 4.9550781-.2333984 9.8623047-1.0449219 15.2285156-.1419125.9426994 1.4551277 1.1977425 2.3466797 1.8730469.3932953.2963943.997879.1507721 1.1616211-.3776855.6509476-.6385536.2908745-4.4502487 3.8022461-11.6643066 1.5266724 1.1657715 2.9893188 2.473877 4.6428833 4.1416016.0555077.6024704.1373711.8440742.3077354 3.5208817.072422 1.1379128.1364288 1.0013847 1.1675453 1.4439621.7674026.3322105.8156395.3662186 1.0769653.3293457.42239.064579.7757607-.2153015.8517456-.5900879.0942383-.4671631.2483521-.9621582.418457-1.4477539 4.5085449 4.3804359 8.3494263 9.136425 9.6329956 15.4421387-2.465332 2.3791504-5.3095093 4.2543945-8.3708496 5.5720215.031311-2.7529297-.9141235-6.067627-2.3622437-7.8115234-1.2753906-1.5351563-2.8701172-2.3017578-4.3671875-2.1132813-2.7083282.348526-3.9631348 3.4944267-6.0195313 3.8300781-1.3048286.2160873-2.69133-1.1825638-2.4619141-2.4902344.1714401-.960865.9439163-2.353981.0078125-3.46875-.5664063-.6796875-1.5419922-.8867188-2.7490234-.5839844-2.4013672.6035156-4.5410156 2.2617188-5.7226563 4.4375-.9265137 1.7067871-1.093689 4.3349609-.7788086 6.489624-5.9590588-3.6259384-10.5092583-9.4895477-12.4935913-16.565918 2.4792976.4815865 4.9699335-.0923615 6.8710327-1.3963623 1.0380859-.7138672 1.5039063-1.6210938 1.2773438-2.4912109-.2757149-1.0502243-1.3288708-1.3796997-1.9179688-1.7792969-.7402344-.5078125-.9990234-1.6660156-.5419922-2.4277344.4494267-.7523232 1.4202938-1.1858215 2.5097656-1.7353516 3.7973366-1.9719963 3.1833858-5.236475-.2880859-6.7167969-2.3149414-.9890137-4.9935303-1.1896973-7.4486084-.5986328 2.8705015-8.1026459 9.5132694-14.5142326 17.581604-17.4082031.1199837 4.625721 2.5961075 6.8861055 5.0213013 7.1455069 3.5468826.3693905 6.6716232-3.8813019 9.5009766-2.8476553 1.6126823.59056 2.4518318 2.7980318 4.328125 3.8554678 2.7062035 1.5256729 6.3702545-.0798321 6.7369995-3.5263662 5.1622505 4.3660803 8.6371613 10.518527 9.8541946 17.1374283 1.2322617 6.7017288.1497879 13.8816566-3.8396683 20.1697006-1.578205-5.7715875-5.6525534-10.757374-9.4797972-15.2403566z" fill="#5d5d5d" data-original="#000000" class=""></path><path d="m58.9268646 28.1384239c-.5368767-.3732567-.5566406-.3901558-.5048828-1.1123047.0244141-.3388672.0517578-.7236328-.0517578-1.1269531-.5358315-2.0909996-3.5651932-2.2127724-4.4169922-.0136719-.6003151 1.5505676-3.2976837 2.2983932-2.0390625 5.5390625 1.0848618 2.7960625 5.1954002 3.8965988 7.3896484 1.8173828.6757813-.6396484 1.0683594-1.6035156 1.0488281-2.5771484-.0255508-1.2089157-.5749702-1.9381504-1.4257812-2.5263672zm-5.6142578 2.7431641c-.8850441-2.2784119 1.2053642-2.3045979 2.0390625-4.4541016.150219-.3871861.5329895-.6494141.8671875-.6494141.3076172 0 .6289063.2246094.6982422.4931641.1219101.476553-.2175674 1.3293018.2128906 2.1533203.5688858 1.0911427 1.6958923.8995705 1.7226563 2.2705078.0544853 2.78862-4.5374298 2.7763176-5.5400391.1865235z" fill="#5d5d5d" data-original="#000000" class=""></path><path d="m52.9210052 8.5612764.5478516-3.9208989c.0566406-.4101563-.2294922-.7890623-.6396484-.8466794-.4121094-.0585938-.7890625.2304685-.8466797.6396482l-.5478516 3.9208989c-.1356964.9826355 1.3480568 1.190299 1.4863281.2070312z" fill="#5d5d5d" data-original="#000000" class=""></path><path d="m57.5635834 6.1462369-2.4453125 3.5087895c-.573391.8211508.6754684 1.6545382 1.2304688.8574219l2.4453125-3.5087895c.2373047-.3398438.1533203-.8076172-.1865234-1.0439453-.341797-.2363282-.8076173-.1523438-1.0439454.1865234z" fill="#5d5d5d" data-original="#000000" class=""></path><path d="m59.1837006 14.2302217 4.328125-3.2460938c.3310547-.2480469.3984375-.71875.1494141-1.0498047-.2480469-.3300781-.7167969-.3984375-1.0498047-.1494141l-4.328125 3.2460938c-.7988969.5985833.1178626 1.788951.9003906 1.1992188z" fill="#5d5d5d" data-original="#000000" class=""></path></g></g></svg>