<svg xmlns="http://www.w3.org/2000/svg" version="1.1" xmlns:xlink="http://www.w3.org/1999/xlink" xmlns:svgjs="http://svgjs.com/svgjs" width="512" height="512" x="0" y="0" viewBox="0 0 68 68" style="enable-background:new 0 0 512 512" xml:space="preserve" class=""><g><g xmlns="http://www.w3.org/2000/svg" id="_x31_46"><path d="m38.6 36.7c3.4-3.5 4.3-9.2 2.2-13.5-4.1-8.4-17.5-8.6-22.6-.9-4.1 6.3-.8 15 7 17.6 4.6 1.6 10 .3 13.4-3.2zm-5.1 1.6c-.1-.1-.2-.2-.3-.3-1.5-.6-3-1.4-4.3-2.4 2.1-1.9 4.5-3.4 7-4.5 1.6 2.9 1.8 3.8 2 4.1-1.2 1.4-2.7 2.4-4.4 3.1zm-4-15.5c-1.9 2.3-4.2 4.2-6.8 5.5-1.1-2.1-1.8-4.3-2.1-6.6 1.1-1.2 2.6-2.1 4.2-2.7.3.5 1.7 1 4.7 3.8zm1 1.1c1.7 1.8 3.3 3.8 4.6 5.9-2.7 1.2-5.3 2.9-7.5 4.9-1.7-1.4-3.1-3.1-4.2-4.9 2.8-1.6 5.2-3.5 7.1-5.9zm8.4 9.9c-.5-1.1-1-2.2-1.6-3.3 1-.4 2-.7 3-.9-.2 1.5-.7 2.9-1.4 4.2zm1.5-5.7c-.6 0-3 .8-3.9 1.1-1.4-2.3-3.1-4.5-5.1-6.5 1.1-1.5 2-3.1 2.2-3.8 4.1 1.4 6.8 4.8 6.8 9.2zm-8.2-9.6c-.5 1.1-1.1 2.1-1.8 3.1-1.2-1.1-2.5-2.1-3.8-3.1 2.1-.4 3.8-.4 5.6 0zm-12.8 4.9c.4 2 1.1 3.9 2 5.7-1 .5-2.1.8-3.2 1.1-.5-2.4 0-4.8 1.2-6.8zm-.9 8.2c1.2-.3 2.4-.7 3.6-1.3 1.2 2 2.7 3.8 4.5 5.3-.7.8-1.4 1.6-2.1 2.4-2.7-1.1-5-3.4-6-6.4zm7.5 7c.6-.7 1.1-1.3 1.8-2 1.1.9 2.4 1.6 3.7 2.2-1.9.4-3.7.3-5.5-.2z" fill="#494949" data-original="#000000" class=""></path><path d="m28.9 49.5c.1.2.4.3.6.3s.3-.1.5-.2l19.2-15c.3-.3.4-.7.1-1.1-.3-.3-.7-.4-1.1-.1l-19.2 15c-.3.3-.3.7-.1 1.1z" fill="#494949" data-original="#000000" class=""></path><path d="m28.4 63.9c12.2-3.7 24-8.1 35.9-12.7.6-.2 1.1-.8 1.2-1.4.1-.3.2-.7.3-1 .4-.4.3-.8 0-1.1-1.7-1.5-3.9-3.9-6.8-7.5 1.6-.9 3.2-1.7 4.7-2.5.2-.1.4-.3.4-.5s0-.5-.1-.6c-9.3-11.7-19.3-22.8-28.8-32.3-.2-.3-.6-.3-.9-.2-11.3 5.2-21.4 11.7-31.9 20.4-.3.3-.4.7-.1 1 .3.5.7 1 1.1 1.4-.4-.5-.8-1.1-1.3-1.6-.1.9-.1 1.7-.2 2.5 8.2 11.6 16.4 23.3 24.2 35.2.5.8 1.5 1.1 2.3.9zm35.5-15.9c-10.7 4.5-22.1 8.1-33.1 11.5 9.6-7.7 18.6-13.9 26.9-18.5 0 .1.1.1.1.1 2.4 3.1 4.5 5.4 6.1 6.9zm-29.4-42.3c9.2 9.2 18.8 19.9 27.7 31.1-10.3 5.2-21.9 13-34.6 23.3-6.8-11.7-14.7-23.4-23.7-34.9 10-8.3 19.8-14.5 30.6-19.5z" fill="#494949" data-original="#000000" class=""></path><path d="m45.9 10.1c.4 0 .7-.3.7-.7l.4-3.4c0-.4-.2-.8-.7-.8-.4-.1-.8.2-.8.7l-.4 3.4c0 .4.3.8.8.8z" fill="#494949" data-original="#000000" class=""></path><path d="m48.9 11.7c.2 0 .5-.1.6-.3l2.1-3.2c.2-.3.1-.8-.2-1s-.8-.1-1 .2l-2.1 3.2c-.4.5 0 1.1.6 1.1z" fill="#494949" data-original="#000000" class=""></path><path d="m51.1 15c.3 0 .4-.1 2.4-1.1.4-.2.5-.6.3-1s-.6-.5-1-.3l-2.1 1c-.7.3-.4 1.4.4 1.4z" fill="#494949" data-original="#000000" class=""></path></g></g></svg>