<svg xmlns="http://www.w3.org/2000/svg" version="1.1" xmlns:xlink="http://www.w3.org/1999/xlink" xmlns:svgjs="http://svgjs.com/svgjs" width="512" height="512" x="0" y="0" viewBox="0 0 73 73" style="enable-background:new 0 0 512 512" xml:space="preserve" class=""><g><g xmlns="http://www.w3.org/2000/svg" id="_x31_6"><path d="m45.9801064 48.8292198c0-.0019531 0-.0039063 0-.0058594.3870468-5.690094-3.928299-10.4459915-9.4130859-10.8232422-6.7905903-.4880753-11.4864216 5.493969-10.7808781 11.3792763.5881481 4.9060478 5.0223351 9.2309113 10.7122593 8.8459816 4.6657905-.3156471 9.0456275-3.7865944 9.4817047-9.3961563zm-9.515625-9.3330078c4.6857185.3243256 8.3469467 4.3882561 8.0195313 9.2226563-.3557167 4.7429123-4.0388298 7.6949654-7.9860954 8.0027084-4.7070026.3669739-8.4985847-3.0737419-9.171011-7.1771049-.8385697-5.1172295 3.1969203-10.4559517 9.1375751-10.0482598z" fill="#353535" data-original="#000000" class=""></path><path d="m67.7511063 45.8900108c-3.0858078-.8838081-4.9605598-1.7587585-5.9277992-2.1472168l-.3613892-38.0063471-1.5797119-.9682618c-.0464478-.0585938-.0858765-.123291-.1491699-.1665039-.2050781-.140625-.4619141-.1699219-.6933594-.0800781-6.3210182 2.4409509-10.4677811 4.0908227-16.7103882 6.6997066-2.1361847-.9911671-16.9859047-6.5605097-17.4067974-6.3647457-.0023193.0009766-.0040894.0029297-.0063477.0039063-.0014648.0006104-.0029297.0002441-.0043945.0009766-.0023823.0011549.0318089-.0153804-.2998047.1455078-6.8515415 3.2955127-17.685154 6.4440761-17.9484253 7.5012202-.3261108.223877-.6598511.4401855-.9487915.7012939l-.6954961 38.6949463c.3539429.3540039.6089478.6157227.8536377.7988281.1873512.4382248.640202.5496063.9871216.3916016 4.3011384-1.9524765 10.1167793-4.0491638 15.4812012-6.5635986-.144043 1.1564255-.1378899 2.2733154.0020256 3.3562622.1215324.9406662.3439903 1.8557205.6566048 2.7488403-1.4314556.1436806-2.1386528 1.6873932-1.958313 3.1925049-3.2814121 2.4813309-7.1552687 5.455162-10.5115967 7.9935303-.8907804.6706886-1.3985891 2.508213-.6337891 3.4599648.5076799.6316071 1.7097006 1.1971436 2.7575073 1.0030518.8535595.1866913 1.4249897.4362488 2.0845337.0091553 3.9547729-2.5615234 7.5418091-5.4477577 11.5651855-8.4418983.1754761-.0637207.3372192-.151123.4893799-.2512207 2.9533939 2.4905434 6.8516445 3.5744705 10.3599339 3.2981071 7.1493912-.5631828 12.8063583-7.161541 12.5853767-14.0188103 5.9518433-1.032959 11.9332886-1.8200684 17.9441566-2.3708496.3541876-.0295411.4132086-.5214845.0689093-.6198732zm-20.0991249 3.173584c-.4507103 6.2509232-5.5206299 10.6761932-11.1220703 11.0625-6.7610016.5802345-11.8260307-4.5360947-12.6860695-10.3660393-2.5380917-17.2049598 24.8949852-18.085987 23.8081398-.6964607zm1.0341796-15.8730469c.6495972.2095947 1.3110962.4423828 1.9711914.6726074l-.9165039 1.6896973c-.2717552.501812.0946465 1.1083984.6582031 1.1083984.6182747 0 .7340012-.6022339.868103-.7750244.6802368 3.475708 1.9570313 7.5740967 6.1519775 8.1695557-2.0603561.874115-5.1158104 2.0662193-7.8549194 3.1403809-.5475922-3.7096214-2.916153-7.9976997-6.4529419-10.2602539l.0597534-19.3271484c3.5050735 1.1682262 6.6779823 11.2543602 7.4122925 14.6442871-.4803467-.1655273-.9639282-.3378906-1.4381714-.4902344-.9428824-.3025666-1.4049186 1.1233482-.4589843 1.4277343zm-7.0722656 2.8781739c-1.521389-.7496033-3.1718674-1.1973724-4.8564873-1.3262634-1.842308-.1409607-3.7254448.0994453-5.5252247.7434998.011013-2.8760948.1239662-6.1965256 2.3475323-8.1860352.4443359-.3984375.9658203-.7255859 1.5185547-1.0712891 3.0641861-1.9207096 2.9447212-2.7411919 4.3095703-5.9921875.3512573-.8360596 1.0960083-2.2124023 2.2628174-2.6308594zm16.9521485-29.7561031.1785278 36.3255615c-.0175781-.0008545-.0327759-.0093994-.0505981-.0091553-4.2279663.0991211-5.3113403-3.4169922-6.154541-8.1242676 1.366375.4699478 1.4191933.5041504 1.6027832.5041504.8499184 0 1.0415497-1.2025604.2294922-1.4638672-.5106201-.1645508-1.0307007-.3491211-1.5481567-.5280762l.9329224-1.7199707c.474472-.8761234-.8480682-1.5848427-1.3183594-.7167969l-.4898682.9030762c-.4364624-1.8841553-1.0623169-3.8803711-1.9788818-6.2468262-1.2929268-3.3383827-3.2724037-8.4439716-6.7935181-9.1777344l.0110474-3.5693359c5.6212691-2.3487361 9.6534613-3.9611238 15.3791503-6.1767577zm-16.8798829 6.2568355-.0106812 3.4714355c-3.6575394.7263737-3.8273697 5.6615067-5.5596313 7.5510254-1.6160088 1.7637978-4.8973122 2.0010605-6.0185528 7.1923828-.3574219 1.6601563-.3623047 3.3466797-.3671875 4.9775391-.0002441.1125488.0280151.2169189.0722046.3128662-1.6947708.8219566-3.120842 1.8959541-4.4519653 3.5001221l.6209717-32.9233398c5.3154564 2.077279 11.4231701 3.9297532 15.7148418 5.9179687zm-34.3603501 38.6777344c.0239744-1.1409187.7859845-37.4047928.7998052-38.0625 4.7979269-2.0501738 10.9214439-3.963521 16.3439941-6.4671626l-.6630249 35.1506348c-.4832764.9102783-.855896 1.8637695-1.1149292 2.8409424-5.0760498 2.4668726-10.7734814 4.5325922-15.3658452 6.5380854zm4.1074224 13.7724647c3.2063036-2.4244156 6.6936893-5.1017113 10.095459-7.6771278.3361816.6470947.7155151 1.1658936 1.1658936 1.5699463-3.4522495 2.6201897-7.0149374 5.4523659-10.2574463 7.90308-.2060547.1181641-1.0791016-.1083984-1.3710938-.4726563-.1503907-.2109375.0585937-1.0908203.3671875-1.3232422z" fill="#353535" data-original="#000000" class=""></path><path d="m11.1051083 20.0157433c1.9665852.9402676 4.3665466.858717 6.2568359-.1904297.9464931-.5235176 2.0955677-1.5663319 3.0263672-1.1865234.3769531.1572266.8212891-.0214844.9804688-.4042969.1591797-.3818359-.0214844-.8212891-.4042969-.9804688-1.7563076-.7316017-3.4209843.7563839-4.3300781 1.2597656-1.4814453.8232422-3.3515625.8808594-4.8828125.1484375-.375-.1787109-.8212891-.0205078-1 .3535156s-.0205079.8212891.3535156 1.0000001z" fill="#353535" data-original="#000000" class=""></path><path d="m21.2808895 28.3594933c-2.0693245-.8631897-3.8604774 1.2642212-4.8876953 1.8388672-1.3583984.7646484-3.0634766.5947266-4.9882813.3144531-.4003906-.0556641-.7890625.2246094-.8496094.6347656-.0595703.4091797.2246094.7900391.6347656.8496094 5.6383762.8212585 6.1540337-.7917347 7.9238281-1.9179688.5957031-.3779297 1.1884766-.5039063 1.5888672-.3349609.9214936.3780479 1.489853-1.0033283.5781251-1.3847656z" fill="#353535" data-original="#000000" class=""></path><path d="m19.1568661 37.7872276c-1.6165066-.2497215-2.7874241 1.1823349-3.703125 1.6386719-.9775391.4882813-2.203125.3310547-3.5869141.0927734-.9879074-.1556129-1.224761 1.3112869-.2539063 1.4785156 3.570159.6144485 4.0396767.0830994 6.1191406-1.3232422.4716797-.3173828.8740234-.4550781 1.1962891-.4042969.4160156.0654297.7929688-.2177734.8554688-.6269531.0625-.4101562-.2177734-.7929687-.6269531-.8554687z" fill="#353535" data-original="#000000" class=""></path></g></g></svg>