<svg width="62" height="62" viewBox="0 0 62 62" fill="none" xmlns="http://www.w3.org/2000/svg">
<path d="M7.02344 43.9329C7.26562 43.4485 36.5219 16.8563 40.0094 14.5797C43.4969 12.3032 48.5344 13.0297 53.3297 16.7594C58.125 20.4891 56.6234 21.3125 56.1875 22.2813C55.7516 23.25 54.4437 23.0563 51.5375 20.9735C48.6797 18.9391 45.0953 15.5485 42.9641 15.8875C40.7844 16.2266 9.6875 46.5485 9.6875 46.5485" fill="#53AF80"/>
<path d="M43.8844 7.02344C43.4 7.26563 16.8078 36.5219 14.5312 40.0094C12.2547 43.4969 12.9812 48.5344 16.7109 53.3297C20.4406 58.125 21.2641 56.6719 22.2812 56.1875C23.25 55.7516 23.0562 54.4438 20.9734 51.5375C18.8906 48.6797 15.5 45.1438 15.8875 42.9641C16.2266 40.8328 46.5484 9.6875 46.5484 9.6875" fill="#53AF80"/>
<path d="M46.3047 27.1166C50.5797 22.8417 51.2697 16.6006 47.846 13.1768C44.4222 9.75306 38.1811 10.4431 33.9062 14.7181C29.6312 18.9931 28.9411 25.2341 32.3649 28.6579C35.7887 32.0817 42.0297 31.3916 46.3047 27.1166Z" fill="#C1C1C0"/>
<path d="M7.02344 43.9329C7.26562 43.4485 36.5219 16.8563 40.0094 14.5797C43.4969 12.3032 48.5344 13.0297 53.3297 16.7594C58.125 20.4891 56.6234 21.3125 56.1875 22.2813C55.7516 23.25 54.4438 23.0563 51.5375 20.9735C48.6797 18.9391 45.0953 15.5485 42.9641 15.8875C40.7844 16.2266 9.6875 46.5485 9.6875 46.5485" stroke="#3D3D3D" stroke-miterlimit="10"/>
<path d="M27.1364 46.303C31.4114 42.0281 32.1015 35.787 28.6777 32.3632C25.2539 28.9395 19.0129 29.6295 14.7379 33.9045C10.4629 38.1795 9.77286 44.4205 13.1966 47.8443C16.6204 51.2681 22.8615 50.578 27.1364 46.303Z" fill="#C1C1C0"/>
<path d="M43.8844 7.02344C43.4 7.26562 16.8078 36.5219 14.5313 40.0094C12.2547 43.4969 8.67032 41.0266 12.3516 45.8219C16.0328 50.6172 16.9531 49.1641 17.9219 48.6797C18.8906 48.2437 18.6969 46.9359 16.6141 44.0297C14.5313 41.1234 15.5 45.0953 15.8391 42.9641C16.2266 40.8328 46.5484 9.6875 46.5484 9.6875" fill="#C1C1C0"/>
<path d="M43.8844 7.02344C43.4 7.26562 16.8078 36.5219 14.5312 40.0094C12.2547 43.4969 12.9812 48.5344 16.7109 53.3297C20.4406 58.125 21.2641 56.6719 22.2812 56.1875C23.25 55.7516 23.0562 54.4438 20.9734 51.5375C18.8906 48.6797 15.5 45.1437 15.8875 42.9641C16.2266 40.8328 46.5484 9.6875 46.5484 9.6875" stroke="#3D3D3D" stroke-miterlimit="10"/>
<path d="M33.7125 14.2406C29.9828 18.4547 28.5297 23.4922 25.8172 26.1562C25.7688 26.2047 25.7203 26.2531 25.7203 26.3016C25.6719 26.35 25.6234 26.3984 25.575 26.3984C22.8625 29.1109 17.825 30.5156 13.6594 34.2453C9.49376 37.975 6.4422 44.4656 6.4422 44.4656L9.05782 47.0812C9.05782 47.0812 10.1234 45.5312 11.5766 47.0812C13.9984 49.6969 19.3266 52.3125 21.8453 51.3438C24.3641 50.375 31.1453 44.7078 31.3391 40.2031C31.5328 35.6984 27.125 29.8859 28.0938 28.9172C28.1422 28.8688 28.1906 28.8203 28.1906 28.7719C28.2391 28.7234 28.2875 28.7234 28.336 28.675C29.3047 27.7063 35.1172 32.1141 39.6219 31.9203C44.1266 31.7266 49.8422 24.9453 50.7625 22.4266C51.7313 19.9078 49.1641 14.5797 46.5 12.1578C44.95 10.7047 46.5 9.63906 46.5 9.63906L43.8844 7.02344C43.8844 7.02344 37.3938 10.0266 33.7125 14.2406ZM28.2875 37.6359C29.3047 42.7219 26.2047 45.6281 22.6688 47.9531C19.1328 50.2781 15.5484 47.275 13.3688 45.1437C11.1891 42.9641 12.2547 41.3172 13.2719 39.2828C13.9984 37.7812 16.8563 34.9719 20.4891 32.9375C24.1219 30.9031 27.2703 32.55 28.2875 37.6359ZM47.3719 23.25C45.0469 26.7859 42.1406 29.8859 37.0547 28.8687C31.9688 27.8516 30.2734 24.6063 32.3078 21.0219C34.3422 17.4375 37.1516 14.5312 38.6531 13.8047C40.7359 12.8359 42.3828 11.7703 44.5141 13.9016C46.6938 16.0813 49.6969 19.7141 47.3719 23.25Z" fill="#8DCEA8"/>
<path d="M33.7125 14.9876C29.9828 19.2016 28.5297 24.2391 25.8172 26.9032C25.7687 26.9516 25.7203 27.0001 25.7203 27.0485C25.6719 27.0969 25.6234 27.1454 25.575 27.1454C22.8625 29.8579 17.825 31.2626 13.6594 34.9923C9.49373 38.7219 6.44217 45.2126 6.44217 45.2126L9.05779 47.8282C9.05779 47.8282 10.1234 46.2782 11.5765 47.8282C13.9984 50.4438 19.3265 53.0594 21.8453 52.0907C24.364 51.1219 31.1453 45.4548 31.339 40.9501C31.5328 36.4454 27.125 30.6329 28.0937 29.6641C28.1422 29.6157 28.1906 29.5673 28.1906 29.5188C28.239 29.4704 28.2875 29.4704 28.3359 29.4219C29.3047 28.4532 35.1172 32.861 39.6219 32.6673C44.1265 32.4735 49.8422 25.6923 50.7625 23.1735C51.7312 20.6548 49.164 15.3266 46.5 12.9048C44.95 11.4516 46.5 10.386 46.5 10.386L43.8844 7.77039C43.8844 7.77039 37.3937 10.7735 33.7125 14.9876ZM28.2875 38.3829C29.3047 43.4688 26.2047 46.3751 22.6687 48.7001C19.1328 51.0251 15.5484 48.0219 13.3687 45.8907C11.189 43.711 12.2547 42.0641 13.2719 40.0298C13.9984 38.5282 16.8562 35.7188 20.489 33.6844C24.1219 31.6501 27.2703 33.2969 28.2875 38.3829ZM47.3719 23.9969C45.0469 27.5329 42.1406 30.6329 37.0547 29.6157C31.9687 28.5985 30.2734 25.3532 32.3078 21.7688C34.3422 18.1844 37.1515 15.2782 38.6531 14.5516C40.7359 13.5829 42.3828 12.5173 44.514 14.6485C46.6937 16.8282 49.6969 20.461 47.3719 23.9969Z" stroke="#5C5C5C" stroke-miterlimit="10"/>
</svg>
