<svg width="62" height="62" viewBox="0 0 62 62" fill="none" xmlns="http://www.w3.org/2000/svg">
<path d="M46.5 54.25H14.6281C13.6109 54.25 12.5938 53.6203 12.5938 52.6031V26.0594C12.5938 25.0422 13.6109 24.2188 14.6281 24.2188H46.5V54.25Z" fill="#53AF80"/>
<path d="M46.5 54.25H14.6281C13.6109 54.25 12.5938 53.6203 12.5938 52.6031V26.0594C12.5938 25.0422 13.6109 24.2188 14.6281 24.2188H46.5V54.25Z" stroke="#585858" stroke-miterlimit="10"/>
<path d="M48.9219 9.15469V44.0781H19.375V9.15469C19.375 8.1375 19.9562 7.26562 20.9734 7.26562H47.5172C48.5344 7.26563 48.9219 8.1375 48.9219 9.15469Z" fill="#E2E2E2"/>
<path d="M48.9219 9.15469V44.0781H19.375V9.15469C19.375 8.1375 19.9562 7.26562 20.9734 7.26562H47.5172C48.5344 7.26563 48.9219 8.1375 48.9219 9.15469Z" stroke="#585858" stroke-miterlimit="10"/>
<path d="M27.0281 28.5781C25.0906 28.5781 23.5406 26.8828 23.5406 24.9453C23.5406 23.0078 25.0906 21.3125 27.0281 21.3125H28.5781V28.5781H27.0281Z" fill="#53AF80"/>
<path d="M27.0281 28.5781C25.0906 28.5781 23.5406 26.8828 23.5406 24.9453C23.5406 23.0078 25.0906 21.3125 27.0281 21.3125H28.5781V28.5781H27.0281Z" stroke="#3D3D3D" stroke-width="2" stroke-miterlimit="10"/>
<path d="M28.4812 28.336C30.4073 28.336 31.9687 26.7746 31.9687 24.8485C31.9687 22.9224 30.4073 21.361 28.4812 21.361C26.5552 21.361 24.9937 22.9224 24.9937 24.8485C24.9937 26.7746 26.5552 28.336 28.4812 28.336Z" fill="#8DCEA8"/>
<path d="M39.6219 28.5781C37.6844 28.5781 36.1344 26.8828 36.1344 24.9453C36.1344 23.0078 37.6844 21.3125 39.6219 21.3125H41.1719V28.5781H39.6219Z" fill="#53AF80"/>
<path d="M39.6219 28.5781C37.6844 28.5781 36.1344 26.8828 36.1344 24.9453C36.1344 23.0078 37.6844 21.3125 39.6219 21.3125H41.1719V28.5781H39.6219Z" stroke="#3D3D3D" stroke-width="2" stroke-miterlimit="10"/>
<path d="M41.075 28.336C43.0011 28.336 44.5625 26.7746 44.5625 24.8485C44.5625 22.9224 43.0011 21.361 41.075 21.361C39.1489 21.361 37.5875 22.9224 37.5875 24.8485C37.5875 26.7746 39.1489 28.336 41.075 28.336Z" fill="#8DCEA8"/>
<path d="M41.075 28.5297C43.0813 28.5297 44.7078 26.9032 44.7078 24.8969C44.7078 22.8905 43.0813 21.264 41.075 21.264C39.0687 21.264 37.4422 22.8905 37.4422 24.8969C37.4422 26.9032 39.0687 28.5297 41.075 28.5297Z" stroke="#3D3D3D" stroke-width="2" stroke-miterlimit="10"/>
<path d="M28.4812 28.5297C30.4876 28.5297 32.1141 26.9032 32.1141 24.8969C32.1141 22.8905 30.4876 21.264 28.4812 21.264C26.4749 21.264 24.8484 22.8905 24.8484 24.8969C24.8484 26.9032 26.4749 28.5297 28.4812 28.5297Z" stroke="#3D3D3D" stroke-width="2" stroke-miterlimit="10"/>
<path d="M50.2781 54.25H15.5V24.2188H50.2781C51.2953 24.2188 52.3125 25.0422 52.3125 26.0594V52.6031C52.3125 53.6203 51.2953 54.25 50.2781 54.25Z" fill="white"/>
<path d="M50.2781 54.25H15.5V24.2188H50.2781C51.2953 24.2188 52.3125 25.0422 52.3125 26.0594V52.6031C52.3125 53.6203 51.2953 54.25 50.2781 54.25Z" stroke="#3D3D3D" stroke-miterlimit="10"/>
<path d="M43.1094 36.3281H37.2969V30.5156H30.0312V36.3281H24.7031V43.5938H30.0312V48.9219H37.2969V43.5938H43.1094V36.3281Z" fill="#53AF80"/>
<path d="M43.1094 36.3281H37.2969V30.5156H30.0312V36.3281H24.7031V43.5937H30.0312V48.9219H37.2969V43.5937H43.1094V36.3281Z" stroke="#585858" stroke-miterlimit="10"/>
<path d="M27.0281 18.4062C25.0906 18.4062 23.5406 16.7109 23.5406 14.7734C23.5406 12.8359 25.0906 11.1406 27.0281 11.1406H28.5781V18.4062H27.0281Z" fill="#53AF80"/>
<path d="M27.0281 18.4062C25.0906 18.4062 23.5406 16.7109 23.5406 14.7734C23.5406 12.8359 25.0906 11.1406 27.0281 11.1406H28.5781V18.4062H27.0281Z" stroke="#3D3D3D" stroke-width="2" stroke-miterlimit="10"/>
<path d="M28.4812 18.1641C30.4073 18.1641 31.9687 16.6027 31.9687 14.6766C31.9687 12.7505 30.4073 11.1891 28.4812 11.1891C26.5552 11.1891 24.9937 12.7505 24.9937 14.6766C24.9937 16.6027 26.5552 18.1641 28.4812 18.1641Z" fill="#8DCEA8"/>
<path d="M39.6219 18.4062C37.6844 18.4062 36.1344 16.7109 36.1344 14.7734C36.1344 12.8359 37.6844 11.1406 39.6219 11.1406H41.1719V18.4062H39.6219Z" fill="#53AF80"/>
<path d="M39.6219 18.4062C37.6844 18.4062 36.1344 16.7109 36.1344 14.7734C36.1344 12.8359 37.6844 11.1406 39.6219 11.1406H41.1719V18.4062H39.6219Z" stroke="#3D3D3D" stroke-width="2" stroke-miterlimit="10"/>
<path d="M41.075 18.1641C43.0011 18.1641 44.5625 16.6027 44.5625 14.6766C44.5625 12.7505 43.0011 11.1891 41.075 11.1891C39.1489 11.1891 37.5875 12.7505 37.5875 14.6766C37.5875 16.6027 39.1489 18.1641 41.075 18.1641Z" fill="#8DCEA8"/>
<path d="M41.075 18.4062C43.0813 18.4062 44.7078 16.7798 44.7078 14.7734C44.7078 12.7671 43.0813 11.1406 41.075 11.1406C39.0687 11.1406 37.4422 12.7671 37.4422 14.7734C37.4422 16.7798 39.0687 18.4062 41.075 18.4062Z" stroke="#3D3D3D" stroke-width="2" stroke-miterlimit="10"/>
<path d="M28.4812 18.4062C30.4876 18.4062 32.1141 16.7798 32.1141 14.7734C32.1141 12.7671 30.4876 11.1406 28.4812 11.1406C26.4749 11.1406 24.8484 12.7671 24.8484 14.7734C24.8484 16.7798 26.4749 18.4062 28.4812 18.4062Z" stroke="#3D3D3D" stroke-width="2" stroke-miterlimit="10"/>
</svg>
