<svg width="354" height="318" viewBox="0 0 354 318" fill="none" xmlns="http://www.w3.org/2000/svg">
<g filter="url(#filter0_d_390_405)">
<ellipse cx="195.5" cy="119" rx="116.5" ry="119" fill="#D9D9D9" fill-opacity="0.42"/>
<path d="M125 213C125 214.1 124.1 215 123 215H22C20.9 215 20 214.1 20 213V134C20 132.9 20.9 132 22 132H123C124.1 132 125 132.9 125 134V213Z" fill="white"/>
<path d="M125 213C125 214.1 124.1 215 123 215H22C20.9 215 20 214.1 20 213V134C20 132.9 20.9 132 22 132H123C124.1 132 125 132.9 125 134V213Z" stroke="#777777" stroke-miterlimit="10"/>
<path d="M60 215H70V217H60.6C60.3 217 60 216.6 60 216.4V215Z" fill="#53AF80"/>
<path d="M60 215H70V217H60.6C60.3 217 60 216.6 60 216.4V215Z" stroke="#777777" stroke-miterlimit="10"/>
<path d="M60 132H70V130H60.6C60.3 130 60 130.3 60 130.6V132Z" fill="#53AF80"/>
<path d="M60 132H70V130H60.6C60.3 130 60 130.3 60 130.6V132Z" stroke="#777777" stroke-miterlimit="10"/>
<path d="M20 131H10V214H20V131Z" fill="#C1C1C0"/>
<path d="M20 131H10V214H20V131Z" stroke="#777777" stroke-miterlimit="10"/>
<path d="M19.9 150.8C19.9 150.8 25.8 131 25.1 131H16.3C16 131 15.8 131.1 15.8 131.4L19.6 151.2C19.7 151.5 19.9 151.2 19.9 150.8Z" fill="#2771B5"/>
<path d="M25 131H16.3C16 131 15.8 131.1 15.8 131.4L19.6 151.1C19.7 151.4 19.8 151.3 19.8 150.9" stroke="#777777" stroke-width="2" stroke-miterlimit="10" stroke-linecap="round" stroke-linejoin="round"/>
<path d="M9 150.6C9 151 9.3 151.3 9.4 151L13.3 131.4C13.3 131.1 13.1 131 12.8 131H9V150.6Z" fill="#2771B5"/>
<path d="M9 150.6C9 151 9.3 151.3 9.4 151L13.3 131.4C13.3 131.1 13.1 131 12.8 131H9V150.6Z" stroke="#777777" stroke-miterlimit="10" stroke-linecap="round" stroke-linejoin="round"/>
<path d="M20 150.6V134.5C20 132.3 21.4 131 23.6 131H39.7C40.1 131 40.4 131.3 40 131.6L20.7 151.1C20.4 151.4 20 151 20 150.6Z" fill="#2771B5"/>
<path d="M127 150.6V134.5C127 132.3 124.8 131 122.6 131H106.3C105.9 131 105.6 131.3 106 131.6L125.8 151C126.2 151.4 127 151 127 150.6Z" fill="#2771B5"/>
<path d="M127 195.5V211.4C127 213.6 124.8 215 122.6 215H106.3C105.9 215 105.6 214.7 106 214.4L125.9 195C126.2 194.7 127 195.1 127 195.5Z" fill="#2771B5"/>
<path d="M20 150.6V134.5C20 132.3 21.4 131 23.6 131H39.7C40.1 131 40.4 131.3 40 131.6L20.7 151.1C20.4 151.4 20 151 20 150.6Z" stroke="#777777" stroke-miterlimit="10"/>
<path d="M19.9 195.1C19.9 195.1 25.8 215 25.1 215H16.3C16 215 15.8 214.8 15.8 214.5L19.6 194.7C19.7 194.4 19.9 194.6 19.9 195.1Z" fill="#2771B5"/>
<path d="M25 215H16.3C16 215 15.8 214.8 15.8 214.5L19.6 194.8C19.7 194.5 19.8 194.7 19.8 195.1" stroke="#777777" stroke-width="2" stroke-miterlimit="10" stroke-linecap="round" stroke-linejoin="round"/>
<path d="M9 195.2C9 194.8 9.3 194.5 9.4 194.9L13.3 214.6C13.4 214.9 13.2 215.1 12.9 215.1H9V195.2Z" fill="#2771B5"/>
<path d="M9 195.2C9 194.8 9.3 194.5 9.4 194.9L13.3 214.6C13.4 214.9 13.2 215.1 12.9 215.1H9V195.2Z" stroke="#777777" stroke-width="2" stroke-miterlimit="10" stroke-linecap="round" stroke-linejoin="round"/>
<path d="M20 195.2V211.3C20 213.5 21.4 215.1 23.6 215.1H39.7C40.1 215.1 40.4 214.6 40 214.3L20.7 194.8C20.4 194.5 20 194.7 20 195.2Z" fill="#2771B5"/>
<path d="M20 195.2V211.3C20 213.5 21.4 215.1 23.6 215.1H39.7C40.1 215.1 40.4 214.6 40 214.3L20.7 194.8C20.4 194.5 20 194.7 20 195.2Z" stroke="#777777" stroke-miterlimit="10"/>
<path d="M127 150.6V134.5C127 132.3 124.8 131 122.6 131H106.3C105.9 131 105.6 131.3 106 131.6L125.8 151C126.2 151.4 127 151 127 150.6Z" stroke="#777777" stroke-miterlimit="10"/>
<path d="M127 195.5V211.4C127 213.6 124.8 215 122.6 215H106.3C105.9 215 105.6 214.7 106 214.4L125.9 195C126.2 194.7 127 195.1 127 195.5Z" stroke="#777777" stroke-miterlimit="10"/>
<path d="M79 130.5C79 130.2 78.8 130 78.5 130H68.5C68.2 130 68 130.2 68 130.5V216.5C68 216.8 68.2 217 68.5 217H78.5C78.8 217 79 216.8 79 216.5V130.5Z" fill="#94C9FA"/>
<path d="M79 130.5C79 130.2 78.8 130 78.5 130H68.5C68.2 130 68 130.2 68 130.5V216.5C68 216.8 68.2 217 68.5 217H78.5C78.8 217 79 216.8 79 216.5V130.5Z" stroke="#777777" stroke-miterlimit="10"/>
<path d="M68.4 190.5L73.9 194.7L78.6 190.9" stroke="#777777" stroke-miterlimit="10"/>
<path d="M81 186.5C81 186.8 80.8 187 80.5 187H67.5C67.2 187 67 186.8 67 186.5V185.5C67 185.2 67.2 185 67.5 185H80.5C80.8 185 81 185.2 81 185.5V186.5Z" fill="#E2E2E2"/>
<path d="M81 186.5C81 186.8 80.8 187 80.5 187H67.5C67.2 187 67 186.8 67 186.5V185.5C67 185.2 67.2 185 67.5 185H80.5C80.8 185 81 185.2 81 185.5V186.5Z" stroke="#777777" stroke-miterlimit="10"/>
<path d="M73.5 144.4C74.4389 144.4 75.2 143.639 75.2 142.7C75.2 141.761 74.4389 141 73.5 141C72.5611 141 71.8 141.761 71.8 142.7C71.8 143.639 72.5611 144.4 73.5 144.4Z" fill="#777777"/>
<path d="M73.5 150.4C74.4389 150.4 75.2 149.639 75.2 148.7C75.2 147.761 74.4389 147 73.5 147C72.5611 147 71.8 147.761 71.8 148.7C71.8 149.639 72.5611 150.4 73.5 150.4Z" fill="#777777"/>
<path d="M73.5 156.4C74.4389 156.4 75.2 155.639 75.2 154.7C75.2 153.761 74.4389 153 73.5 153C72.5611 153 71.8 153.761 71.8 154.7C71.8 155.639 72.5611 156.4 73.5 156.4Z" fill="#777777"/>
<path d="M73.9 162.4C74.8389 162.4 75.6 161.639 75.6 160.7C75.6 159.761 74.8389 159 73.9 159C72.9611 159 72.2 159.761 72.2 160.7C72.2 161.639 72.9611 162.4 73.9 162.4Z" fill="#777777"/>
<path d="M73.5 168.8C74.4389 168.8 75.2 167.949 75.2 166.9C75.2 165.851 74.4389 165 73.5 165C72.5611 165 71.8 165.851 71.8 166.9C71.8 167.949 72.5611 168.8 73.5 168.8Z" fill="#777777"/>
<path d="M73.5 178.7C74.4389 178.7 75.2 177.939 75.2 177C75.2 176.061 74.4389 175.3 73.5 175.3C72.5611 175.3 71.8 176.061 71.8 177C71.8 177.939 72.5611 178.7 73.5 178.7Z" fill="#777777"/>
<path d="M83 162C83 160.9 82.1 160 81 160H66C64.9 160 64 160.9 64 162V171C64 172.1 64.9 173 66 173H81C82.1 173 83 172.1 83 171V162ZM81 171H67V162H81V171Z" fill="#E2E2E2"/>
<path d="M83 171C83 172.1 82.1 173 81 173H66C64.9 173 64 172.1 64 171V162C64 160.9 64.9 160 66 160H81C82.1 160 83 160.9 83 162V171Z" stroke="#777777" stroke-miterlimit="10"/>
<path d="M80 163H67V170H80V163Z" stroke="#777777" stroke-miterlimit="10" stroke-linejoin="round"/>
<path d="M74 167H73V174H74V167Z" fill="white"/>
<path d="M114.149 164.704L114.991 161.41L101.622 157.989L100.779 161.283L114.149 164.704Z" fill="#94C9FA"/>
<path d="M74 167H73V174H74V167Z" stroke="#777777" stroke-miterlimit="10" stroke-linejoin="round"/>
<path d="M112.8 168L100.4 164.8C100.1 164.7 100 164.5 100 164.2L102.3 155.1C102.4 154.8 102.6 154.7 102.9 154.7L115.3 157.9C115.6 158 115.7 158.2 115.7 158.5L113.4 167.6C113.3 167.9 113.1 168.1 112.8 168Z" stroke="#777777" stroke-miterlimit="10"/>
<path d="M40.7 157.4L46.5 156.4L44.9 155.4L48.3 150.1L46.5 150.4L46.4 147.7L44.2 149.1L43.4 146.9L41.4 151.1L40.4 144.7L38.6 146.6L35.8 143.8L35.4 147.7L32.8 147.4L36.1 153L31.9 151L32.6 153.2L30.1 153.5L31.8 155.6L30.1 156.6L36.2 158.5L35.5 160.3L40.7 157.4Z" stroke="#777777" stroke-miterlimit="10" stroke-linejoin="round"/>
<path d="M38.5 151.2L42.1 161.4" stroke="#777777" stroke-miterlimit="10" stroke-linecap="round" stroke-linejoin="round"/>
<path d="M101.6 158L115 161.4" stroke="#777777" stroke-miterlimit="10"/>
<path d="M100.8 161.4L114.1 164.8" stroke="#777777" stroke-miterlimit="10"/>
<path d="M93.5 207.2C93.5 207.2 96.9 199.7 93.6 188.7" stroke="#777777" stroke-width="2" stroke-miterlimit="10"/>
<path d="M106.3 203.3C106.3 203.3 98.8 199.1 95.5 188.1" stroke="#777777" stroke-miterlimit="10"/>
<path d="M91.6 207.8L97.8 205.8" stroke="#777777" stroke-width="2" stroke-miterlimit="10"/>
<path d="M101.7 204.7L107.9 202.8" stroke="#777777" stroke-width="2" stroke-miterlimit="10"/>
<path d="M96.5 206.3C95.9 204.5 96.9 202.5 98.7 202C100.5 201.5 102.4 202.5 103 204.3" stroke="#777777" stroke-miterlimit="10"/>
<path d="M93.4 188.7L92 186.8L93.4 184.9L95.7 185.7L95.6 188L93.4 188.7Z" stroke="#777777" stroke-miterlimit="10"/>
<path d="M93.5 185L92.9 183.1" stroke="#777777" stroke-width="2" stroke-miterlimit="10"/>
<path d="M93.5 196.1L99.6 194.3" stroke="#777777" stroke-miterlimit="10"/>
<path d="M92.9 201.4L103 198.4" stroke="#777777" stroke-width="2" stroke-miterlimit="10"/>
<path d="M115.1 184.8C113.2 183.5 111.5 182.1 109.9 180.5C109.1 179.7 108.2 178.8 107.9 177.7C107.6 176.6 108 175.1 109.1 174.7C109.6 174.5 110.2 174.5 110.7 174.7C112 175.1 113 176.1 113.4 177.4C113.4 176.9 113.8 176.5 114.2 176.2C115.4 175.4 116.8 175.1 118.2 175.3C119.3 175.5 120.4 176.2 120.5 177.2C120.6 177.9 120.1 178.6 119.7 179.2C118.9 180.1 117.9 180.9 117 181.7C116 182.5 115.3 183.6 115.1 184.8Z" stroke="#777777" stroke-miterlimit="10" stroke-linejoin="round"/>
<path d="M83 129V126.6C83 122.4 81.4 118.1 69.5 118.1C57.6 118.1 56 122.4 56 126.6V129H53V126.6C53 114.6 65.3 114.6 70 114.6C74.7 114.6 87 114.6 87 126.6V129H83Z" fill="#C1C1C0"/>
<path d="M54.6 129H42.8C42.5 129 42 129.3 42 129.6V132H55V129.6C55 129.3 54.9 129 54.6 129Z" fill="white"/>
<path d="M83 129V126.6C83 122.4 81.4 118.1 69.5 118.1C57.6 118.1 56 122.4 56 126.6V129H53V126.6C53 114.6 65.3 114.6 70 114.6C74.7 114.6 87 114.6 87 126.6V129H83Z" stroke="#777777" stroke-miterlimit="10"/>
<path d="M94.8 129H83C82.7 129 83 129.3 83 129.6V132H95V129.6C95 129.3 95.1 129 94.8 129Z" fill="white"/>
<path d="M94.8 129H83C82.7 129 83 129.3 83 129.6V132H95V129.6C95 129.3 95.1 129 94.8 129Z" stroke="#777777" stroke-miterlimit="10"/>
<path d="M97.8 129H86C85.7 129 85 129.3 85 129.6V132H98V129.6C98 129.3 98.1 129 97.8 129Z" fill="white"/>
<path d="M97.8 129H86C85.7 129 85 129.3 85 129.6V132H98V129.6C98 129.3 98.1 129 97.8 129Z" stroke="#777777" stroke-width="2" stroke-miterlimit="10"/>
<path d="M54.6 129H42.8C42.5 129 42 129.3 42 129.6V132H55V129.6C55 129.3 54.9 129 54.6 129Z" stroke="#777777" stroke-miterlimit="10"/>
<path d="M30.9 186L25.7 179.9L29.8 173.1L37.6 174.9L38.3 182.8L30.9 186Z" fill="white"/>
<path d="M57.6 129H45.8C45.5 129 45 129.3 45 129.6V132H58V129.6C58 129.3 57.9 129 57.6 129Z" fill="white"/>
<path d="M30.9 186L25.7 179.9L29.8 173.1L37.6 174.9L38.3 182.8L30.9 186Z" stroke="#777777" stroke-miterlimit="10" stroke-linejoin="round"/>
<path d="M57.6 129H45.8C45.5 129 45 129.3 45 129.6V132H58V129.6C58 129.3 57.9 129 57.6 129Z" stroke="#777777" stroke-miterlimit="10"/>
<path d="M34.6 182.1L42 173.7L45.6 184.4L34.6 182.1Z" fill="#E2E2E2"/>
<path d="M34.6 182.1L42 173.7L45.6 184.4L34.6 182.1Z" stroke="#777777" stroke-miterlimit="10" stroke-linejoin="round"/>
<path d="M10 162H20" stroke="#777777" stroke-miterlimit="10"/>
<path d="M10 167H20" stroke="#777777" stroke-miterlimit="10"/>
<path d="M10 172H20" stroke="#777777" stroke-miterlimit="10"/>
<path d="M10 177H20" stroke="#777777" stroke-miterlimit="10"/>
<path d="M10 182H20" stroke="#777777" stroke-miterlimit="10"/>
<path d="M177 301C155.3 301 137.7 283.7 137.7 262C137.7 240.3 155.4 223 177 223H188V301H177Z" fill="#94C9FA"/>
<path d="M177 301C155.3 301 137.7 283.7 137.7 262C137.7 240.3 155.4 223 177 223H185V301H177Z" stroke="#676767" stroke-miterlimit="10"/>
<path d="M185 301.3C206.705 301.3 224.3 283.705 224.3 262C224.3 240.295 206.705 222.7 185 222.7C163.295 222.7 145.7 240.295 145.7 262C145.7 283.705 163.295 301.3 185 301.3Z" fill="#C1C1C0"/>
<path d="M185 301.3C206.705 301.3 224.3 283.705 224.3 262C224.3 240.295 206.705 222.7 185 222.7C163.295 222.7 145.7 240.295 145.7 262C145.7 283.705 163.295 301.3 185 301.3Z" stroke="#676767" stroke-miterlimit="10"/>
<path d="M185 292.2C201.679 292.2 215.2 278.679 215.2 262C215.2 245.321 201.679 231.8 185 231.8C168.321 231.8 154.8 245.321 154.8 262C154.8 278.679 168.321 292.2 185 292.2Z" fill="white"/>
<path d="M185 293.3C202.287 293.3 216.3 279.287 216.3 262C216.3 244.713 202.287 230.7 185 230.7C167.713 230.7 153.7 244.713 153.7 262C153.7 279.287 167.713 293.3 185 293.3Z" stroke="#676767" stroke-miterlimit="10"/>
<path d="M181 223V211" stroke="#676767" stroke-width="2" stroke-miterlimit="10"/>
<path d="M185 257.8C186.1 257.8 187.2 258.2 188 259.1C189.7 260.8 189.7 263.5 188 265.1C185.4 267.7 174.8 275.3 170.7 276.4C171.1 275.1 172.3 272.5 175.2 268.1C177.9 264.1 180.9 260.2 182 259.1C182.7 258.2 183.8 257.8 185 257.8ZM185 255.8C183.4 255.8 181.8 256.4 180.6 257.6C178.2 260 166.5 275.7 169 278.1C169.2 278.3 169.6 278.4 170 278.4C174.3 278.4 187.3 268.6 189.5 266.4C191.9 264 191.9 260 189.5 257.5C188.2 256.4 186.6 255.8 185 255.8Z" fill="#676767"/>
<path d="M180.6 217.1C187.227 217.1 192.6 211.727 192.6 205.1C192.6 198.473 187.227 193.1 180.6 193.1C173.973 193.1 168.6 198.473 168.6 205.1C168.6 211.727 173.973 217.1 180.6 217.1Z" stroke="#676767" stroke-width="2" stroke-miterlimit="10"/>
<path d="M189.4 266.5C187 268.9 183 268.9 180.5 266.5C178.1 264.1 178.1 260.1 180.5 257.6C182.9 255.1 198.6 243.5 201 246C203.5 248.4 191.8 264 189.4 266.5Z" fill="#676767"/>
<path d="M185 264.9C186.602 264.9 187.9 263.602 187.9 262C187.9 260.398 186.602 259.1 185 259.1C183.398 259.1 182.1 260.398 182.1 262C182.1 263.602 183.398 264.9 185 264.9Z" fill="white"/>
<path d="M185 231V238" stroke="#676767" stroke-width="2" stroke-miterlimit="10"/>
<path d="M185 286V293" stroke="#676767" stroke-width="2" stroke-miterlimit="10"/>
<path d="M154 262H161" stroke="#676767" stroke-width="2" stroke-miterlimit="10"/>
<path d="M209 262H216" stroke="#676767" stroke-width="2" stroke-miterlimit="10"/>
<g clip-path="url(#clip0_390_405)">
<path d="M319.897 203.942L259.06 240.352C257.172 241.481 254.874 241.342 253.693 239.368L210.145 166.604C209.016 164.716 209.927 162.539 211.815 161.409L272.652 125L319.897 203.942Z" fill="#2771B5"/>
<path d="M319.897 203.942L259.06 240.352C257.172 241.481 254.874 241.342 253.693 239.368L210.145 166.604C209.016 164.716 209.927 162.539 211.815 161.409L272.652 125L319.897 203.942Z" stroke="#6A6666" stroke-width="2" stroke-miterlimit="10"/>
<path d="M321.613 202.915L262.578 238.246C260.69 239.376 258.306 239.287 257.125 237.314L213.578 164.549C212.448 162.662 213.445 160.433 215.333 159.304L274.368 123.973L321.613 202.915Z" fill="#94C9FA"/>
<path d="M321.613 202.915L262.578 238.246C260.69 239.376 258.306 239.287 257.125 237.314L213.578 164.549C212.448 162.662 213.445 160.433 215.333 159.304L274.368 123.973L321.613 202.915Z" stroke="#6A6666" stroke-miterlimit="10"/>
<path d="M271.446 190.751C281.635 184.653 284.951 171.45 278.854 161.261C272.756 151.073 259.553 147.756 249.364 153.854C239.175 159.952 235.859 173.154 241.957 183.343C248.054 193.532 261.257 196.849 271.446 190.751Z" stroke="#6A6666" stroke-miterlimit="10"/>
<path d="M249.64 152.757L272.235 190.512" stroke="#6A6666" stroke-miterlimit="10"/>
<path d="M254.838 151.51C254.838 151.51 264.455 155.311 270.874 166.037C277.293 176.763 276.802 186.264 276.802 186.264" stroke="#6A6666" stroke-miterlimit="10"/>
<path d="M245.571 157.057C245.571 157.057 244.376 167.328 250.795 178.054C257.214 188.78 265.819 192.837 265.819 192.837" stroke="#6A6666" stroke-miterlimit="10"/>
<path d="M241.202 183.445L278.957 160.85" stroke="#6A6666" stroke-miterlimit="10"/>
<path d="M238.641 173.324L271.248 153.81" stroke="#6A6666" stroke-miterlimit="10"/>
<path d="M248.911 190.485L281.518 170.971" stroke="#6A6666" stroke-miterlimit="10"/>
<path d="M259.689 214.336L298.302 191.227" stroke="#6A6666" stroke-miterlimit="10"/>
</g>
<path d="M165.3 111.6C166 114.7 164.1 117.8 161 118.5L138.6 123.8L127.7 77.5L150.1 72.2C153.2 71.5 156.3 73.4 157 76.5C156.3 73.4 158.2 70.3 161.3 69.6L231.4 53.2L242.2 99.5L172.2 115.9C169.1 116.6 166 114.7 165.3 111.6Z" fill="white"/>
<path d="M161.4 69.6C158.3 70.3 156.4 73.4 157.1 76.5C156.4 73.4 153.3 71.5 150.2 72.2L127.7 77.5L129.7 85.9L233.4 61.6L231.4 53.2L161.4 69.6Z" fill="#94C9FA"/>
<path d="M165.3 111.6C166 114.7 164.1 117.8 161 118.5L138.6 123.8L127.7 77.5L150.1 72.2C153.2 71.5 156.3 73.4 157 76.5C156.3 73.4 158.2 70.3 161.3 69.6L231.4 53.2L242.2 99.5L172.2 115.9C169.1 116.6 166 114.7 165.3 111.6Z" stroke="#676767" stroke-miterlimit="10"/>
<path d="M236.114 92.0289L170.201 107.485L171.183 111.671L237.096 96.2154L236.114 92.0289Z" fill="#53AF80"/>
<path d="M158.965 110.132L140.759 114.402L141.741 118.588L159.947 114.319L158.965 110.132Z" fill="#2771B5"/>
<path d="M160.5 106.2C160.5 109.4 157.9 112 154.7 112H132V65H154.8C158 65 160.6 67.6 160.6 70.8C160.6 67.6 163.2 65 166.4 65H238V112H166.3C163.1 112 160.5 109.4 160.5 106.2Z" fill="white"/>
<path d="M166.3 65C163.1 65 160.5 67.6 160.5 70.8C160.5 67.6 157.9 65 154.7 65H132V73H238V65H166.3Z" fill="#94C9FA"/>
<path d="M160 106.6C160 109.8 157.9 112 154.8 112H132V65H154.8C158 65 160 67 160 70.2C160 67 163.1 65 166.3 65H238V112H166.3C163.1 112 160 109.8 160 106.6Z" stroke="#676767" stroke-miterlimit="10"/>
<path d="M160 73V104" stroke="#676767" stroke-miterlimit="10" stroke-linecap="square" stroke-linejoin="round" stroke-dasharray="3 4"/>
<path d="M234 104H166V108H234V104Z" fill="#2771B5"/>
<path d="M155 104H136V108H155V104Z" fill="#2771B5"/>
<path d="M139 80H154" stroke="#676767" stroke-width="2" stroke-miterlimit="10"/>
<path d="M139 84H154" stroke="#676767" stroke-width="2" stroke-miterlimit="10"/>
<path d="M139 88H146" stroke="#676767" stroke-width="2" stroke-miterlimit="10"/>
<path d="M193 80H230" stroke="#676767" stroke-width="2" stroke-miterlimit="10"/>
<path d="M193 84H230" stroke="#676767" stroke-width="2" stroke-miterlimit="10"/>
<path d="M193 88H215" stroke="#676767" stroke-width="2" stroke-miterlimit="10"/>
<path d="M166 100H182" stroke="#676767" stroke-width="2" stroke-miterlimit="10"/>
<path d="M198 100H208" stroke="#676767" stroke-width="2" stroke-miterlimit="10"/>
<path d="M219 100H234" stroke="#676767" stroke-width="2" stroke-miterlimit="10"/>
<path d="M171.9 87.9L182.9 76.9" stroke="#676767" stroke-miterlimit="10"/>
<path d="M180 80V88H178.9L176 84.9" stroke="#676767" stroke-miterlimit="10"/>
<path d="M181 80H172V81L175.6 84.5" stroke="#676767" stroke-miterlimit="10"/>
<path d="M172 88V92" stroke="#676767" stroke-miterlimit="10"/>
<path d="M172 88H168" stroke="#676767" stroke-miterlimit="10"/>
<ellipse cx="57" cy="271.5" rx="28" ry="25.5" fill="#D9D9D9"/>
</g>
<defs>
<filter id="filter0_d_390_405" x="0" y="0" width="353.565" height="318" filterUnits="userSpaceOnUse" color-interpolation-filters="sRGB">
<feFlood flood-opacity="0" result="BackgroundImageFix"/>
<feColorMatrix in="SourceAlpha" type="matrix" values="0 0 0 0 0 0 0 0 0 0 0 0 0 0 0 0 0 0 127 0" result="hardAlpha"/>
<feOffset dy="4"/>
<feGaussianBlur stdDeviation="2"/>
<feComposite in2="hardAlpha" operator="out"/>
<feColorMatrix type="matrix" values="0 0 0 0 0 0 0 0 0 0 0 0 0 0 0 0 0 0 0.25 0"/>
<feBlend mode="normal" in2="BackgroundImageFix" result="effect1_dropShadow_390_405"/>
<feBlend mode="normal" in="SourceGraphic" in2="effect1_dropShadow_390_405" result="shape"/>
</filter>
<clipPath id="clip0_390_405">
<rect width="128" height="128" fill="white" transform="translate(174 160.732) rotate(-30.8993)"/>
</clipPath>
</defs>
</svg>
