<svg width="52" height="52" viewBox="0 0 52 52" fill="none" xmlns="http://www.w3.org/2000/svg">
<path d="M17.8344 47.9375H50.375V6.50002H17.8344L9.87187 3.08752L2.03125 6.50002V47.9781L9.87187 44.525L17.8344 47.9375Z" fill="white"/>
<path d="M9.75 3.08752V44.525L17.875 47.9781V6.50002L9.75 3.08752Z" fill="#E2E2E2"/>
<path d="M2.03125 16.25C2.03125 16.6563 2.80313 16.25 2.80313 16.25C2.80313 16.25 3.37187 15.8844 3.85938 15.3156C4.34687 14.7469 4.34688 15.1125 4.7125 14.7469C5.07813 14.3813 5.07812 14.1781 5.56562 13.8125C6.05312 13.4063 6.21563 13.3656 6.9875 13.0406C7.75938 12.7563 7.475 12.4719 8.04375 12.0656C8.6125 11.6594 9.1 12.7563 9.83125 12.9594C10.6031 13.1625 10.4 13.4469 10.9281 13.8125C11.4563 14.1781 12.2688 14.0969 12.8781 14.2188C13.4469 14.3 14.5844 15.275 15.275 15.3563C15.9656 15.4375 17.1844 14.5844 17.8344 14.1375C18.4844 13.6906 19.5406 11.9438 19.6219 11.4563C19.6219 11.4563 20.9625 9.18127 21.125 8.81565L22.3438 6.54065H18.9312L18.5656 8.81565C18.3625 9.18127 17.7937 11.0094 17.7937 11.0094C17.7937 11.0094 16.9406 11.8625 16.575 12.0656C16.2094 12.2688 15.5187 12.7156 14.6656 12.9188C13.8125 13.1219 13.4469 12.6344 12.9594 12.4313C12.4719 12.2281 11.5375 11.4969 10.9281 11.2125C10.3187 10.9281 9.83125 10.1563 9.83125 9.79065C9.83125 9.42502 8.775 9.42502 8.40938 9.46565C8.04375 9.50627 7.35313 9.99377 6.9875 10.2781C6.62188 10.5625 5.48438 10.8469 5.2 11.1313C4.875 11.3344 3.77813 12.5938 3.49375 13.325C3.20938 14.0563 2.03125 13.8125 2.03125 13.325C2.03125 12.8375 2.03125 16.25 2.03125 16.25Z" fill="#C1C1C0"/>
<path d="M2.80313 29.575C3.7375 29.25 5.64688 31.8094 6.41875 32.3781C7.19063 32.9469 9.83125 35.9125 9.83125 35.9125C9.83125 35.9125 11.3344 35.9937 12.1063 37.2531C12.8781 38.4719 15.3563 37.5375 15.925 37.8219C16.4938 38.1062 17.8344 39.6094 17.8344 39.6094C17.8344 39.6094 20.6781 36.7656 22.0188 35.9125C23.3594 35.0594 23.9281 34.6937 24.8625 34.4094C25.7969 34.125 28.8438 33.9219 29.6156 34.4094C30.3875 34.8969 33.4344 35.2625 34.0031 34.5719C34.5719 33.9219 37.9844 35.2219 39.4063 35.7906C40.8281 36.3594 41.6 37.1313 42.1688 37.7812C42.7375 38.4719 49.1156 41.8438 49.1156 41.8438C49.5625 42.0875 50.375 43.3469 50.375 43.3469C50.375 43.3469 50.375 36.7656 50.375 36.4813C50.375 36.1969 49.6031 35.9938 49.1156 35.7094C49.1156 35.7094 46.8813 33.4344 45.7438 32.6625C44.6063 31.8906 43.6719 30.55 42.3313 29.4937C40.9906 28.3969 38.7156 29.4531 36.4406 29.4937C34.1656 29.5344 32.6219 28.8844 31.3219 26.5281C29.9813 24.1719 29.6156 23.9281 29.6156 22.2219C29.6156 20.5156 30.7531 19.5406 31.7281 17.9156C32.7031 16.2906 32.2969 15.9656 32.5 13.9344C32.7031 11.9031 34.7344 9.34375 34.7344 9.34375C35.2219 8.69375 37.8625 6.5 37.8625 6.5H27.2594L27.1375 8.775C27.1375 9.9125 26.3656 14.7469 25.7969 15.8438C25.2281 16.9406 24.4563 16.4938 24.6594 18.6469C24.8625 20.8 25.3906 21.2469 25.8781 23.2781C26.3656 25.3094 26.7313 26.8531 27.1375 27.625C27.5438 28.3969 26.9344 30.1437 27.1375 30.5094C27.3406 30.875 26.2844 31.8094 25.9594 32.3781C25.6344 32.9469 21.8969 33.3125 22.0188 33.8C22.1 34.2875 20.3938 35.7094 20.0281 35.7906C19.6625 35.8719 17.8344 37.0094 17.8344 37.0094C17.8344 37.0094 16.9813 36.5219 16.4938 36.3594C16.0063 36.1969 15.8438 36.1562 15.3563 36.4406C14.8688 36.725 14.95 36.8469 14.2188 36.5625C13.4469 36.2781 13.4469 36.5625 12.8781 35.7906C12.3094 35.0187 11.8219 35.1813 11.375 34.8969C10.9281 34.6125 10.8063 34.2469 10.3188 34.2469C9.83125 34.2469 8.40938 32.3375 8.04375 31.9719C7.67813 31.6062 5.56563 29.2906 5.07813 29.1281C4.59063 28.9656 4.14375 28.8438 3.7375 28.6406C3.33125 28.4375 1.95 28.1531 1.95 28.1531C1.95 28.1531 1.82813 29.9 2.80313 29.575Z" fill="#C1C1C0"/>
<path d="M17.8344 47.9375H50.375V6.50002H17.8344L9.87187 3.08752L2.03125 6.50002V47.9782L9.87187 44.525L17.8344 47.9375Z" stroke="#5C5C5C" stroke-miterlimit="10" stroke-linecap="round" stroke-linejoin="round"/>
<path d="M9.75 5.6875V43.4688" stroke="#3D3D3D" stroke-miterlimit="10" stroke-linecap="square" stroke-linejoin="round" stroke-dasharray="5 5"/>
<path d="M17.875 8.9375V46.3125" stroke="#3D3D3D" stroke-miterlimit="10" stroke-linecap="square" stroke-linejoin="round" stroke-dasharray="5 5"/>
<path d="M36.1969 7.92188C36.1969 7.92188 32.6625 10.9688 32.4594 13.975C32.3375 16.0063 32.6625 16.2906 31.6875 17.9563C30.7125 19.6219 29.575 20.5562 29.575 22.2625C29.575 23.9687 29.9406 24.2125 31.2813 26.5688C32.6219 28.925 34.125 29.6156 36.4 29.5344C38.675 29.4937 40.95 28.4375 42.2906 29.5344C43.6313 30.6312 44.5656 31.9313 45.7031 32.7031C46.8406 33.475 49.1156 35.75 49.1156 35.75" stroke="#3D3D3D" stroke-miterlimit="10" stroke-linecap="round" stroke-linejoin="round"/>
<path d="M49.1969 41.8844C49.1969 41.8844 42.7375 38.4719 42.1688 37.8219C41.6 37.1312 40.8281 36.4 39.4063 35.8312C37.9844 35.2625 34.5719 33.9219 34.0031 34.6125C33.4344 35.2625 30.3875 34.8969 29.6156 34.45C28.8438 33.9625 25.7969 34.1656 24.8625 34.45C23.9281 34.7344 23.3594 35.1 22.0188 35.9531C20.6781 36.8062 17.8344 39.65 17.8344 39.65C17.8344 39.65 16.4938 38.1469 15.925 37.8625C15.3563 37.5781 12.8781 38.5125 12.1063 37.2937C11.3344 36.075 9.83126 35.9531 9.83126 35.9531C9.83126 35.9531 7.15001 32.9875 6.41876 32.4187C5.68751 31.85 3.73751 29.25 2.80313 29.575" stroke="#3D3D3D" stroke-width="2" stroke-miterlimit="10" stroke-linecap="round" stroke-linejoin="round"/>
<path d="M27.1781 7.92188C27.1781 9.05937 26.3656 14.7063 25.7969 15.8438C25.2281 16.9406 24.4562 16.4938 24.6594 18.6469C24.8625 20.8 25.3906 21.2469 25.8781 23.2781C26.3656 25.3094 26.7312 26.8531 27.1375 27.625C27.5437 28.3969 26.9344 30.1437 27.1375 30.5094C27.3406 30.875 26.2844 31.8094 25.9594 32.3781C25.6344 32.9469 21.8969 33.3125 22.0187 33.8C22.1 34.2875 20.3937 35.7094 20.0281 35.7906C19.6625 35.8719 17.8344 37.0094 17.8344 37.0094C17.8344 37.0094 16.9812 36.5219 16.4937 36.3594C16.0062 36.1969 15.8437 36.1562 15.3562 36.4406C14.8687 36.725 14.9906 36.8063 14.2187 36.5219C13.4469 36.2375 13.4469 36.5219 12.8781 35.75C12.3094 34.9781 11.8219 35.1406 11.375 34.8563C10.9281 34.5719 10.8062 34.2062 10.3187 34.2062C9.83124 34.2062 8.40936 32.2969 8.04374 31.9312C7.67811 31.5656 5.56561 29.25 5.07811 29.0875C4.59061 28.925 4.14374 28.8031 3.73749 28.6" stroke="#3D3D3D" stroke-miterlimit="10" stroke-linecap="round" stroke-linejoin="round"/>
<path d="M3.37189 13.325C3.65626 12.5937 4.87501 11.3344 5.15939 11.05C5.44376 10.7656 6.58126 10.4812 6.94689 10.1969C7.31251 9.91248 8.00314 9.42498 8.36876 9.38435C8.73439 9.34373 9.79064 9.34373 9.79064 9.70935C9.79064 10.075 10.3188 10.8469 10.8875 11.1312C11.4969 11.4156 12.4313 12.1875 12.9188 12.35C13.4063 12.5531 13.7719 13 14.625 12.8375C15.4781 12.6344 16.1281 12.1875 16.5344 11.9844C16.9406 11.7812 17.7531 10.9281 17.7531 10.9281C17.7531 10.9281 18.4438 8.28748 18.6469 7.88123" stroke="#3D3D3D" stroke-width="2" stroke-miterlimit="10" stroke-linecap="round" stroke-linejoin="round"/>
<path d="M21.6125 7.92188C21.4094 8.2875 19.6219 11.4156 19.6219 11.4156C19.5406 11.9031 18.4844 13.6094 17.8344 14.0969C17.1844 14.5844 15.925 15.4375 15.275 15.3156C14.625 15.2344 13.4875 14.2594 12.8781 14.1781C12.3094 14.0969 11.4969 14.1781 10.9281 13.7719C10.4 13.4063 10.5625 13.1219 9.83126 12.9187C9.05938 12.7156 8.61251 11.5781 8.04376 12.025C7.47501 12.4313 7.75938 12.7156 6.98751 13C6.21563 13.2844 6.01251 13.4062 5.56563 13.8125C5.07813 14.2188 5.07813 14.3813 4.71251 14.7875C4.34688 15.1531 4.34688 14.7875 3.85938 15.3562C3.37188 15.925 2.80313 16.2906 2.80313 16.2906" stroke="#3D3D3D" stroke-miterlimit="10" stroke-linecap="round" stroke-linejoin="round"/>
<path d="M46.3531 24.375C46.3531 24.9844 45.825 25.4719 45.2156 25.4719C44.5656 25.4719 44.0781 24.9844 44.0781 24.375C44.0781 23.7656 44.6063 21.7344 45.2156 21.7344C45.8656 21.7344 46.3531 23.7656 46.3531 24.375Z" fill="#53AF80"/>
<path d="M46.3531 24.375C46.3531 24.9844 45.825 25.4719 45.2156 25.4719C44.5656 25.4719 44.0781 24.9844 44.0781 24.375C44.0781 23.7656 44.6063 21.7344 45.2156 21.7344C45.8656 21.7344 46.3531 23.7656 46.3531 24.375Z" stroke="#3D3D3D" stroke-miterlimit="10" stroke-linecap="round" stroke-linejoin="round"/>
<path d="M45.0938 24.375V26.4062" stroke="#3D3D3D" stroke-miterlimit="10" stroke-linecap="round" stroke-linejoin="round"/>
<path d="M42.5344 24.0094C42.5344 24.6188 42.0062 25.1063 41.3969 25.1063C40.7875 25.1063 40.2594 24.6188 40.2594 24.0094C40.2594 23.4 40.7875 21.3688 41.3969 21.3688C42.0062 21.3688 42.5344 23.4 42.5344 24.0094Z" fill="#53AF80"/>
<path d="M42.5344 24.0094C42.5344 24.6188 42.0062 25.1063 41.3969 25.1063C40.7875 25.1063 40.2594 24.6188 40.2594 24.0094C40.2594 23.4 40.7875 21.3688 41.3969 21.3688C42.0062 21.3688 42.5344 23.4 42.5344 24.0094Z" stroke="#3D3D3D" stroke-miterlimit="10" stroke-linecap="round" stroke-linejoin="round"/>
<path d="M41.4375 23.9688V26" stroke="#3D3D3D" stroke-miterlimit="10" stroke-linecap="round" stroke-linejoin="round"/>
<path d="M44.85 19.0531C44.85 19.6625 44.3219 20.15 43.7125 20.15C43.0625 20.15 42.575 19.6625 42.575 19.0531C42.575 18.4437 43.1031 16.4125 43.7125 16.4125C44.3219 16.4125 44.85 18.4437 44.85 19.0531Z" fill="#53AF80"/>
<path d="M44.85 19.0531C44.85 19.6625 44.3219 20.15 43.7125 20.15C43.0625 20.15 42.575 19.6625 42.575 19.0531C42.575 18.4437 43.1031 16.4125 43.7125 16.4125C44.3219 16.4125 44.85 18.4437 44.85 19.0531Z" stroke="#3D3D3D" stroke-miterlimit="10" stroke-linecap="round" stroke-linejoin="round"/>
<path d="M43.875 19.0938V21.125" stroke="#3D3D3D" stroke-miterlimit="10" stroke-linecap="round" stroke-linejoin="round"/>
<path d="M38.7563 43.7937C38.7563 44.4031 38.2281 44.8906 37.6188 44.8906C36.9688 44.8906 36.4813 44.4031 36.4813 43.7937C36.4813 43.1843 37.0094 41.1531 37.6188 41.1531C38.2281 41.1531 38.7563 43.1843 38.7563 43.7937Z" fill="#53AF80"/>
<path d="M38.7563 43.7937C38.7563 44.4031 38.2281 44.8906 37.6188 44.8906C36.9688 44.8906 36.4813 44.4031 36.4813 43.7937C36.4813 43.1843 37.0094 41.1531 37.6188 41.1531C38.2281 41.1531 38.7563 43.1843 38.7563 43.7937Z" stroke="#3D3D3D" stroke-miterlimit="10" stroke-linecap="round" stroke-linejoin="round"/>
<path d="M37.7812 43.875V45.5" stroke="#3D3D3D" stroke-miterlimit="10" stroke-linecap="round" stroke-linejoin="round"/>
<path d="M31.525 41.4781C31.525 42.0875 30.9969 42.575 30.3875 42.575C29.7781 42.575 29.25 42.0875 29.25 41.4781C29.25 40.8688 29.7781 38.8375 30.3875 38.8375C30.9969 38.8375 31.525 40.8688 31.525 41.4781Z" fill="#53AF80"/>
<path d="M31.525 41.4781C31.525 42.0875 30.9969 42.575 30.3875 42.575C29.7781 42.575 29.25 42.0875 29.25 41.4781C29.25 40.8688 29.7781 38.8375 30.3875 38.8375C30.9969 38.8375 31.525 40.8688 31.525 41.4781Z" stroke="#3D3D3D" stroke-miterlimit="10" stroke-linecap="round" stroke-linejoin="round"/>
<path d="M30.4688 41.4375V43.4688" stroke="#3D3D3D" stroke-miterlimit="10" stroke-linecap="round" stroke-linejoin="round"/>
<path d="M24.6594 28.5593C24.6594 29.1687 24.1312 29.6562 23.5219 29.6562C22.9125 29.6562 22.3844 29.1687 22.3844 28.5593C22.3844 27.95 22.9125 25.9187 23.5219 25.9187C24.1312 25.9187 24.6594 27.95 24.6594 28.5593Z" fill="#53AF80"/>
<path d="M24.6594 28.5593C24.6594 29.1687 24.1312 29.6562 23.5219 29.6562C22.9125 29.6562 22.3844 29.1687 22.3844 28.5593C22.3844 27.95 22.9125 25.9187 23.5219 25.9187C24.1312 25.9187 24.6594 27.95 24.6594 28.5593Z" stroke="#3D3D3D" stroke-miterlimit="10" stroke-linecap="round" stroke-linejoin="round"/>
<path d="M23.5625 28.4375V30.4688" stroke="#3D3D3D" stroke-miterlimit="10" stroke-linecap="round" stroke-linejoin="round"/>
<path d="M24.6594 12.5938C24.6594 13.2031 24.1312 13.6906 23.5219 13.6906C22.9125 13.6906 22.3844 13.2031 22.3844 12.5938C22.3844 11.9844 22.9125 9.95312 23.5219 9.95312C24.1312 9.95312 24.6594 11.9844 24.6594 12.5938Z" fill="#53AF80"/>
<path d="M24.6594 12.5938C24.6594 13.2031 24.1312 13.6906 23.5219 13.6906C22.9125 13.6906 22.3844 13.2031 22.3844 12.5938C22.3844 11.9844 22.9125 9.95312 23.5219 9.95312C24.1312 9.95312 24.6594 11.9844 24.6594 12.5938Z" stroke="#3D3D3D" stroke-miterlimit="10" stroke-linecap="round" stroke-linejoin="round"/>
<path d="M23.5625 12.5938V14.625" stroke="#3D3D3D" stroke-miterlimit="10" stroke-linecap="round" stroke-linejoin="round"/>
<path d="M14.0969 32.3782C14.0969 32.9875 13.7312 33.4751 13.2437 33.4751C12.7562 33.4751 12.3906 32.9875 12.3906 32.3782C12.3906 31.7688 12.7562 29.7375 13.2437 29.7375C13.7312 29.7375 14.0969 31.7688 14.0969 32.3782Z" fill="#53AF80"/>
<path d="M14.0969 32.3782C14.0969 32.9875 13.7312 33.4751 13.2437 33.4751C12.7562 33.4751 12.3906 32.9875 12.3906 32.3782C12.3906 31.7688 12.7562 29.7375 13.2437 29.7375C13.7312 29.7375 14.0969 31.7688 14.0969 32.3782Z" stroke="#3D3D3D" stroke-miterlimit="10" stroke-linecap="round" stroke-linejoin="round"/>
<path d="M13.4062 32.5V34.125" stroke="#3D3D3D" stroke-miterlimit="10" stroke-linecap="round" stroke-linejoin="round"/>
<path d="M5.72813 35.7906C5.72813 36.4 5.36251 36.8875 4.87501 36.8875C4.38751 36.8875 4.02188 36.4 4.02188 35.7906C4.02188 35.1813 4.38751 33.15 4.87501 33.15C5.36251 33.15 5.72813 35.1813 5.72813 35.7906Z" fill="#53AF80"/>
<path d="M5.72813 35.7906C5.72813 36.4 5.36251 36.8875 4.87501 36.8875C4.38751 36.8875 4.02188 36.4 4.02188 35.7906C4.02188 35.1813 4.38751 33.15 4.87501 33.15C5.36251 33.15 5.72813 35.1813 5.72813 35.7906Z" stroke="#3D3D3D" stroke-miterlimit="10" stroke-linecap="round" stroke-linejoin="round"/>
<path d="M4.875 35.75V37.7812" stroke="#3D3D3D" stroke-miterlimit="10" stroke-linecap="round" stroke-linejoin="round"/>
<path d="M39.4062 8.9375H48.75" stroke="#3D3D3D" stroke-miterlimit="10"/>
<path d="M39.8125 8.9375V9.75" stroke="#3D3D3D" stroke-width="2" stroke-miterlimit="10"/>
<path d="M41.0312 8.9375V9.75" stroke="#3D3D3D" stroke-width="2" stroke-miterlimit="10"/>
<path d="M42.25 8.9375V9.75" stroke="#3D3D3D" stroke-width="2" stroke-miterlimit="10"/>
<path d="M43.4688 8.9375V9.75" stroke="#3D3D3D" stroke-width="2" stroke-miterlimit="10"/>
<path d="M44.2812 8.9375V9.75" stroke="#3D3D3D" stroke-miterlimit="10"/>
<path d="M45.5 8.9375V9.75" stroke="#3D3D3D" stroke-width="2" stroke-miterlimit="10"/>
<path d="M46.7188 8.9375V9.75" stroke="#3D3D3D" stroke-width="2" stroke-miterlimit="10"/>
<path d="M47.9375 8.9375V9.75" stroke="#3D3D3D" stroke-width="2" stroke-miterlimit="10"/>
<path d="M47.125 13.4469C47.8205 13.4469 48.3844 12.883 48.3844 12.1875C48.3844 11.4919 47.8205 10.9281 47.125 10.9281C46.4295 10.9281 45.8656 11.4919 45.8656 12.1875C45.8656 12.883 46.4295 13.4469 47.125 13.4469Z" stroke="#3D3D3D" stroke-width="2" stroke-miterlimit="10"/>
<path d="M47.125 10.9688V13.4062" stroke="#3D3D3D" stroke-width="2" stroke-miterlimit="10"/>
<path d="M45.9062 12.1875H48.3438" stroke="#3D3D3D" stroke-width="2" stroke-miterlimit="10"/>
</svg>
