<svg width="54" height="54" viewBox="0 0 54 54" fill="none" xmlns="http://www.w3.org/2000/svg">
<path d="M47.25 44.2969H8.90156C7.72031 44.2969 6.75 43.2 6.75 42.0187V23.7938C6.75 22.6125 7.72031 21.5156 8.90156 21.5156H47.25" fill="#C1C1C0"/>
<path d="M47.25 44.2969H8.90156C7.72031 44.2969 6.75 43.2 6.75 42.0187V23.7938C6.75 22.6125 7.72031 21.5156 8.90156 21.5156H47.25" stroke="#585858" stroke-miterlimit="10"/>
<path d="M50.625 42.1453C50.625 43.3266 49.6547 44.2969 48.4734 44.2969H10.5891C9.40781 44.2969 8.4375 43.3266 8.4375 42.1453V23.6672C8.4375 22.4859 9.40781 21.5156 10.5891 21.5156H48.4734C49.6547 21.5156 50.625 22.4859 50.625 23.6672V42.1453Z" fill="#E2E2E2"/>
<path d="M50.625 42.1453C50.625 43.3266 49.6547 44.2969 48.4734 44.2969H10.5891C9.40781 44.2969 8.4375 43.3266 8.4375 42.1453V23.6672C8.4375 22.4859 9.40781 21.5156 10.5891 21.5156H48.4734C49.6547 21.5156 50.625 22.4859 50.625 23.6672V42.1453Z" stroke="#585858" stroke-miterlimit="10"/>
<path d="M10.9688 25.3125H48.0938" stroke="#5C5C5C" stroke-miterlimit="10"/>
<path d="M28.6875 9.70312H13.5V25.3125H28.6875V9.70312Z" fill="#53AF80"/>
<path d="M28.6875 9.70312H13.5V25.3125H28.6875V9.70312Z" stroke="#585858" stroke-miterlimit="10"/>
<path d="M29.9531 9.70312H15.6094V25.3125H29.9531V9.70312Z" fill="#53AF80"/>
<path d="M29.9531 9.70312H15.6094V25.3125H29.9531V9.70312Z" stroke="#3D3D3D" stroke-miterlimit="10"/>
<path d="M32.4844 9.70312H17.7188V25.3125H32.4844V9.70312Z" fill="#53AF80"/>
<path d="M29.9531 11.8125H19.4062V25.3125H29.9531V11.8125Z" fill="#8DCEA8"/>
<path d="M28.7297 25.4391C29.0672 24.8485 29.2359 24.1735 29.2359 23.4563C29.2359 21.136 27.3375 19.2375 25.0172 19.2375C22.6969 19.2375 20.7984 21.136 20.7984 23.4563C20.7984 24.2157 21.0094 24.9329 21.3469 25.5235" fill="#53AF80"/>
<path d="M32.4844 9.70312H17.7188V25.3125H32.4844V9.70312Z" stroke="#585858" stroke-miterlimit="10"/>
<path d="M30.2062 15.3984C28.2234 15.3984 26.6203 13.9219 26.6203 11.8125H30.375L30.2062 15.3984Z" fill="#53AF80"/>
<path d="M23.2453 11.8125C23.2453 13.9219 21.5156 15.6094 19.4062 15.6094V11.8125H23.2453Z" fill="#53AF80"/>
<path d="M29.9531 11.8125H19.4062V25.3125H29.9531V11.8125Z" stroke="#5C5C5C" stroke-miterlimit="10"/>
<path d="M23.2453 11.9812C23.2453 13.964 21.6422 15.5671 19.6594 15.5671" stroke="#3D3D3D" stroke-miterlimit="10"/>
<path d="M26.6203 11.9812C26.6203 13.964 28.2234 15.5671 30.2062 15.5671" stroke="#5C5C5C" stroke-miterlimit="10"/>
<path d="M40.1203 31.3031C40.1203 29.7422 41.3859 28.4766 42.9469 28.4766C44.5078 28.4766 45.7734 29.7422 45.7734 31.3031" fill="#8DCEA8"/>
<path d="M40.1203 31.3031C40.1203 29.7422 41.3859 28.4766 42.9469 28.4766C44.5078 28.4766 45.7734 29.7422 45.7734 31.3031" stroke="#3D3D3D" stroke-miterlimit="10"/>
<path d="M35.9016 31.3031C35.9016 29.4469 37.4203 27.9281 39.2766 27.9281C41.1328 27.9281 42.6516 29.4469 42.6516 31.3031" fill="#8DCEA8"/>
<path d="M35.9016 31.3031C35.9016 29.4469 37.4203 27.9281 39.2766 27.9281C41.1328 27.9281 42.6516 29.4469 42.6516 31.3031" stroke="#3D3D3D" stroke-miterlimit="10"/>
<path d="M28.7297 25.4391C29.0672 24.8485 29.2359 24.1735 29.2359 23.4563C29.2359 21.136 27.3375 19.2375 25.0172 19.2375C22.6969 19.2375 20.7984 21.136 20.7984 23.4563C20.7984 24.2157 21.0094 24.9329 21.3469 25.5235" stroke="#5C5C5C" stroke-miterlimit="10"/>
<path d="M10.5469 31.6406H24.7219C25.9031 31.6406 26.5781 31.9781 26.5781 33.1594V42.1875" stroke="#585858" stroke-miterlimit="10"/>
<path d="M10.5469 36.7031H24.7219C25.9031 36.7031 26.5781 37.3359 26.5781 38.5172V42.1875" stroke="#5C5C5C" stroke-miterlimit="10"/>
<path d="M48.0938 31.6406H33.8344C32.6531 31.6406 32.0625 31.9781 32.0625 33.1594V42.1875" stroke="#737373" stroke-miterlimit="10"/>
<path d="M29.1094 26.5781V43.0312" stroke="#3D3D3D" stroke-miterlimit="10" stroke-linecap="square" stroke-linejoin="round" stroke-dasharray="3 4"/>
<path d="M4.21875 34.9734C3.16406 34.9734 2.27812 34.3406 2.27812 33.2859C2.27812 32.2312 3.0375 31.5984 4.09218 31.5984H7.59375V35.0156L4.21875 34.9734Z" fill="#E2E2E2"/>
<path d="M4.21875 34.9734C3.16406 34.9734 2.27812 34.3406 2.27812 33.2859C2.27812 32.2312 3.0375 31.5984 4.09218 31.5984H7.59375V35.0156L4.21875 34.9734Z" stroke="#737373" stroke-miterlimit="10"/>
<path d="M4.09219 33.9609C4.53488 33.9609 4.89375 33.602 4.89375 33.1594C4.89375 32.7167 4.53488 32.3578 4.09219 32.3578C3.6495 32.3578 3.29063 32.7167 3.29063 33.1594C3.29063 33.602 3.6495 33.9609 4.09219 33.9609Z" fill="#3D3D3D"/>
<path d="M45.5625 16.875H34.1719V25.3125H45.5625V16.875Z" fill="white"/>
<path d="M45.5625 16.875H34.1719V25.3125H45.5625V16.875Z" stroke="#5C5C5C" stroke-miterlimit="10"/>
<path d="M36.7031 20.6719H43.0312" stroke="#3D3D3D" stroke-width="2" stroke-miterlimit="10"/>
<path d="M36.7031 22.3594H43.0312" stroke="#3D3D3D" stroke-width="2" stroke-miterlimit="10"/>
<path d="M36.7031 24.0469H43.0312" stroke="#3D3D3D" stroke-width="2" stroke-miterlimit="10"/>
<path d="M22.4438 27.4219H15.1875C14.6812 27.4219 14.3438 27.8437 14.3438 28.35V31.6406H23.2031V28.35C23.2031 27.8437 22.95 27.4219 22.4438 27.4219Z" fill="#53AF80"/>
<path d="M22.3594 27.4219H15.1875C14.7234 27.4219 14.3438 27.8016 14.3438 28.2656V31.6406H23.2031V28.2656C23.2031 27.8016 22.8234 27.4219 22.3594 27.4219Z" stroke="#3D3D3D" stroke-miterlimit="10"/>
<path d="M18.5625 27.4219H16.0312V31.6406H18.5625V27.4219Z" fill="#3D3D3D"/>
</svg>
