<svg width="60" height="60" viewBox="0 0 60 60" fill="none" xmlns="http://www.w3.org/2000/svg">
<path d="M16.875 51.0938V8.4375H43.5938V51.0938" fill="white"/>
<path d="M43.5938 8.4375H16.875V51.0938H43.5938V8.4375Z" stroke="#3D3D3D" stroke-miterlimit="10"/>
<path d="M51.5625 8.90625H20.625V51.0938H51.5625V8.90625Z" fill="#A6BBAF"/>
<path d="M51.5625 8.4375H20.625V51.0938H51.5625V8.4375Z" stroke="#3D3D3D" stroke-miterlimit="10"/>
<path d="M53.3438 51.0938H52.0312C51.7031 51.0938 51.5625 51.1406 51.5625 50.7656V8.95313C51.5625 8.625 51.6562 8.4375 52.0312 8.4375H53.3438C54.375 8.4375 55.3125 9.1875 55.3125 10.2187V49.5C55.3125 50.5781 54.375 51.0938 53.3438 51.0938Z" fill="#53AF80"/>
<path d="M53.3438 51.0938H52.0312C51.7031 51.0938 51.5625 51.1406 51.5625 50.7656V8.95313C51.5625 8.625 51.6562 8.4375 52.0312 8.4375H53.3438C54.375 8.4375 55.3125 9.1875 55.3125 10.2187V49.5C55.3125 50.5781 54.375 51.0938 53.3438 51.0938Z" stroke="#585858" stroke-miterlimit="10"/>
<path d="M18.75 8.4375V51.0938" stroke="#3D3D3D" stroke-miterlimit="10"/>
<path d="M29.0625 8.4375H27.1875V51.5625H29.0625V8.4375Z" fill="#3D3D3D"/>
<path d="M46.0312 51.2812C46.0312 51.2812 45.7969 54.2812 47.5312 55.7812C49.2656 57.2812 51.375 57.9375 51.375 57.9375" stroke="#3D3D3D" stroke-width="2" stroke-miterlimit="10" stroke-linecap="round"/>
<path d="M46.875 15.4688H34.2188V24.8438H46.875V15.4688Z" fill="white"/>
<path d="M47.3438 15.4688H34.2188V24.8438H47.3438V15.4688Z" stroke="#5C5C5C" stroke-miterlimit="10"/>
<path d="M37.0312 17.8125H44.5312" stroke="#3D3D3D" stroke-miterlimit="10"/>
<path d="M37.0312 19.6875H44.5312" stroke="#3D3D3D" stroke-miterlimit="10"/>
<path d="M39.375 21.5625H42.1875" stroke="#3D3D3D" stroke-miterlimit="10"/>
<path d="M10.7812 15.4688H7.03125V46.875H10.7812V15.4688Z" fill="#A6BBAF"/>
<path d="M10.7812 15.4688H8.90625V46.875H10.7812V15.4688Z" fill="#53AF80"/>
<path d="M10.3125 15.4688H7.73438C7.35938 15.4688 6.98438 15.6563 6.98438 16.0313V46.875H10.7344V16.0313C10.7813 15.6563 10.6875 15.4688 10.3125 15.4688Z" stroke="#3D3D3D" stroke-miterlimit="10"/>
<path d="M9.70313 50.1562H8.4375C7.73437 50.1562 7.07812 49.4531 7.07812 48.75V46.875H10.8281V48.75C10.7812 49.4531 10.4063 50.1562 9.70313 50.1562Z" fill="white"/>
<path d="M9.375 50.1562H8.4375C7.6875 50.1562 7.03125 49.5469 7.03125 48.75V46.875H10.7812V48.75C10.7812 49.5469 10.125 50.1562 9.375 50.1562Z" stroke="#3D3D3D" stroke-miterlimit="10"/>
<path d="M7.03125 45H10.7812" stroke="#3D3D3D" stroke-miterlimit="10"/>
<path d="M7.03125 43.5938H10.7812" stroke="#3D3D3D" stroke-width="2" stroke-miterlimit="10"/>
<path d="M10.8281 16.0313L8.90625 10.2656L6.98438 16.0313" stroke="#3D3D3D" stroke-miterlimit="10" stroke-linecap="round" stroke-linejoin="round"/>
</svg>
