<svg width="75" height="75" viewBox="0 0 75 75" fill="none" xmlns="http://www.w3.org/2000/svg">
<path d="M26.543 49.5703C26.9531 51.3867 25.8398 53.2031 24.0234 53.6133L10.8984 56.7188L4.51172 29.5898L17.6367 26.4844C19.4531 26.0742 21.2695 27.1875 21.6797 29.0039C21.2695 27.1875 22.3828 25.3711 24.1992 24.9609L65.2734 15.3516L71.6016 42.4805L30.5859 52.0898C28.7695 52.5 26.9531 51.3867 26.543 49.5703Z" fill="white"/>
<path d="M24.2578 24.9609C22.4414 25.3711 21.3281 27.1875 21.7383 29.0039C21.3281 27.1875 19.5117 26.0742 17.6953 26.4844L4.51172 29.5898L5.68359 34.5117L66.4453 20.2734L65.2734 15.3516L24.2578 24.9609Z" fill="#C7CBCE"/>
<path d="M26.543 49.5703C26.9531 51.3867 25.8398 53.2031 24.0234 53.6133L10.8984 56.7187L4.51172 29.5898L17.6367 26.4844C19.4531 26.0742 21.2695 27.1875 21.6797 29.0039C21.2695 27.1875 22.3828 25.3711 24.1992 24.9609L65.2734 15.3516L71.6016 42.4805L30.5859 52.0898C28.7695 52.5 26.9531 51.3867 26.543 49.5703Z" stroke="#676767" stroke-miterlimit="10"/>
<path d="M68.0356 38.1029L29.4149 47.1591L29.9901 49.6121L68.6108 40.5559L68.0356 38.1029Z" fill="#53AF80"/>
<path d="M22.8312 48.7104L12.1634 51.2119L12.7386 53.6649L23.4064 51.1634L22.8312 48.7104Z" fill="#5B764E"/>
<path d="M23.7305 46.4062C23.7305 48.2812 22.207 49.8047 20.332 49.8047H7.03125V22.2656H20.3906C22.2656 22.2656 23.7891 23.7891 23.7891 25.6641C23.7891 23.7891 25.3125 22.2656 27.1875 22.2656H69.1406V49.8047H27.1289C25.2539 49.8047 23.7305 48.2812 23.7305 46.4062Z" fill="white"/>
<path d="M27.1289 22.2656C25.2539 22.2656 23.7305 23.7891 23.7305 25.6641C23.7305 23.7891 22.207 22.2656 20.332 22.2656H7.03125V26.9531H69.1406V22.2656H27.1289Z" fill="#C7CBCE"/>
<path d="M23.4375 46.6406C23.4375 48.5156 22.207 49.8047 20.3906 49.8047H7.03125V22.2656H20.3906C22.2656 22.2656 23.4375 23.4375 23.4375 25.3125C23.4375 23.4375 25.2539 22.2656 27.1289 22.2656H69.1406V49.8047H27.1289C25.2539 49.8047 23.4375 48.5156 23.4375 46.6406Z" stroke="#676767" stroke-miterlimit="10"/>
<path d="M23.4375 26.9531V45.1172" stroke="#676767" stroke-miterlimit="10" stroke-linecap="square" stroke-linejoin="round" stroke-dasharray="3 4"/>
<path d="M66.7969 45.1172H26.9531V47.4609H66.7969V45.1172Z" fill="#5B764E"/>
<path d="M20.5078 45.1172H9.375V47.4609H20.5078V45.1172Z" fill="#5B764E"/>
<path d="M11.1328 31.0547H19.9219" stroke="#676767" stroke-width="2" stroke-miterlimit="10"/>
<path d="M11.1328 33.3984H19.9219" stroke="#676767" stroke-width="2" stroke-miterlimit="10"/>
<path d="M11.1328 35.7422H15.2344" stroke="#676767" stroke-width="2" stroke-miterlimit="10"/>
<path d="M42.7734 31.0547H64.4531" stroke="#676767" stroke-width="2" stroke-miterlimit="10"/>
<path d="M42.7734 33.3984H64.4531" stroke="#676767" stroke-width="2" stroke-miterlimit="10"/>
<path d="M42.7734 35.7422H55.6641" stroke="#676767" stroke-width="2" stroke-miterlimit="10"/>
<path d="M26.9531 42.7734H36.3281" stroke="#676767" stroke-miterlimit="10"/>
<path d="M45.7031 42.7734H51.5625" stroke="#676767" stroke-miterlimit="10"/>
<path d="M58.0078 42.7734H66.7969" stroke="#676767" stroke-miterlimit="10"/>
<path d="M30.4102 35.6836L36.8555 29.2383" stroke="#676767" stroke-miterlimit="10"/>
<path d="M35.1562 31.0547V35.7422H34.5117L32.8125 33.9258" stroke="#676767" stroke-miterlimit="10"/>
<path d="M35.7422 31.0547H30.4688V31.6406L32.5781 33.6914" stroke="#676767" stroke-miterlimit="10"/>
<path d="M30.4688 35.7422V38.0859" stroke="#676767" stroke-miterlimit="10"/>
<path d="M30.4688 35.7422H28.125" stroke="#676767" stroke-miterlimit="10"/>
</svg>
