<svg width="164" height="137" viewBox="0 0 164 137" fill="none" xmlns="http://www.w3.org/2000/svg">
<path d="M103.599 115.839L101.68 117.448L99.4935 116.41L99.0472 113.555L100.029 112.049L102.617 111.115L104.09 111.166L104.804 112.464L103.912 113.918L103.599 115.839Z" fill="#ECECEC" stroke="black" stroke-width="0.2" stroke-linecap="round" stroke-linejoin="round"/>
<path d="M114.042 13.8752L118.059 16.2115L120.736 19.2226H124.128L125.288 17.9766L128.368 16.9902L128.948 19.9495L128.814 21.1435L130.064 24.6738L130.331 27.8927L127.252 27.3216L125.958 28.4637L128.055 31.2672L129.796 35.1609L128.68 35.2129L129.528 36.9261L127.074 34.9533V36.8223L124.217 38.224L125.467 39.9892L123.414 39.8334L121.807 38.7951L121.317 41.1832L119.576 42.9484L118.639 45.077L115.827 46.0114L114.756 47.5689L112.614 48.5034L113.194 46.9459L112.168 45.648L113.06 43.4156L111.052 41.7024L109.535 42.8446L107.928 45.1808L107.348 47.3094L105.117 47.4651L104.536 49.0226L106.679 51.255L108.821 51.8261L109.446 53.2797L111.722 54.2661L113.417 51.878L116.05 53.1759L117.612 53.2797L118.639 54.993L115.649 55.9275L115.202 57.7445L113.507 59.4059L113.105 61.7421L116.274 63.5592L118.326 66.8299L120.781 69.893L123.235 72.4369L123.95 74.9288L122.7 75.8633L123.771 77.6285L125.512 78.6668L125.869 81.3665L125.913 84.0142L124.664 84.3257L123.726 87.9079L122.7 92.3208L121.183 96.2665L118.326 99.3295L115.381 102.185L112.659 102.548L111.365 104.002L110.338 102.964L109.222 104.573L106.009 106.286L103.421 106.754L103.108 110.284L101.725 110.492L100.743 108.051L101.145 106.805L97.6638 105.715L96.5927 106.286L93.9597 105.404L92.5762 104.054L92.7101 102.133L90.3448 101.51L88.9614 100.264L87.1316 102.029L84.7663 102.444L82.8027 102.393L81.5978 103.223L80.3928 103.69L81.2854 107.532L79.9465 107.428L79.5895 106.65L79.3664 105.248L77.6705 106.234L76.5102 105.611L74.502 104.365L74.859 101.614L73.2077 100.939L72.1367 97.8758L69.6375 98.4469L69.3251 94.5013L71.1995 91.6978L70.7978 88.9463L70.2177 86.4024L69.0127 85.6236L67.8078 83.6508L66.4243 83.9104L63.7021 83.3912L64.2376 81.9895L62.631 79.9128L61.2029 81.3145L59.0161 80.5358L56.6062 82.6124L54.8657 85.1044L52.9914 85.5198L51.7418 84.6372L50.4476 84.5334L48.5286 83.8065L47.3682 84.6372L46.2079 87.1292L45.5385 84.4814L44.1551 85.2083L41.2542 84.8449L38.3534 84.118L36.1221 82.6124L34.1138 81.9895L32.9981 80.3801L31.5254 79.9128L28.6692 77.7323L26.5271 76.694L25.6791 77.4727L21.8412 75.1365L19.0743 73.0599L17.6461 69.3738L19.4759 69.841L19.2081 68.1278L17.8693 66.4146L17.5123 63.7149L14.0759 59.7693L9.83627 58.4714L8.54205 55.8755L6.44457 54.3181L5.77515 53.3836L4.97183 51.5146L4.74869 50.2167L3.09748 49.4379L2.42807 49.8013L1.04462 46.6864L1.53551 45.9595L1 45.1808L2.82973 43.6233L4.2578 42.9484L6.84623 43.4156L7.11399 41.2871L9.97018 40.9237L10.4165 39.5738L13.4958 37.8087L13.585 37.0818L12.8264 35.1609L14.1205 34.3303L10.1933 28.6195L14.2544 27.3216L15.147 26.5947L14.7007 20.7282L19.5205 21.8184L20.2346 20.3129L19.1189 17.0941L20.8147 16.7826L21.6626 14.6021L22.4213 14.3425L23.894 16.6268L26.4378 18.3401L30.0973 19.5341L32.6857 22.1819L33.3105 25.9718L34.6493 27.4254L37.5501 27.9965L40.7634 28.4118L44.3336 30.4885L45.8509 30.8519L48.0823 33.863L50.1798 35.8359L52.679 35.732L57.7219 36.5108L60.5781 36.0435L63.0773 36.5108L67.2723 38.5355H70.0392L71.5119 39.5219L73.4755 37.7568L76.6887 36.6146L80.0804 36.5108L82.2672 35.3686L83.1598 33.6035L84.2308 32.4613L83.3829 31.371L82.0887 30.1251L82.3118 27.9965L83.7399 28.308L86.3729 28.9829L87.8011 27.2177L90.6572 25.9718L91.2374 23.7913L92.3531 22.8568L95.3878 22.4414L97.3514 22.8049L96.9944 21.6627L93.7811 19.3784L91.4605 18.3401L90.3448 19.5341L87.8903 19.015L86.8638 19.4303L85.6143 18.1324L85.4804 14.8617L85.2126 12.4216L88.5151 13.6676L90.4787 11.6428L89.6308 10.1892L89.5415 6.81463L90.1217 5.7763L89.006 4.01115L87.3548 3.28432L88.1134 1.67491L90.3894 1.10383L93.1564 1L96.9944 1.98641L99.672 3.12857L103.108 6.34738L104.804 7.74912L106.812 9.72194L109.579 12.8369L114.042 13.8752Z" fill="#ECECEC" stroke="black" stroke-width="0.2" stroke-linecap="round" stroke-linejoin="round"/>
<path d="M151.039 64.2859L151.753 65.4281L151.173 67.4528L149.789 66.3626L148.852 67.1413L148.896 69.0622L146.978 68.1277L146.442 66.5702L147.022 64.5455L148.539 64.9608L148.986 63.5591L151.039 64.2859Z" fill="#ECECEC" stroke="black" stroke-width="0.2" stroke-linecap="round" stroke-linejoin="round"/>
<path d="M162.017 54.3181L162.285 56.9658L163.4 58.6272L163.133 60.9634L160.723 62.5209L156.617 62.7285L154.653 66.5704L152.556 65.2724L151.485 62.7805L147.647 63.5073L145.371 65.0648L142.604 65.1686L145.906 67.6087L146.263 73.2676L145.148 74.6693L143.541 73.3714L143.14 70.3602L141.31 69.4257L139.525 67.1414L141.444 66.1031L141.935 63.9745L143.675 62.2613L144.568 59.977L148.896 58.9906L151.708 59.6655V53.747L153.984 55.3564L155.992 52.0338L156.751 50.7359L156.305 46.6864L154.029 42.9484L153.939 40.8718L156.082 40.2488L159.741 44.8693L160.991 47.5171L160.41 50.8916L162.017 54.3181Z" fill="#ECECEC" stroke="black" stroke-width="0.2" stroke-linecap="round" stroke-linejoin="round"/>
<path d="M156.706 31.0595L158.715 31.7344L159.518 30.3845L162.196 34.0706L159.339 34.9532L159.161 38.2239L154.296 35.9915L155.01 39.5737L152.467 39.6256L150.369 36.3549L150.101 33.811L152.422 33.6553L150.458 29.0866L149.655 26.5427L154.341 29.9692L156.706 31.0595Z" fill="#ECECEC" stroke="black" stroke-width="0.2" stroke-linecap="round" stroke-linejoin="round"/>
<path d="M126.226 52.2934V51.9819L127.341 52.0857L127.609 50.6321L129.216 50.4244L130.108 50.2167V49.438L133.812 53.3317L135.285 55.5122L136.802 59.354L136.579 61.1711L134.66 61.7941L133.277 63.1958L131.224 63.4554L130.287 61.6383L129.796 59.1463L127.43 55.7199L128.948 55.1488L126.226 52.2934Z" fill="#ECECEC" stroke="black" stroke-width="0.2" stroke-linecap="round" stroke-linejoin="round"/>
<path d="M131.045 116.41L132.741 117.396L133.366 116.514L133.723 117.344L133.545 118.746L134.705 121.134L134.437 123.886L133.143 124.976L133.098 127.676L133.991 130.323L135.33 130.687L136.401 130.323L139.748 132.141L139.703 133.958L140.64 134.788L140.506 136.294L138.409 134.684L137.293 132.919L136.758 134.165L134.973 132.141L132.741 132.66L131.402 131.933L131.358 130.531L132.072 129.7L131.224 128.922L131.045 130.116L129.573 128.195L128.992 126.741L128.502 123.574L129.662 124.665L129.171 119.421L129.528 116.41H131.045Z" fill="#ECECEC" stroke="black" stroke-width="0.2" stroke-linecap="round" stroke-linejoin="round"/>
<path d="M129.528 36.9262L130.153 37.4973L129.171 37.2896L128.725 38.4318L128.591 39.522L129.84 41.9102L128.992 42.637L128.859 43.2081L128.457 44.1945L127.163 44.7656L126.538 45.6481L127.118 47.0499L126.984 47.4133L128.144 47.9844L130.108 49.438V50.2168L129.216 50.4244L127.609 50.6321L127.341 52.0858L126.226 51.9819V52.2934L124.797 51.6704L124.753 52.2934L124.173 52.553L123.86 51.93L123.102 51.6185L122.254 51.0993L122.298 49.6457L122.7 49.2304L122.254 48.6593L122.075 46.8422L121.673 46.323L120.156 45.9596L118.639 45.0771L119.576 42.9485L121.316 41.1833L121.807 38.7952L123.414 39.8335L125.467 39.9893L124.217 38.2241L127.073 36.8224V34.9534L129.528 36.9262Z" fill="#ECECEC" stroke="black" stroke-width="0.2" stroke-linecap="round" stroke-linejoin="round"/>
<path d="M128.457 102.133L127.832 104.885L126.047 102.029L125.378 99.589L126.226 96.3183L127.698 93.7744L129.037 94.7608L128.992 96.7856L128.457 102.133Z" fill="#ECECEC" stroke="black" stroke-width="0.2" stroke-linecap="round" stroke-linejoin="round"/>
</svg>
