<svg width="199" height="161" viewBox="0 0 199 161" fill="none" xmlns="http://www.w3.org/2000/svg">
<path d="M176.4 75.9L177.7 80.9999H174.9V85.2L176 86.0999L173.6 87.4L173.8 89.9999L172.5 92.5999V95.2L171.5 96.5999L154.6 93.4L151.9 86.8L151.6 85.4L152.5 84.9999L152.9 86.8L157.1 85.8L161.7 85.9999L165.1 86.2L168.4 81.8L172.1 77.7L175.1 73.7L176.4 75.9V75.9Z" fill="#ECECEC" stroke="black" stroke-width="0.2" stroke-linecap="round" stroke-linejoin="round"/>
<path d="M52.2999 40.5999L56.2 49.9999L56.8999 51.5999L55.6 54.2L54.8999 58.9999L53.7 62.4L52.5 63.4999L50.5 61.4L47.7999 58.5999L43.1 49.4L42.6 49.9999L45.3999 56.7L49.2999 63.2L54.2 73.2L56.5 76.7L58.5 80.3L63.8999 87.4L62.8999 88.4999L63.2999 92.7L70.1 98.4999L71.2 99.8H49.1H27.6H5.29993L4.29993 76.0999L3 53.3L1 48.0999L2.09998 44.2L1.09998 41.4L2.79993 38.3L10 38.2L15.3999 39.9L20.8999 41.8L23.5 42.8L27.5 40.8L29.6 38.9999L34.2999 38.4L38.2 39.2L40 42.4L41.1 40.3L45.5 41.8L49.7999 42.2L52.2999 40.5999V40.5999Z" fill="#ECECEC" stroke="black" stroke-width="0.2" stroke-linecap="round" stroke-linejoin="round"/>
<path d="M103.7 2.40002L108.4 10L112.2 12L113.1 15.7L110.8 17.9L110.3 22.9L114.9 29L122 32.6L125.5 37.4L125.3 42.1H127L127.5 45.5L131 48.9L127.7 48.6L124 48L120.7 54.2L110.5 53.7L93.7 40.8L85.1 36.3L78.2999 34.5L75.2 26.7L86.2 20L87.2 12.3L86 7.60001L88.7 6L90.7999 2L92.8999 1L99.2 1.90002L101.3 3.5L103.7 2.40002V2.40002Z" fill="#ECECEC" stroke="black" stroke-width="0.2" stroke-linecap="round" stroke-linejoin="round"/>
<path d="M59.3 27.3999L59.7001 29.9999L59.1001 30.9999H59.2001L58.5001 32.9999L56.4 32.1999L55.7001 36.3999L57.2001 37.0999L55.9 37.9999L55.8 39.6999L58.3 38.8999L58.7001 41.3999L56.9 51.5999L56.2001 49.9999L52.3 40.5999L53.7001 38.4999L53.3 38.0999L54.4 35.0999L55.0001 30.2999L55.6001 28.5999H55.7001H57.5001L57.9 27.4999L59.3 27.3999V27.3999Z" fill="#ECECEC" stroke="black" stroke-width="0.2" stroke-linecap="round" stroke-linejoin="round"/>
<path d="M78.2999 34.4999L77.3999 35.4999L67 38.7L73 45.2L71.3999 46.2L70.7 48.4L66.6 49.3L65.5 51.5999L63.3999 53.5999L57.2 52.4999L56.8999 51.5999L58.7 41.4L58.2999 38.9L58.8999 36.9999L58.5 32.9999L59.2 30.9999L65.5 33.5999L75.2 26.7L78.2999 34.4999V34.4999Z" fill="#ECECEC" stroke="black" stroke-width="0.2" stroke-linecap="round" stroke-linejoin="round"/>
<path d="M127.7 48.6L129.2 51.4L128.9 52.9L131.3 57.7L127.4 57.9L125.7 54.8L120.7 54.2L124 48L127.7 48.6Z" fill="#ECECEC" stroke="black" stroke-width="0.2" stroke-linecap="round" stroke-linejoin="round"/>
<path d="M59.2999 27.3999L57.8999 27.4998L57.5 28.5999H55.7L57 23.2999L59.2 18.7999V18.5999L61.7 18.8999L62.8999 21.3999L60.2 23.8999L59.2999 27.3999V27.3999Z" fill="#ECECEC" stroke="black" stroke-width="0.2" stroke-linecap="round" stroke-linejoin="round"/>
<path d="M164 134.1L161.8 129.6L156.6 119L172.9 112.6L175.5 99.8L172.5 95.2V92.6L173.8 90L173.6 87.4L176 86.1L174.9 85.2V81H177.7L180.7 85.4L184 87.7L188.1 88.6L191.5 89.7L194.4 93.4L196.1 95.5L198.1 96.4L198.3 97.8L196.6 101.6L195.9 103.4L193.7 105.5L192 109.9L189.5 109.5L188.5 111.1L187.8 114.3L188.9 118.6L188.4 119.4H185.9L182.6 121.8L182.3 124.9L181.1 126.3L177.6 126.2L175.6 127.8L175.8 130.4L173.2 132.2L170.1 131.6L166.5 133.8L164 134.1Z" fill="#ECECEC" stroke="black" stroke-width="0.2" stroke-linecap="round" stroke-linejoin="round"/>
<path d="M150.3 82.8999L148.8 83.3999L147 82.0999L146.2 77.3999L147.3 74.0999L148.8 73.3999L150.6 75.3999L151.1 79.0999L150.3 82.8999Z" fill="#ECECEC" stroke="black" stroke-width="0.2" stroke-linecap="round" stroke-linejoin="round"/>
<path d="M120.7 54.2L125.7 54.8L127.4 57.9L131.3 57.7L134 63.3L136.9 64.7L138.1 67L142.1 69.7L142.8 72.3L142.4 74.5L143.3 76.6L145.1 78.4L146 80.5L147 82.1L148.8 83.4L150.3 82.9L151.6 85.4L151.9 86.8L154.6 93.4L171.5 96.6L172.5 95.2L175.5 99.8L172.9 112.6L156.6 119L140.7 121.5L135.7 124.4L132.2 131.1L129.6 132.2L128.1 130.1L126 130.4L120.5 129.7L119.4 129.1L113 129.2L111.5 129.8L109.1 128.2L107.8 131.3L108.6 134L106.2 136.1L105.3 133.3L103.5 131.4L103 128.8L99.8999 126.5L96.6 121.1L94.7 115.9L90.6 111.5L88.1 110.4L84 104.3L83.1 99.9V96.1L79.5 88.9L76.7 86.4L73.7 85.1L71.6 81.4L71.7999 80L70 76.6L68.2999 75.2L65.7999 70.4L62 65.3L58.8999 60.9H56.2L56.7 57.4L56.7999 55.1L57.2 52.5L63.3999 53.6L65.5 51.6L66.6 49.3L70.7 48.4L71.3999 46.2L73 45.2L67 38.7L77.3999 35.5L78.2999 34.5L85.1 36.3L93.7 40.8L110.5 53.7L120.7 54.2V54.2Z" fill="#ECECEC" stroke="black" stroke-width="0.2" stroke-linecap="round" stroke-linejoin="round"/>
<path d="M75.1998 26.7L65.4999 33.6L59.1998 31H59.0999L59.6998 30L59.2998 27.4L60.1998 23.9L62.8998 21.4L61.6998 18.9L59.1998 18.6L58.0999 13.7L59.0999 11L60.3998 9.60001L61.5999 8.20001L61.3998 4.70001L63.2998 5.90002L68.8998 4.10001L71.8998 5.30002H76.2998L81.9999 2.90002L84.8998 3L90.7998 2L88.6998 6L85.9999 7.60001L87.1998 12.3L86.1998 20L75.1998 26.7V26.7Z" fill="#ECECEC" stroke="black" stroke-width="0.2" stroke-linecap="round" stroke-linejoin="round"/>
<path d="M164 134.1L160 135.8L159.1 138.7V140.9L153.7 143.6L144.9 146.6L140.2 151.1L137.7 151.5L136 151.1L132.8 153.8L129.3 155L124.6 155.3L123.2 155.7L122.1 157.4L120.6 157.9L119.8 159.5L117 159.3L115.3 160.2L111.3 159.9L109.7 156.1V152.6L108.7 150.7L107.4 146L105.6 143.4L106.7 143L106 140.1L106.6 138.9L106.2 136.1L108.6 134L107.8 131.3L109.1 128.2L111.5 129.8L113 129.2L119.4 129.1L120.5 129.7L126 130.4L128.1 130.1L129.6 132.2L132.2 131.1L135.7 124.4L140.7 121.5L156.6 119L161.8 129.6L164 134.1V134.1Z" fill="#ECECEC" stroke="black" stroke-width="0.2" stroke-linecap="round" stroke-linejoin="round"/>
<path d="M144.3 72.5L144.6 72.6L144.8 72.5L145.2 73.2L145.1 73.4L145.2 74.3V75L145 75.4L144.9 75L144.3 74.2L144.4 73.8L144.2 73.1V72.7L144.3 72.5Z" fill="#ECECEC" stroke="black" stroke-width="0.2" stroke-linecap="round" stroke-linejoin="round"/>
</svg>
