<svg width="69" height="67" viewBox="0 0 69 67" fill="none" xmlns="http://www.w3.org/2000/svg">
<path d="M50.7845 29.9956H37.3321V14.7998C37.3321 14.3599 37.0135 14 36.6241 14H32.3759C31.9865 14 31.6679 14.3599 31.6679 14.7998V29.9956H18.2155C17.8261 29.9956 17.5075 30.3555 17.5075 30.7954V35.5941C17.5075 36.034 17.8261 36.3939 18.2155 36.3939H31.6679V51.5897C31.6679 52.0296 31.9865 52.3895 32.3759 52.3895H36.6241C37.0135 52.3895 37.3321 52.0296 37.3321 51.5897V36.3939H50.7845C51.1739 36.3939 51.4926 36.034 51.4926 35.5941V30.7954C51.4926 30.3555 51.1739 29.9956 50.7845 29.9956Z" fill="#B7B7B7"/>
<path d="M67 33.5C67 50.8419 52.5051 65 34.5 65C16.4949 65 2 50.8419 2 33.5C2 16.1581 16.4949 2 34.5 2C52.5051 2 67 16.1581 67 33.5Z" stroke="#B0B0B0" stroke-width="4"/>
</svg>
