<svg width="88" height="113" viewBox="0 0 88 113" fill="none" xmlns="http://www.w3.org/2000/svg">
<path d="M50.7732 36.9657L51 38.8408L50.2062 38.4331L50.622 40.5528L49.8282 39.2076L49.5258 37.8625L48.9588 36.5988L47.9004 35.0906L45.9347 34.9683L46.2749 36.0689L45.8213 37.4956L44.8385 36.9657L44.6117 37.4548L43.9691 37.1695L43.1375 36.9249L42.5327 34.7644L41.5498 32.8078L41.6632 31.2181L40.2646 30.5251L40.6048 29.5875L41.7388 28.6092L40 27.2233L40.4536 25.4297L42.3058 26.5711L43.3265 26.6933L43.7801 28.5277L45.8213 28.8946L47.7491 28.8538L49.0344 29.3022L48.4296 31.5034L47.5224 31.6664L47.0688 33.1339L48.4296 34.5199L48.543 32.8078H49.11L50.7732 36.9657Z" fill="#ECECEC" stroke="black" stroke-width="0.2" stroke-linecap="round" stroke-linejoin="round"/>
<path d="M81.1068 112.636L78.7994 112.679L77.1246 110.395L74.4822 108.112L73.6262 106.431L72.1003 104.191L71.0955 102.123L69.5323 98.2449L67.7087 95.9182L67.076 93.5485L66.2573 91.3942L64.322 89.6708L63.1683 87.3011L61.5307 85.75L59.2233 82.6909L59 81.269L60.3398 81.3983L63.6521 81.9153L65.5874 84.6297L67.2993 86.5255L68.4903 87.6457L70.5372 90.6187L72.6958 90.6618L74.4822 92.5575L75.7476 94.8842L77.3479 96.1768L76.4919 98.4172L77.7201 99.3651L78.4644 99.4513L78.7994 101.39L79.5065 102.898L81.0324 103.157L82 104.923L81.3673 108.37L81.1068 112.636Z" fill="#ECECEC" stroke="black" stroke-width="0.2" stroke-linecap="round" stroke-linejoin="round"/>
<path d="M23.9514 15.3599L22.9489 16.6232L22.6266 19.1499L24.7033 20.1605L26.78 21.466L29.5729 22.982L32.3299 23.361L33.6906 24.7085L35.2302 24.9612L37.7008 25.5929L39.3478 25.5508L39.3836 24.498L38.8465 22.7714L38.7749 21.6344L39.8849 21.0449L40.422 23.1925L40.5652 23.6979L42.5345 24.7506L43.6803 24.3295L45.3632 24.498L46.9744 24.4137L46.7954 22.7714L45.8645 21.8871L47.3683 21.5502L48.7647 19.5289L50.6982 17.8444L52.4527 18.4761L53.5985 17.3391L54.8875 19.0235L54.4578 20.1605L56.6419 20.5816L57 21.5923L56.3913 22.0976L56.8926 23.74L55.3887 23.2767L53.1688 25.1296L53.491 26.6877L52.7749 28.9617L52.8824 30.2672L52.3095 32.4991L50.6624 31.8674L50.9846 34.6888L50.6266 35.6153L50.9846 36.7523L50.0895 37.3839L48.514 33.0886H47.977L47.8696 34.8573L46.5806 33.4255L47.0102 31.9095L47.8696 31.7411L48.4424 29.4671L47.225 29.0039L45.399 29.046L43.4655 28.667L43.0358 26.772L42.069 26.6456L40.3146 25.4665L39.8849 27.3194L41.5319 28.7512L40.4578 29.7619L40.1356 30.7304L41.4604 31.4463L41.3529 33.0886L42.2839 35.11L42.8568 37.3419L42.6778 38.3525L41.3171 38.3104L38.954 38.8578L39.2762 40.8792L38.4169 42.4794L35.7315 44.3323L33.8337 47.4906L32.4732 49.2172L30.6829 50.9858L30.7903 52.207L29.8593 52.8808L28.1407 53.8494L27.2097 53.9757L26.78 56.0392L27.4604 59.5765L27.711 61.8084L27.0307 64.3771L27.2813 68.9672L26.243 69.0936L25.4194 71.157L26.0997 72.0835L24.2737 72.8415L23.665 74.6522L22.8772 75.4524L20.8721 72.9257L19.7622 69.1357L18.867 66.3985L18.0793 65.1351L16.8619 62.5243L16.1458 59.1554L15.6445 57.4709L13.532 53.7652L12.2788 48.5013L11.3478 45.0482L11.0614 41.7635L10.4527 39.2368L7.69563 40.8792L6.26341 40.5423L3.36316 37.2576L4.22251 36.2891L3.54219 35.2363L1 32.9202L2.14576 31.1094H6.47828L5.83376 28.7933L4.58056 27.4458L4.07927 25.3402L2.64705 24.1611L4.40153 21.2975L6.7289 21.5081L8.34015 18.6866L9.12786 15.9494L10.5243 13.2122L10.1662 11.2751L11.5269 9.71699L9.70078 8.41155L8.66241 6.55866L7.48081 4.20044L8.19692 3.02134L11.2404 3.69511L13.2813 3.27399L14.6419 1L17.399 4.20044L17.6854 6.39022L18.7596 7.77988L18.9744 9.16954L17.5064 8.79055L18.6522 11.7804L20.8721 13.4649L23.9514 15.3599Z" fill="#ECECEC" stroke="black" stroke-width="0.2" stroke-linecap="round" stroke-linejoin="round"/>
<path d="M68 39.0883L66.5031 40.8244L66.2109 41.7751L65.1156 42.3952L64.0933 43.5526L62.6694 43.6766L62.1217 46.5288L61.3184 47.0248L62.5963 49.3397L64.0933 51.2825L65.1521 53.0599L64.641 55.3334L63.9838 55.8294L64.641 57.1522L66.2109 59.2603L66.5761 60.7484L66.6491 61.9885L67.6349 64.4274L66.6856 66.9075L65.8823 69.6357L65.5537 67.6516L66.0284 65.6261L65.2252 64.0553L65.1521 61.1618L64.2028 59.7564L63.2171 56.6148L62.4868 53.2666L61.3549 51.0344L60.1866 52.3985L58.0689 54.2587L56.8641 54.052L55.5497 53.4319L55.8783 50.125L55.1481 47.6449L53.213 44.586L53.3225 43.6353L52.0812 43.2632L50.4016 41.1138L50 38.9643L50.7667 39.3776L50.5477 37.4762L51.4604 36.8561L51.0953 35.7401L51.4604 34.8307L51.1318 32.0611L52.8114 32.6812L53.3956 30.4904L53.286 29.2089L54.0162 26.9768L53.6876 25.4474L55.9513 23.6286L57.4848 24.0833L56.9736 22.4712L57.5943 21.9751L57.2292 20.983L58.3611 20.7764L59.3468 22.3471L60.3327 22.9672L60.8073 24.9927L61.1359 27.1835L59.6024 29.4156L59.858 32.5572L61.9026 32.1025L62.7789 34.5413L64.1298 35.0787L63.8377 37.2695L65.4807 38.2616L66.43 38.7576L67.8174 37.9722L68 39.0883Z" fill="#ECECEC" stroke="black" stroke-width="0.2" stroke-linecap="round" stroke-linejoin="round"/>
<path d="M73.2632 80.0255L73.7733 80.2662L75.0486 81.8306L75.9595 83.5555L76.1781 85.2805L75.996 86.4438L76.2146 87.3263L76.3968 88.8506L77.1619 89.5727L78 91.8592V92.7016L76.5425 92.9022L74.5385 90.9767L72.0607 88.9309L71.7692 87.6071L70.5304 85.8822L70.166 83.7561L69.3644 82.3521L69.5101 80.4667L69 79.3836L69.3279 78.9424L71.0769 80.0656L71.2956 81.3894L72.6437 81.0684L73.2632 80.0255Z" fill="#ECECEC" stroke="black" stroke-width="0.2" stroke-linecap="round" stroke-linejoin="round"/>
<path d="M78.4479 58.2313L76.4969 57.8549L73.8834 58.3567L72.7423 60.5726L73.5153 63.8339L71.5644 62.5795L69.7976 62.6632L69.908 60.5308H68.1043L68.1779 63.4994L67.3681 67.4296L66.8528 69.8128L67.1104 71.7361L68.4724 71.8197L69.4663 74.2865L69.9448 76.5861L71.1963 78.1331L72.4478 78.4258L73.589 79.8473L72.9632 80.9344L71.6012 81.2689L71.3804 79.8891L69.6135 78.7184L69.2822 79.1783L68.4356 78.1749L67.9939 76.837L66.816 75.3318L65.7485 74.0356L65.4908 75.6244L65.0123 74.1193L65.1595 72.4469L65.6012 69.8964L66.4111 67.1369L67.3681 64.6283L66.3742 62.1614L66.3006 60.9071L65.9325 59.4019L64.3497 57.2696L63.6871 55.9317L64.3497 55.4299L64.865 53.1304L63.7975 51.3325L62.2883 49.3674L61 47.026L61.8098 46.5243L62.362 43.6393L63.7975 43.5139L64.8282 42.3432L65.9325 41.7161L66.9264 42.5523L67.2577 44.1829L68.6565 44.3083L68.5092 47.1096L68.8773 49.5346L70.8282 47.9458L71.5276 48.4058L72.7055 48.3221L73 47.4023L74.5828 47.5695L76.4233 49.7437L76.9019 52.4196L78.8528 54.761L79 57.0187L78.4479 58.2313Z" fill="#ECECEC" stroke="black" stroke-width="0.2" stroke-linecap="round" stroke-linejoin="round"/>
<path d="M81.3935 38.4179L78.9959 40.6733L77.6312 43.221L77.4098 45.1005L79.3648 47.8989L81.7623 51.4073L83.8647 53.0779L85.3771 55.208L86.8525 60.1782L87 64.8978L85.414 66.652L83.164 68.4062L81.6148 70.6198L79.1803 73.1258L78.332 71.4134L78.7746 69.5757L77.1516 68.0721L78.8484 66.9861L81.0246 66.7773L79.9918 65.1902L83.3115 63.1019L83.2746 59.8858L82.6107 58.0899L82.6844 55.4168L81.9467 53.5374L80.1393 51.6579L78.5164 49.3189L76.4139 46.1447L73.7213 44.5158L74.1639 43.5552L75.3811 42.8451L74.2746 40.5062H71.7664L70.4754 38.0838L69 35.9537L69.9959 35.2854L71.6188 35.3272L73.5738 34.9931L75.0861 33.573L76.2295 34.5754L78.1844 35.0766L78.0738 36.622L79.2172 37.7079L81.3935 38.4179Z" fill="#ECECEC" stroke="black" stroke-width="0.2" stroke-linecap="round" stroke-linejoin="round"/>
</svg>
