<svg width="83" height="124" viewBox="0 0 83 124" fill="none" xmlns="http://www.w3.org/2000/svg">
<path d="M45.0911 121.573L44.1756 121.524L42.6504 121.535L40.7992 117.708L41.7491 118.492L43.0679 119.781L45.453 120.808L47.6821 121.215L47.4427 122.064L46.101 122.159L45.0911 121.573Z" fill="#F8F8F8" stroke="black" stroke-width="0.2" stroke-linecap="round" stroke-linejoin="round"/>
<path d="M35.469 63.1868L38.932 66.098L40.3368 66.3699L42.571 67.7088L44.3747 68.4014L44.7145 69.1896L43.4484 71.9666L45.2203 72.4335L47.1436 72.7016L48.4233 72.4096L49.7273 70.9878L49.8102 69.4057L50.6013 69.0327L51.5833 70.0985L51.7132 71.5378L50.4374 72.5358L49.4347 73.2775L47.8276 75.0687L46.0107 77.5392L45.8662 79.0088L45.7543 80.8735L46.1302 82.6781L45.8578 83.0756L45.9861 84.2325L46.0828 85.1919L48.4707 86.7274L48.5385 87.9694L49.7325 88.7513L49.8287 89.626L48.8347 91.9492L46.7047 92.9535L43.5952 93.3439L41.7638 93.1599L42.4104 94.2564L42.4482 95.5835L43.0022 96.483L42.2431 97.1382L40.6887 97.404L38.9767 96.739L38.5218 97.2225L39.2941 98.9959L40.5172 99.5234L41.2157 98.9533L41.9834 99.8795L40.7053 100.454L39.8268 101.59L40.2025 103.366L40.1773 104.327L38.713 104.338L37.8028 105.248L37.8407 106.604L39.8306 107.888L41.4187 108.215L41.4884 109.824L40.0906 110.823L39.9188 112.886L38.8548 113.571L38.5847 114.392L39.8759 116.219L41.2845 117.196L40.6434 117.116L39.1472 116.845L35.4548 116.647L34.3816 115.638L33.795 114.344L32.8499 114.464L32.0533 113.82L31.0976 111.991L31.9169 111.195L31.9415 110.093L31.3875 109.193L31.5927 107.667L31.2444 105.325L30.6896 104.285L31.2369 103.942L30.8061 103.267L29.9501 102.935L30.19 102.17L29.2407 101.5L28.1008 99.4466L28.6174 99.0756L27.5987 96.8805L27.3447 95.0467L27.2749 93.4375L28.034 92.7823L27.0177 91.0107L26.5207 89.3764L27.4293 88.1835L26.994 86.6618L27.4725 84.9073L27.0364 83.2443L26.5465 82.9091L25.0347 79.7856L25.6651 77.917L25.137 76.17L25.4025 74.5018L26.1864 72.8015L27.1869 71.6644L26.573 70.963L26.8138 70.3682L26.3093 67.3501L28.0128 66.4619L28.3685 64.5672L28.0916 64.1174L29.3028 62.4704L31.5932 62.9051L32.7289 64.1957L33.209 62.7236L35.1618 62.7937L35.469 63.1868Z" fill="#F8F8F8" stroke="black" stroke-width="0.2" stroke-linecap="round" stroke-linejoin="round"/>
<path d="M42.7392 59.3762L42.6446 58.8121L40.9923 57.8925L39.4059 57.8761L36.4803 58.4345L35.8483 60.0207L35.9147 61.0086L35.469 63.1865L35.1618 62.7934L33.209 62.7233L32.7289 64.1954L31.5932 62.9048L29.3028 62.4701L28.0916 64.1171L26.9032 64.3801L25.9439 61.8738L24.8042 59.849L25.1302 58.0956L24.1499 57.3405L23.7768 56.0441L22.7938 54.8089L23.6679 52.8537L22.7749 51.3354L23.1071 50.7116L22.7373 50.0366L23.312 49.1286L23.2122 47.6044L23.2052 46.3053L23.5375 45.7098L21.8437 42.7854L23.1259 42.9453L24.0102 42.8822L24.3428 42.3431L25.8031 41.5979L26.684 40.9136L28.9092 40.5863L28.7945 41.9427L29.0729 42.6467L28.988 43.8617L30.9796 45.4565L32.9336 45.7526L33.6389 46.4251L34.8306 46.7833L35.596 47.286L36.6637 47.278L37.7038 47.8068L37.862 48.8505L38.2309 49.3844L38.3266 50.1461L37.8082 50.1783L38.6738 52.2899L41.9383 52.3502L41.7915 53.3962L42.0394 54.1004L43.0183 54.6014L43.543 55.7271L43.3678 57.1687L42.9756 57.9624L43.2251 58.9772L42.7392 59.3762Z" fill="#F8F8F8" stroke="black" stroke-width="0.2" stroke-linecap="round" stroke-linejoin="round"/>
<path d="M43.528 19.3247L44.4745 19.4871L44.6554 19.0904L44.3485 18.7538L44.5286 18.2158L45.2312 18.38L46.0537 18.1762L47.032 18.5643L47.7967 18.9257L48.3126 18.4418L48.7095 18.4953L48.9563 19.0018L49.7793 18.8827L50.4466 18.1717L50.9885 16.8403L52.0166 15.1664L52.6262 15.0771L53.0283 16.0908L53.9606 19.2468L54.908 19.5504L54.9453 20.7927L53.6417 22.2992L54.1632 22.8319L57.2457 23.0913L57.3167 24.9264L58.622 23.7305L60.7914 24.3639L63.6953 25.4436L64.5551 26.4821L64.2861 27.5008L66.2964 26.9209L69.6572 27.856L72.2498 27.7802L74.8203 29.2578L77.0888 31.2742L78.4337 31.7725L79.8984 31.8463L80.5421 32.4063L81.1648 34.7174L81.5064 35.8162L80.8821 38.8144L80.0649 40.0066L77.7297 42.5375L76.7037 44.6067L75.492 46.169L75.0652 46.2287L74.6759 47.5589L74.9689 50.9457L74.6485 53.7439L74.5635 54.9306L74.0794 55.6685L73.9401 58.0983L72.3666 60.454L72.2243 62.3472L70.9168 63.1195L70.5872 64.2233L68.7569 64.237L66.1677 64.9341L65.0435 65.7615L63.2161 66.3117L61.3631 67.7658L60.1223 69.5825L60.0381 70.9387L60.4401 71.9241L60.3585 73.7604L60.1193 74.6376L59.0876 75.662L57.7323 78.8633L56.5198 80.2844L55.5484 81.1672L55.1002 82.8932L54.2211 83.9164L53.5749 82.9046L54.1192 82.0251L52.9534 80.8194L51.4837 79.8137L49.5556 78.6702L48.9763 78.731L47.0468 77.3334L46.0107 77.5388L47.8276 75.0683L49.4347 73.2771L50.4374 72.5354L51.7132 71.5374L51.5833 70.0981L50.6013 69.0323L49.8102 69.4053L50.0181 68.3589L50.1037 67.2851L50.0067 66.2691L49.3644 65.9633L48.7558 66.2502L48.1148 66.1703L47.867 65.4944L47.5224 63.8307L47.1534 63.2969L45.961 62.7975L45.2919 63.1696L43.4901 62.8159L43.3547 60.36L42.7392 59.3761L43.2251 58.9771L42.9756 57.9623L43.3678 57.1686L43.543 55.7271L43.0183 54.6013L42.0394 54.1003L41.7915 53.3961L41.9383 52.3501L38.6738 52.2898L37.8082 50.1782L38.3266 50.1461L38.2309 49.3843L37.862 48.8505L37.7038 47.8067L36.6637 47.2779L35.596 47.2859L34.8306 46.7833L33.6389 46.425L32.9336 45.7525L30.9796 45.4565L28.988 43.8616L29.0729 42.6466L28.7945 41.9427L28.9092 40.5863L26.684 40.9135L25.8031 41.5979L24.3428 42.343L24.0102 42.8821L23.1258 42.9452L21.8437 42.7853L20.8692 43.1032L20.075 42.9115L20.0296 40.1725L18.6931 41.2273L17.1677 41.2105L16.4607 40.2273L15.3011 40.1513L15.6018 39.3583L14.5891 38.2645L13.7871 36.6325L14.243 36.3184L14.1777 35.5282L15.2121 35.0121L14.9932 34.0253L15.4169 33.4009L15.5038 32.553L17.4188 31.2961L18.8202 30.9467L19.0627 30.6625L20.6189 30.7356L21.263 25.7604L21.2892 24.9695L21.0091 23.9549L20.2123 23.2831L20.2356 21.9556L21.2102 21.6659L21.5468 21.861L21.604 21.1546L20.5962 20.9644L20.5901 19.8348L23.9459 19.8663L24.522 19.2124L25.0133 19.8018L25.3242 20.8727L25.6585 20.6442L26.6094 21.5973L27.951 21.4743L28.2835 20.907L29.5624 20.4739L30.2928 20.1578L30.5022 19.3937L31.7501 18.8761L31.6565 18.4814L30.1915 18.3511L29.9716 17.1949L30.0565 15.9799L29.2915 15.5338L29.6261 15.3618L30.878 15.5784L32.2532 16.02L32.7695 15.5925L34.0187 15.3008L35.9673 14.6084L36.604 13.8977L36.3877 13.3909L37.3026 13.3276L37.6708 13.7203L37.4312 14.541L38.0427 14.7906L38.4133 15.6351L37.9288 16.2883L37.6321 17.8155L38.0642 18.7442L38.1603 19.5907L39.2326 20.4299L40.0872 20.5083L40.2682 20.1398L40.8169 20.051L41.6083 19.7344L42.1548 19.2502L43.1319 19.4124L43.528 19.3247Z" fill="#F8F8F8" stroke="black" stroke-width="0.2" stroke-linecap="round" stroke-linejoin="round"/>
<path d="M18.5995 1.60642L17.4725 1.92547L16.9894 2.83279L16.2905 3.34634L15.7451 4.0282L15.4776 5.32927L14.9344 6.40649L15.8197 6.51284L16.0071 7.33042L16.3755 7.75128L16.4709 8.45659L16.261 9.13594L16.2937 9.53107L16.7215 9.66908L17.0909 10.2876L19.3169 10.1016L20.3248 10.32L21.4926 11.8927L22.1931 11.6898L23.4443 11.7652L24.4193 11.5602L25.0311 11.8663L24.6703 12.8292L24.2771 13.4534L24.1012 14.7538L24.4433 15.9656L24.9038 16.4988L24.967 16.8937L24.0872 17.8039L24.6995 18.1947L25.1606 18.8408L25.6585 20.6445L25.3242 20.873L25.0133 19.8021L24.522 19.2127L23.9459 19.8666L20.5901 19.8351L20.5962 20.9647L21.604 21.1549L21.5468 21.8613L21.2102 21.6662L20.2356 21.9559L20.2123 23.2834L21.0091 23.9552L21.2892 24.9698L21.263 25.7607L20.6189 30.7359L19.729 29.7824L19.2103 29.758L20.2678 27.8862L18.921 27.049L17.8848 27.2262L17.2425 26.9204L16.2994 27.4075L15.0168 27.1629L13.9389 25.2788L13.1433 24.8329L12.5894 23.9616L11.4256 23.123L10.969 23.2959L10.2345 22.8777L9.37719 22.2911L8.89065 22.5771L7.42504 22.3339L6.99366 21.5464L6.65826 21.5771L4.94444 20.5733L4.72783 20.0101L5.36768 19.8641L5.30175 18.9609L5.72514 18.2799L6.57865 18.1606L7.33513 17.0253L8.00102 16.0601L7.38861 15.6411L7.74897 14.5935L7.40436 12.9299L7.79831 12.4468L7.57647 10.9235L6.9 9.94009L7.16977 9.06261L7.71962 9.19971L8.05227 8.66065L7.71086 7.59005L7.92302 7.3343L8.80797 7.38417L10.1738 6.10313L10.9048 5.9L10.9321 5.30673L11.3507 3.75036L12.3834 2.92367L13.4508 2.85921L13.6318 2.49073L14.9748 2.62191L16.3731 1.70776L17.0726 1.30717L17.9525 0.425128L18.5632 0.53353L18.9623 1.01065L18.5995 1.60642Z" fill="#F8F8F8" stroke="black" stroke-width="0.2" stroke-linecap="round" stroke-linejoin="round"/>
<path d="M10.969 23.2959L11.2205 24.6778L10.7083 25.8395L8.85791 27.7737L6.81791 28.4949L5.78936 30.0841L5.52142 31.3005L4.57992 32.07L3.81223 31.1438L3.10953 30.9513L2.40869 31.0978L2.31364 30.4489L2.79941 30.0217L2.58174 29.2608L3.45899 27.8987L3.05813 27.111L2.42214 27.9629L1.35001 27.152L1.68279 26.6411L1.36883 25.0055L1.97739 24.7186L2.2763 23.5867L2.91059 22.4241L2.81509 21.6905L3.7586 21.2881L4.94444 20.5732L6.65826 21.5771L6.99365 21.5464L7.42503 22.3339L8.89064 22.5771L9.37718 22.2911L10.2345 22.8777L10.969 23.2959Z" fill="#F8F8F8" stroke="black" stroke-width="0.2" stroke-linecap="round" stroke-linejoin="round"/>
<path d="M42.6032 11.961L42.3071 13.6012L41.2419 14.061L41.3357 14.4839L41.0054 15.4466L41.7445 16.7401L42.2936 16.736L42.5127 17.7511L43.528 19.325L43.1319 19.4127L42.1548 19.2505L41.6083 19.7347L40.8169 20.0512L40.2682 20.1401L40.0872 20.5085L39.2326 20.4302L38.1603 19.591L38.0642 18.7445L37.6321 17.8158L37.9288 16.2885L38.4134 15.6354L38.0427 14.7909L37.4312 14.5413L37.6708 13.7205L37.3026 13.3279L36.3877 13.3912L35.2517 12.0441L35.737 11.5322L35.7324 10.685L36.7985 10.3946L37.2237 10.0526L36.671 9.37891L36.82 8.72825L38.2479 7.64444L39.3497 8.314L40.3627 9.46431L40.3984 10.4242L41.0392 10.4477L41.9591 11.3163L42.6032 11.961Z" fill="#F8F8F8" stroke="black" stroke-width="0.2" stroke-linecap="round" stroke-linejoin="round"/>
<path d="M20.6189 30.7353L19.0627 30.6622L18.8202 30.9464L17.4188 31.2958L15.5038 32.5527L15.4169 33.4006L14.9932 34.025L15.2121 35.0118L14.1777 35.5279L14.243 36.3182L13.7871 36.6322L14.5892 38.2642L15.6018 39.358L15.3011 40.151L16.4607 40.2271L17.1677 41.2102L18.6931 41.2271L20.0297 40.1722L20.0751 42.9112L20.8693 43.103L21.8437 42.785L23.5375 45.7094L23.2052 46.305L23.2122 47.604L23.3121 49.1283L22.7374 50.0363L23.1071 50.7113L22.775 51.3351L23.6679 52.8534L22.7939 54.8086L22.4634 55.743L21.6117 56.2012L19.8062 55.1698L19.5582 54.4373L15.9793 52.6567L12.7043 50.676L11.2646 49.5854L10.4023 48.095L10.6434 47.5567L8.98326 45.1968L7.01283 41.8791L5.16286 38.2781L4.42612 37.4364L3.8088 36.1136L2.39913 34.9381L1.14442 34.2132L1.65871 33.4186L0.73403 31.6746L1.2457 30.3999L2.58178 29.2603L2.79945 30.0212L2.31368 30.4484L2.40873 31.0972L3.10957 30.9508L3.81227 31.1432L4.57997 32.0695L5.52146 31.2999L5.78941 30.0836L6.81796 28.4944L8.85795 27.7731L10.7083 25.8389L11.2206 24.6772L10.969 23.2953L11.4257 23.1225L12.5895 23.961L13.1433 24.8323L13.9389 25.2782L15.0169 27.1623L16.2995 27.4069L17.2425 26.9198L17.8848 27.2257L18.921 27.0485L20.2679 27.8856L19.2103 29.7574L19.7291 29.7818L20.6189 30.7353Z" fill="#F8F8F8" stroke="black" stroke-width="0.2" stroke-linecap="round" stroke-linejoin="round"/>
<path d="M42.7392 59.3765L43.3547 60.3604L43.4901 62.8163L45.2919 63.17L45.961 62.7978L47.1534 63.2973L47.5224 63.8311L47.867 65.4947L48.1148 66.1707L48.7558 66.2506L49.3644 65.9637L50.0067 66.2695L50.1037 67.2854L50.0181 68.3593L49.8102 69.4057L49.7273 70.9878L48.4233 72.4096L47.1436 72.7016L45.2203 72.4335L43.4483 71.9666L44.7145 69.1896L44.3746 68.4014L42.571 67.7088L40.3368 66.3699L38.932 66.098L35.469 63.1868L35.9147 61.009L35.8483 60.021L36.4803 58.4348L39.4059 57.8764L40.9923 57.8928L42.6446 58.8124L42.7392 59.3765Z" fill="#F8F8F8" stroke="black" stroke-width="0.2" stroke-linecap="round" stroke-linejoin="round"/>
<path d="M48.1267 12.3151L47.1895 13.8754L47.2878 15.1172L47.9648 16.1853L47.6334 16.9503L47.4854 17.7986L47.032 18.5645L46.0537 18.1765L45.2312 18.3803L44.5286 18.2161L44.3485 18.754L44.6554 19.0906L44.4745 19.4873L43.5279 19.325L42.5127 17.751L42.2936 16.736L41.7445 16.7401L41.0053 15.4465L41.3357 14.4839L41.2419 14.061L42.3071 13.6012L42.6032 11.961L44.6795 12.3126L44.8607 11.9724L46.2632 11.8207L48.1267 12.3151Z" fill="#F8F8F8" stroke="black" stroke-width="0.2" stroke-linecap="round" stroke-linejoin="round"/>
<path d="M54.2211 83.9163L53.7393 85.0777L52.0974 86.0784L50.8142 85.7209L49.9611 85.9249L48.2792 85.175L47.1813 85.2397L45.9861 84.2319L45.8578 83.075L46.1302 82.6776L45.7543 80.873L45.8662 79.0083L46.0107 77.5386L47.0468 77.3332L48.9763 78.7309L49.5556 78.6701L51.4837 79.8135L52.9534 80.8192L54.1193 82.0249L53.5749 82.9044L54.2211 83.9163Z" fill="#F8F8F8" stroke="black" stroke-width="0.2" stroke-linecap="round" stroke-linejoin="round"/>
<path d="M38.2479 7.64446L36.82 8.72827L36.671 9.37893L37.2238 10.0526L36.7985 10.3946L35.7324 10.685L35.737 11.5322L35.2517 12.0442L36.3877 13.3912L36.6041 13.898L35.9673 14.6087L34.0187 15.3011L32.7695 15.5928L32.2532 16.0203L30.878 15.5787L29.6261 15.3621L29.2915 15.534L30.0566 15.9802L29.9717 17.1952L30.1915 18.3514L31.6565 18.4817L31.7502 18.8764L30.5022 19.394L30.2928 20.1581L29.5624 20.4742L28.2835 20.9073L27.951 21.4746L26.6094 21.5976L25.6585 20.6445L25.1606 18.8408L24.6995 18.1947L24.0873 17.8039L24.967 16.8937L24.9038 16.4988L24.4433 15.9656L24.1012 14.7538L24.2771 13.4534L24.6703 12.8292L25.0312 11.8663L24.4194 11.5602L23.4443 11.7652L22.1931 11.6898L21.4926 11.8927L20.3248 10.32L19.3169 10.1015L17.091 10.2876L16.7215 9.66908L16.2937 9.53107L16.261 9.13594L16.4709 8.45659L16.3755 7.75128L16.0072 7.33042L15.8197 6.51283L14.9344 6.40648L15.4777 5.32927L15.7451 4.0282L16.2905 3.34634L16.9894 2.83279L17.4725 1.92547L18.5995 1.60641L18.5408 2.03046L17.5049 2.26412L18.0279 3.0792L17.9416 4.04003L17.1237 5.09105L17.7111 6.52695L18.4731 6.4083L18.9235 5.07762L18.4015 4.46021L18.394 3.07647L20.5864 2.32583L20.3987 1.48001L21.0361 0.882199L21.5617 2.17735L22.7821 2.19648L23.8246 3.17712L23.889 3.79795L25.4143 3.78656L27.2742 3.60323L28.2241 4.38687L29.5065 4.60323L30.5101 4.03092L30.5382 3.57886L32.7034 3.44973L34.7471 3.40623L33.2553 3.95394L33.8091 4.82527L35.1825 4.92798L36.4686 5.82209L36.6899 7.26072L37.5744 7.22588L38.2479 7.64446Z" fill="#F8F8F8" stroke="black" stroke-width="0.2" stroke-linecap="round" stroke-linejoin="round"/>
<path d="M40.7992 117.708L42.6504 121.535L44.1756 121.524L45.0911 121.573L44.9422 122.252L43.969 122.796L43.2366 122.745L42.2902 122.611L41.0062 122.112L39.3575 121.87L37.0644 120.927L35.1072 120.038L32.1071 118.112L33.5123 118.469L36.1421 119.607L38.3723 120.211L38.7341 119.418L38.6361 118.233L39.6693 117.491L40.7992 117.708Z" fill="#F8F8F8" stroke="black" stroke-width="0.2" stroke-linecap="round" stroke-linejoin="round"/>
<path d="M28.0916 64.1172L28.3685 64.567L28.0128 66.4617L26.3093 67.3499L26.8138 70.3679L26.573 70.9628L27.1869 71.6642L26.1864 72.8013L25.4025 74.5016L25.137 76.1698L25.6651 77.9168L25.0347 79.7854L26.5465 82.9089L27.0364 83.2441L27.4725 84.9071L26.994 86.6616L27.4293 88.1833L26.5206 89.3762L27.0177 91.0105L28.034 92.7821L27.2749 93.4373L27.3447 95.0465L27.5987 96.8802L28.6173 99.0754L28.1008 99.4464L29.2407 101.499L30.19 102.17L29.9501 102.934L30.8061 103.267L31.2369 103.942L30.6896 104.285L31.2444 105.325L31.5927 107.667L31.3875 109.193L31.9415 110.093L31.9169 111.194L31.0976 111.991L32.0533 113.82L32.8499 114.463L33.795 114.343L34.3816 115.638L35.4548 116.647L39.1472 116.845L40.6434 117.116L39.3317 117.126L38.8154 117.554L37.7817 118.183L38.309 119.788L37.7296 119.821L35.8048 119.299L33.5104 118.101L31.1866 117.13L30.2045 116.036L30.1074 115.02L28.8197 113.844L27.2782 110.862L27.208 109.168L28.2378 107.805L25.7029 107.287L26.5181 105.728L25.8919 102.767L27.8781 103.374L27.3089 99.6783L26.0861 99.2073L26.4032 101.436L25.3342 101.19L24.8628 98.6516L24.2346 95.3239L24.5633 94.0788L23.5472 92.3355L22.804 90.3077L23.4746 90.2179L23.6418 87.3079L23.992 84.3965L24.008 81.7135L22.9864 78.9817L23.1613 77.4837L22.5085 75.2575L23.0456 73.0507L22.752 69.551L22.7314 65.7669L22.74 61.7284L22.2663 58.7666L21.6117 56.2016L22.4633 55.7434L22.7938 54.809L23.7768 56.0442L24.1499 57.3405L25.1302 58.0957L24.8042 59.8491L25.9439 61.8739L26.9032 64.3802L28.0916 64.1172Z" fill="#F8F8F8" stroke="black" stroke-width="0.2" stroke-linecap="round" stroke-linejoin="round"/>
<path d="M47.032 18.5642L47.4853 17.7701L47.6334 16.95L47.9343 16.1853L47.2878 15.1169L47.1896 13.8751L48.1268 12.3148L48.7074 12.5082L49.9604 12.9224L51.7685 14.4339L52.0166 15.1663L50.9885 16.8402L50.4466 18.1716L49.7793 18.8826L48.9563 19.0017L48.7095 18.4952L48.3126 18.4417L47.7967 18.9256L47.032 18.5642Z" fill="#F8F8F8" stroke="black" stroke-width="0.2" stroke-linecap="round" stroke-linejoin="round"/>
<path d="M52.9881 115.217L53.2016 115.215L53.263 115.271L53.3237 115.214L53.3848 115.242L53.4463 115.327L53.3855 115.356L53.2633 115.328L53.1409 115.272L52.8968 115.246L52.927 115.189L52.9881 115.217Z" fill="#F8F8F8" stroke="black" stroke-width="0.2" stroke-linecap="round" stroke-linejoin="round"/>
</svg>
