<svg width="178" height="20" viewBox="0 0 178 20" fill="none" xmlns="http://www.w3.org/2000/svg">
<path fill-rule="evenodd" clip-rule="evenodd" d="M173.269 11.1768C170.358 11.0773 167.858 10.9203 165.353 10.9213C158.32 10.9209 151.284 11.0015 144.252 11.0201C140.135 11.031 136.01 11.2781 131.912 10.8128C130.734 10.6797 129.489 10.7787 128.28 10.7461C126.103 10.6897 123.928 10.6132 121.751 10.5468C120.903 10.5203 120.055 10.4638 119.207 10.4794C114.118 10.5715 109.028 10.7107 103.935 10.7689C102.098 10.7899 100.657 11.1465 99.523 12.139C98.3489 13.1641 97.0663 14.1376 95.8021 15.1179C95.3711 15.4517 94.7915 15.5626 94.1903 15.3088C93.5875 15.055 93.4169 14.4502 93.8908 14.0437C94.5583 13.4716 95.3097 12.9414 96.0077 12.3838C96.3709 12.0919 96.6989 11.7784 97.1533 11.3782C95.1442 10.9224 93.7246 10.9647 92.577 12.1534C91.733 13.025 90.5809 13.7687 89.5478 14.5598C89.3166 14.739 89.0286 14.9869 88.733 15.0109C88.1889 15.0563 87.592 15.0054 87.0865 14.8803C86.98 14.8537 87.0128 14.2592 87.2406 14.0491C87.8821 13.4653 88.6778 12.9585 89.3667 12.3981C89.6533 12.1671 89.8284 11.8777 90.1809 11.4669C88.6259 11.037 87.159 11.282 85.7904 11.1715C84.4825 11.0653 83.1347 11.1426 81.8041 11.1467C80.3581 11.1504 78.9127 11.187 77.4694 11.1676C71.2898 11.0836 65.1109 10.9336 58.932 10.9045C52.5149 10.8747 46.0926 11.018 39.6767 10.9642C36.4111 10.9366 33.1551 10.8358 29.879 10.9323C28.5732 10.9711 27.5381 11.1762 26.5792 11.7323C23.5623 13.4804 20.5881 15.252 18.1881 17.5118C14.6822 17.8845 11.1084 18.1841 7.45285 17.8207C5.67216 17.6439 3.82104 17.7561 2.00715 17.7037C1.19811 17.6807 1.20062 17.6417 0.221542 16.7179C3.28012 14.5741 6.34771 12.4243 9.43935 10.257C8.36354 8.24448 6.97571 6.49218 5.46553 4.78354C4.73665 3.96037 3.89157 3.18478 3.10685 2.38337C2.84833 2.11786 2.57767 1.85151 2.39016 1.56303C2.05393 1.04956 2.75596 0.343949 3.60448 0.36942C4.32245 0.390665 5.05753 0.443685 5.73767 0.583455C9.12621 1.28247 12.6024 1.50825 16.1288 1.29931C17.4311 1.22261 18.5066 1.42401 19.6189 1.87794C19.9792 2.4921 20.218 3.20191 20.7826 3.77029C21.3625 4.35647 22.2203 4.83486 23.0293 5.30691C25.192 6.56863 27.3546 7.83436 29.6118 9.0208C30.2124 9.33466 31.1539 9.50588 31.9384 9.50522C40.423 9.49692 48.9105 9.47457 57.3926 9.3883C63.9403 9.32131 70.4863 9.23234 77.0144 9.61067C78.4584 9.69405 79.9219 9.64116 81.3772 9.65638C83.7962 9.68251 86.2152 9.72164 88.6325 9.7368C89.8389 9.7444 91.0477 9.70797 92.3387 9.69042C94.3112 8.13148 96.4954 6.73367 97.6804 4.83739C97.8571 4.55496 98.1578 4.23984 98.5352 4.0937C98.8944 3.9538 99.5369 3.89707 99.8618 4.02166C100.165 4.13855 100.451 4.59971 100.329 4.80539C99.9851 5.38912 99.4797 5.94103 98.9437 6.46437C98.0691 7.31533 97.1167 8.13335 96.1575 9.00346C99.0323 9.63546 99.6476 9.58409 101.114 8.51007C102.903 7.19963 104.694 5.88018 105.62 4.02942C106.065 4.07137 106.693 4.01184 106.888 4.1762C107.217 4.45274 107.51 4.91181 107.387 5.22051C107.174 5.74345 106.677 6.23225 106.201 6.69177C105.458 7.40893 104.634 8.08818 103.909 8.72711C104.2 9.36321 104.889 9.26584 105.442 9.25432C108.594 9.19048 111.748 9.0116 114.895 9.03583C121.317 9.08557 127.736 9.24536 134.159 9.35009C138.03 9.41448 141.905 9.50682 145.777 9.5072C154.505 9.5076 163.232 9.461 171.959 9.4234C172.637 9.42019 173.32 9.32689 174.273 9.25593C173.496 7.69234 171.935 6.69747 170.655 5.58776C169.855 4.89357 168.973 4.2365 168.247 3.51129C167.938 3.20347 167.796 2.75836 167.831 2.38484C167.855 2.13249 168.256 1.77302 168.612 1.68316C168.966 1.59434 169.754 1.69266 169.88 1.86295C171.964 4.6779 175.961 6.59976 177.996 9.67238C177.755 10.0017 177.537 10.5667 177.025 10.9677C173.875 13.4227 170.67 15.8465 167.46 18.2654C167.067 18.5607 166.579 18.8554 166.045 18.9916C165.694 19.0814 165.112 18.9533 164.762 18.7981C164.562 18.7098 164.469 18.315 164.598 18.1512C164.931 17.7327 165.358 17.3288 165.854 16.9871C167.204 16.0586 168.609 15.1655 169.993 14.2586C171.208 13.464 172.327 12.6287 173.269 11.1768ZM15.1709 3.38652C15.1737 3.5865 15.1237 3.8192 15.1888 4.03534C15.7623 5.93172 17.0419 7.64349 18.2959 9.36761C19.3767 10.8531 19.2411 11.1469 17.3365 12.2339C17.0595 12.3917 16.7089 12.4985 16.4685 12.6747C15.0833 13.6857 13.7134 14.7064 12.3649 15.7378C12.2447 15.8294 12.3065 16.0226 12.2575 16.3243C13.9385 16.4195 15.5863 16.4201 16.8999 15.6102C19.5707 13.9637 22.1833 12.274 24.7561 10.5589C25.2237 10.2465 25.3791 9.73038 25.6113 9.40219C25.4147 9.11584 25.3713 8.93641 25.2091 8.83361C22.3803 7.00788 19.0598 5.51186 16.8234 3.28605C16.5051 2.97235 15.7379 3.01078 15.1709 3.38652ZM6.73854 2.77406C8.86952 5.16932 11.1975 7.5449 12.6107 10.2739C12.177 10.6239 11.8233 10.9417 11.4175 11.2283C9.6772 12.461 7.89103 13.6684 6.18746 14.9227C5.76532 15.2334 5.57872 15.683 5.26716 16.0913C7.17514 16.4804 8.52631 16.311 9.59074 15.2534C10.257 14.5953 11.2316 14.073 12.0443 13.4759C13.3319 12.5334 14.5995 11.58 15.8117 10.6795C14.4803 8.05934 13.233 5.59406 11.9717 3.11297C10.3454 2.90405 8.81326 2.70386 7.27824 2.5167C7.19617 2.50681 7.08219 2.60537 6.73854 2.77406Z" fill="#9D9D9C"/>
</svg>
