<svg width="137" height="35" viewBox="0 0 137 35" fill="none" xmlns="http://www.w3.org/2000/svg">
<path d="M137 19C137 27.2843 130.06 34 121.5 34C112.94 34 106 27.2843 106 19C106 10.7157 112.94 4 121.5 4C130.06 4 137 10.7157 137 19Z" fill="#2771B5"/>
<path d="M9.854 23.686L15.3486 5.96094H19.9653L12.1851 28H9.1123L9.854 23.686ZM4.7832 5.96094L10.2476 23.686L11.0347 28H7.93164L0.181641 5.96094H4.7832ZM25.2414 11.6221V28H21.2302V11.6221H25.2414ZM20.9577 7.33838C20.9577 6.743 21.1595 6.24854 21.5632 5.85498C21.9769 5.46143 22.5319 5.26465 23.2282 5.26465C23.9245 5.26465 24.4745 5.46143 24.8781 5.85498C25.2918 6.24854 25.4987 6.743 25.4987 7.33838C25.4987 7.92367 25.2918 8.41309 24.8781 8.80664C24.4745 9.2002 23.9245 9.39697 23.2282 9.39697C22.5319 9.39697 21.9769 9.2002 21.5632 8.80664C21.1595 8.41309 20.9577 7.92367 20.9577 7.33838ZM37.1473 24.5186V16.9653C37.1473 16.4103 37.0515 15.931 36.8597 15.5273C36.668 15.1237 36.3754 14.8109 35.9818 14.5889C35.5882 14.3669 35.0887 14.2559 34.4833 14.2559C33.9484 14.2559 33.4792 14.3467 33.0755 14.5283C32.682 14.71 32.3793 14.9673 32.1673 15.3003C31.9554 15.6232 31.8495 15.9966 31.8495 16.4204H27.8382C27.8382 15.7443 27.9997 15.1035 28.3226 14.498C28.6455 13.8825 29.1047 13.3376 29.7001 12.8633C30.3055 12.3789 31.027 12.0005 31.8646 11.728C32.7123 11.4556 33.6608 11.3193 34.7103 11.3193C35.9515 11.3193 37.0565 11.5312 38.0253 11.9551C39.0041 12.3688 39.771 12.9945 40.326 13.832C40.8911 14.6696 41.1737 15.7241 41.1737 16.9956V24.1401C41.1737 24.9575 41.2241 25.6589 41.3251 26.2441C41.4361 26.8193 41.5975 27.3188 41.8094 27.7427V28H37.7377C37.5459 27.5863 37.3996 27.0615 37.2987 26.4258C37.1978 25.7799 37.1473 25.1442 37.1473 24.5186ZM37.7074 18.0249L37.7377 20.4014H35.2098C34.5842 20.4014 34.0342 20.467 33.5599 20.5981C33.0856 20.7192 32.6971 20.9009 32.3944 21.1431C32.0917 21.3752 31.8646 21.6577 31.7132 21.9907C31.5619 22.3136 31.4862 22.682 31.4862 23.0957C31.4862 23.4993 31.577 23.8626 31.7587 24.1855C31.9504 24.5085 32.2228 24.7658 32.576 24.9575C32.9393 25.1392 33.3631 25.23 33.8475 25.23C34.5539 25.23 35.1695 25.0887 35.6942 24.8062C36.2189 24.5135 36.6276 24.1603 36.9203 23.7466C37.2129 23.3328 37.3693 22.9393 37.3895 22.5659L38.5399 24.2915C38.3986 24.7052 38.1867 25.1442 37.9042 25.6084C37.6216 26.0726 37.2583 26.5065 36.8143 26.9102C36.3703 27.3138 35.8355 27.6468 35.2098 27.9092C34.5842 28.1715 33.8576 28.3027 33.0301 28.3027C31.9706 28.3027 31.022 28.0908 30.1844 27.667C29.3469 27.2432 28.6859 26.6629 28.2015 25.9263C27.7171 25.1896 27.475 24.3521 27.475 23.4136C27.475 22.5457 27.6364 21.7788 27.9593 21.1128C28.2823 20.4468 28.7616 19.8867 29.3973 19.4326C30.0331 18.9684 30.8202 18.6203 31.7587 18.3882C32.7072 18.146 33.792 18.0249 35.013 18.0249H37.7074ZM44.043 11.6221H48.0694V29.2109C48.0694 30.3714 47.8575 31.3553 47.4336 32.1626C47.0199 32.9699 46.4195 33.5804 45.6324 33.9941C44.8453 34.4079 43.8815 34.6147 42.7412 34.6147C42.3881 34.6147 42.0349 34.5946 41.6817 34.5542C41.3285 34.5138 40.9803 34.4482 40.6372 34.3574L40.6524 31.2695C40.8744 31.3099 41.1014 31.3402 41.3335 31.3604C41.5656 31.3906 41.7977 31.4058 42.0298 31.4058C42.4637 31.4058 42.827 31.3301 43.1197 31.1787C43.4224 31.0273 43.6495 30.7902 43.8008 30.4673C43.9623 30.1444 44.043 29.7256 44.043 29.2109V11.6221ZM43.71 7.33838C43.71 6.743 43.9118 6.24854 44.3155 5.85498C44.7292 5.46143 45.2842 5.26465 45.9805 5.26465C46.6768 5.26465 47.2268 5.46143 47.6304 5.85498C48.0441 6.24854 48.251 6.743 48.251 7.33838C48.251 7.92367 48.0441 8.41309 47.6304 8.80664C47.2268 9.2002 46.6768 9.39697 45.9805 9.39697C45.2842 9.39697 44.7292 9.2002 44.3155 8.80664C43.9118 8.41309 43.71 7.92367 43.71 7.33838ZM58.2043 28.3027C56.9631 28.3027 55.848 28.1009 54.8591 27.6973C53.8702 27.2936 53.0276 26.7336 52.3313 26.0171C51.6451 25.2905 51.1153 24.4479 50.7419 23.4893C50.3786 22.5205 50.197 21.4811 50.197 20.3711V19.7656C50.197 18.5042 50.3786 17.3589 50.7419 16.3296C51.1052 15.2902 51.6198 14.3971 52.2859 13.6504C52.9519 12.9036 53.7491 12.3285 54.6775 11.9248C55.6058 11.5212 56.6301 11.3193 57.7502 11.3193C58.9107 11.3193 59.9349 11.5161 60.823 11.9097C61.711 12.2931 62.4527 12.8381 63.0481 13.5444C63.6434 14.2508 64.0925 15.0985 64.3952 16.0874C64.698 17.0662 64.8493 18.151 64.8493 19.3418V21.022H52.0134V18.2671H60.9138V17.9644C60.8936 17.3286 60.7725 16.7484 60.5505 16.2236C60.3285 15.6888 59.9854 15.265 59.5212 14.9521C59.057 14.6292 58.4566 14.4678 57.7199 14.4678C57.1246 14.4678 56.6049 14.599 56.1609 14.8613C55.7269 15.1136 55.3637 15.4769 55.071 15.9512C54.7885 16.4154 54.5765 16.9704 54.4353 17.6162C54.294 18.262 54.2234 18.9785 54.2234 19.7656V20.3711C54.2234 21.0573 54.3142 21.693 54.4958 22.2783C54.6876 22.8636 54.9651 23.3732 55.3283 23.8071C55.7017 24.231 56.1457 24.564 56.6604 24.8062C57.1851 25.0382 57.7805 25.1543 58.4465 25.1543C59.2841 25.1543 60.0409 24.9928 60.717 24.6699C61.4032 24.3369 61.9986 23.8475 62.5031 23.2017L64.5163 25.2905C64.1732 25.7951 63.709 26.2795 63.1237 26.7437C62.5486 27.2078 61.8523 27.5863 61.0349 27.8789C60.2175 28.1615 59.274 28.3027 58.2043 28.3027ZM76.1244 11.6221V13.1055H67.9203V11.6221H76.1244ZM70.9325 7.41406H72.7337V24.019C72.7337 24.7759 72.8347 25.346 73.0365 25.7295C73.2383 26.113 73.5007 26.3703 73.8236 26.5015C74.1465 26.6326 74.4947 26.6982 74.868 26.6982C75.1405 26.6982 75.4029 26.6831 75.6551 26.6528C75.9074 26.6125 76.1345 26.5721 76.3363 26.5317L76.412 28.0605C76.19 28.1312 75.9024 28.1867 75.5492 28.2271C75.196 28.2775 74.8428 28.3027 74.4896 28.3027C73.7933 28.3027 73.1778 28.1766 72.6429 27.9243C72.1081 27.6619 71.6893 27.2179 71.3866 26.5923C71.0838 25.9565 70.9325 25.0938 70.9325 24.0039V7.41406ZM82.5569 11.6221V28H80.7556V11.6221H82.5569ZM80.4377 6.88428C80.4377 6.54118 80.5437 6.25358 80.7556 6.02148C80.9776 5.7793 81.2803 5.6582 81.6638 5.6582C82.0473 5.6582 82.35 5.7793 82.572 6.02148C82.8041 6.25358 82.9202 6.54118 82.9202 6.88428C82.9202 7.21729 82.8041 7.50488 82.572 7.74707C82.35 7.97917 82.0473 8.09521 81.6638 8.09521C81.2803 8.09521 80.9776 7.97917 80.7556 7.74707C80.5437 7.50488 80.4377 7.21729 80.4377 6.88428ZM89.9127 14.7705V34.2969H88.0963V11.6221H89.7916L89.9127 14.7705ZM101.296 19.6597V19.9775C101.296 21.1986 101.154 22.3187 100.872 23.3379C100.589 24.3571 100.18 25.2401 99.6456 25.9868C99.1209 26.7235 98.47 27.2936 97.693 27.6973C96.916 28.1009 96.033 28.3027 95.0441 28.3027C94.0652 28.3027 93.1923 28.1514 92.4254 27.8486C91.6585 27.5459 90.9975 27.117 90.4425 26.562C89.8976 25.9969 89.4586 25.341 89.1256 24.5942C88.8027 23.8374 88.5756 23.0099 88.4445 22.1118V17.9189C88.5958 16.93 88.8431 16.0319 89.1861 15.2246C89.5292 14.4173 89.9682 13.721 90.503 13.1357C91.048 12.5505 91.6938 12.1014 92.4405 11.7886C93.1873 11.4757 94.04 11.3193 94.9986 11.3193C95.9977 11.3193 96.8857 11.5161 97.6627 11.9097C98.4498 12.2931 99.1108 12.8532 99.6456 13.5898C100.191 14.3164 100.599 15.1943 100.872 16.2236C101.154 17.2428 101.296 18.3882 101.296 19.6597ZM99.4791 19.9775V19.6597C99.4791 18.701 99.3782 17.813 99.1764 16.9956C98.9847 16.1782 98.687 15.4668 98.2833 14.8613C97.8898 14.2458 97.3852 13.7664 96.7696 13.4233C96.1642 13.0802 95.4427 12.9087 94.6051 12.9087C93.7373 12.9087 92.9956 13.055 92.38 13.3477C91.7745 13.6302 91.27 14.0086 90.8663 14.4829C90.4627 14.9471 90.1448 15.4567 89.9127 16.0117C89.6806 16.5667 89.5091 17.1117 89.3981 17.6465V22.4751C89.5898 23.242 89.8976 23.9535 90.3214 24.6094C90.7452 25.2552 91.3103 25.7749 92.0167 26.1685C92.7332 26.5519 93.6061 26.7437 94.6354 26.7437C95.4628 26.7437 96.1793 26.5721 96.7848 26.229C97.3903 25.8859 97.8898 25.4066 98.2833 24.791C98.687 24.1755 98.9847 23.459 99.1764 22.6416C99.3782 21.8242 99.4791 20.9362 99.4791 19.9775Z" fill="white"/>
<path d="M124.8 19.033L120.342 25.6411L118.591 25.6321L120.836 19.0127L116.144 18.9886L114.672 21.4677L113.359 21.461L114.254 17.7356L113.397 14.0013L114.71 14.0081L116.157 16.5021L120.85 16.5261L118.671 9.88404L120.422 9.89302L124.812 16.5465L129.581 16.5709C129.93 16.5727 130.263 16.7054 130.508 16.9398C130.753 17.1742 130.89 17.4912 130.888 17.8209C130.886 18.1506 130.746 18.4662 130.499 18.6981C130.251 18.93 129.917 19.0592 129.568 19.0574L124.8 19.033Z" fill="white"/>
</svg>
