<svg width="25" height="20" viewBox="0 0 25 20" fill="none" xmlns="http://www.w3.org/2000/svg">
<path d="M12.5 0C16.875 0 20.8334 3.22 20.8334 8.2C20.8334 11.52 18.0521 15.45 12.5 20C6.94794 15.45 4.16669 11.52 4.16669 8.2C4.16669 3.22 8.12502 0 12.5 0ZM18.75 8.2C18.75 4.57 15.9896 2 12.5 2C9.01044 2 6.25002 4.57 6.25002 8.2C6.25002 10.54 8.28127 13.64 12.5 17.34C16.7188 13.64 18.75 10.54 18.75 8.2ZM12.5 10C11.3542 10 10.4167 9.1 10.4167 8C10.4167 6.9 11.3542 6 12.5 6C13.6459 6 14.5834 6.9 14.5834 8C14.5834 9.1 13.6459 10 12.5 10Z" fill="#E4A951"/>
<path d="M18.75 6.7C18.75 9.27 16.5625 12.49 12.3333 16.21L11.9791 16.51L11.625 16.2C7.39581 12.49 5.20831 9.27 5.20831 6.7C5.20831 2.86 8.14581 0 11.9791 0C15.8125 0 18.75 2.85 18.75 6.7Z" fill="#E4A951" fill-opacity="0.3"/>
</svg>
