<svg width="16" height="15" viewBox="0 0 16 15" fill="none" xmlns="http://www.w3.org/2000/svg">
<path d="M14.7676 12.1684C14.3991 11.3393 13.8645 10.5862 13.1933 9.95107C12.5243 9.31411 11.7317 8.80626 10.8594 8.45557C10.8516 8.45186 10.8437 8.45 10.8359 8.44629C12.0527 7.61133 12.8437 6.25127 12.8437 4.7168C12.8437 2.1748 10.6758 0.115234 7.99999 0.115234C5.32421 0.115234 3.15624 2.1748 3.15624 4.7168C3.15624 6.25127 3.94725 7.61133 5.16405 8.44814C5.15624 8.45185 5.14843 8.45371 5.14061 8.45742C4.26561 8.80811 3.48046 9.31094 2.80663 9.95293C2.13614 10.5886 1.60156 11.3415 1.23241 12.1702C0.869758 12.9815 0.674171 13.8514 0.656238 14.7326C0.655717 14.7524 0.659373 14.7721 0.666991 14.7906C0.67461 14.809 0.686037 14.8258 0.700598 14.84C0.715159 14.8542 0.732561 14.8654 0.751777 14.8731C0.770994 14.8808 0.791636 14.8848 0.812488 14.8848H1.98436C2.0703 14.8848 2.13866 14.8198 2.14061 14.74C2.17968 13.3076 2.78514 11.9661 3.85546 10.9493C4.96288 9.89727 6.43358 9.31836 7.99999 9.31836C9.56639 9.31836 11.0371 9.89727 12.1445 10.9493C13.2148 11.9661 13.8203 13.3076 13.8594 14.74C13.8613 14.8217 13.9297 14.8848 14.0156 14.8848H15.1875C15.2083 14.8848 15.229 14.8808 15.2482 14.8731C15.2674 14.8654 15.2848 14.8542 15.2994 14.84C15.3139 14.8258 15.3254 14.809 15.333 14.7906C15.3406 14.7721 15.3443 14.7524 15.3437 14.7326C15.3242 13.8457 15.1308 12.9829 14.7676 12.1684ZM7.99999 7.9082C7.1035 7.9082 6.25975 7.57607 5.62499 6.97305C4.99022 6.37002 4.64061 5.56846 4.64061 4.7168C4.64061 3.86514 4.99022 3.06357 5.62499 2.46055C6.25975 1.85752 7.1035 1.52539 7.99999 1.52539C8.89647 1.52539 9.74022 1.85752 10.375 2.46055C11.0098 3.06357 11.3594 3.86514 11.3594 4.7168C11.3594 5.56846 11.0098 6.37002 10.375 6.97305C9.74022 7.57607 8.89647 7.9082 7.99999 7.9082Z" fill="#FFD466"/>
</svg>
