<svg width="28" height="28" viewBox="0 0 28 28" fill="none" xmlns="http://www.w3.org/2000/svg">
<path d="M25.9062 0.71875H2.09375C1.71875 0.71875 1.39583 0.854167 1.125 1.125C0.854167 1.39583 0.71875 1.71875 0.71875 2.09375V25.9062C0.71875 26.2812 0.854167 26.6042 1.125 26.875C1.39583 27.1458 1.71875 27.2812 2.09375 27.2812H25.9062C26.2812 27.2812 26.6042 27.1458 26.875 26.875C27.1458 26.6042 27.2812 26.2812 27.2812 25.9062V2.09375C27.2812 1.71875 27.1458 1.39583 26.875 1.125C26.6042 0.854167 26.2812 0.71875 25.9062 0.71875ZM26.3125 25.9062C26.3125 26.0104 26.2708 26.1042 26.1875 26.1875C26.1042 26.2708 26.0104 26.3125 25.9062 26.3125H2.09375C1.98958 26.3125 1.89583 26.2708 1.8125 26.1875C1.72917 26.1042 1.6875 26.0104 1.6875 25.9062V2.09375C1.6875 1.98958 1.72917 1.89583 1.8125 1.8125C1.89583 1.72917 1.98958 1.6875 2.09375 1.6875H25.9062C26.0104 1.6875 26.1042 1.72917 26.1875 1.8125C26.2708 1.89583 26.3125 1.98958 26.3125 2.09375C26.3125 2.09375 26.3125 3.33333 26.3125 5.8125C26.3125 8.29167 26.3125 11.0208 26.3125 14C26.3125 16.9792 26.3125 19.7083 26.3125 22.1875C26.3125 24.6667 26.3125 25.9062 26.3125 25.9062ZM14 3.90625C12.6042 3.90625 11.2917 4.17708 10.0625 4.71875C8.85417 5.23958 7.79167 5.95833 6.875 6.875C5.95833 7.79167 5.23958 8.85417 4.71875 10.0625C4.17708 11.2917 3.90625 12.6042 3.90625 14C3.90625 15.3958 4.17708 16.7083 4.71875 17.9375C5.23958 19.1458 5.95833 20.2083 6.875 21.125C7.79167 22.0417 8.85417 22.7604 10.0625 23.2812C11.2917 23.8229 12.6042 24.0938 14 24.0938C15.3958 24.0938 16.7083 23.8229 17.9375 23.2812C19.1458 22.7604 20.2083 22.0417 21.125 21.125C22.0417 20.2083 22.7604 19.1458 23.2812 17.9375C23.8229 16.7083 24.0938 15.3958 24.0938 14C24.0938 12.6042 23.8229 11.2917 23.2812 10.0625C22.7604 8.85417 22.0417 7.79167 21.125 6.875C20.2083 5.95833 19.1458 5.23958 17.9375 4.71875C16.7083 4.17708 15.3958 3.90625 14 3.90625ZM14.3125 4.875V6.8125C14.3125 6.89583 14.2812 6.96875 14.2188 7.03125C14.1771 7.09375 14.1042 7.125 14 7.125C13.8958 7.125 13.8125 7.09375 13.75 7.03125C13.7083 6.96875 13.6875 6.89583 13.6875 6.8125V4.875C13.7292 4.875 13.7812 4.875 13.8438 4.875C13.9062 4.875 13.9583 4.875 14 4.875C14.0417 4.875 14.0938 4.875 14.1562 4.875C14.2188 4.875 14.2708 4.875 14.3125 4.875ZM13.6875 23.125V21.1875C13.6875 21.1042 13.7083 21.0312 13.75 20.9688C13.8125 20.9062 13.8958 20.875 14 20.875C14.1042 20.875 14.1771 20.9062 14.2188 20.9688C14.2812 21.0312 14.3125 21.1042 14.3125 21.1875V23.125C14.2708 23.125 14.2188 23.125 14.1562 23.125C14.0938 23.125 14.0417 23.125 14 23.125C13.9583 23.125 13.9062 23.125 13.8438 23.125C13.7812 23.125 13.7292 23.125 13.6875 23.125ZM15.2812 23.0312V21.1875C15.2812 20.8542 15.1562 20.5625 14.9062 20.3125C14.6562 20.0417 14.3542 19.9062 14 19.9062C13.6458 19.9062 13.3438 20.0417 13.0938 20.3125C12.8438 20.5625 12.7188 20.8542 12.7188 21.1875V23.0312C11.6146 22.8646 10.5833 22.5208 9.625 22C8.66667 21.4583 7.83333 20.7917 7.125 20C6.4375 19.1875 5.88542 18.2708 5.46875 17.25C5.07292 16.2292 4.875 15.1458 4.875 14C4.875 12.8542 5.07292 11.7604 5.46875 10.7188C5.88542 9.69792 6.4375 8.79167 7.125 8C7.83333 7.1875 8.66667 6.52083 9.625 6C10.5833 5.47917 11.6146 5.13542 12.7188 4.96875V6.8125C12.7188 7.14583 12.8438 7.44792 13.0938 7.71875C13.3438 7.96875 13.6458 8.09375 14 8.09375C14.3542 8.09375 14.6562 7.96875 14.9062 7.71875C15.1562 7.44792 15.2812 7.14583 15.2812 6.8125V4.96875C16.3854 5.13542 17.4167 5.47917 18.375 6C19.3333 6.54167 20.1562 7.21875 20.8438 8.03125C21.5521 8.82292 22.1146 9.72917 22.5312 10.75C22.9271 11.7708 23.125 12.8542 23.125 14C23.125 15.1458 22.9271 16.2396 22.5312 17.2812C22.1146 18.3021 21.5521 19.2188 20.8438 20.0312C20.1562 20.8229 19.3333 21.4792 18.375 22C17.4167 22.5208 16.3854 22.8646 15.2812 23.0312ZM9.1875 11.9062C8.625 11.9062 8.13542 12.1146 7.71875 12.5312C7.32292 12.9271 7.125 13.4167 7.125 14C7.125 14.5833 7.32292 15.0833 7.71875 15.5C8.13542 15.8958 8.625 16.0938 9.1875 16.0938C9.77083 16.0938 10.2604 15.8958 10.6562 15.5C11.0729 15.0833 11.2812 14.5833 11.2812 14C11.2812 13.4167 11.0729 12.9271 10.6562 12.5312C10.2604 12.1146 9.77083 11.9062 9.1875 11.9062ZM18.8125 11.9062C18.2292 11.9062 17.7292 12.1146 17.3125 12.5312C16.9167 12.9271 16.7188 13.4167 16.7188 14C16.7188 14.5833 16.9167 15.0833 17.3125 15.5C17.7292 15.8958 18.2292 16.0938 18.8125 16.0938C19.375 16.0938 19.8542 15.8958 20.25 15.5C20.6667 15.0833 20.875 14.5833 20.875 14C20.875 13.4167 20.6667 12.9271 20.25 12.5312C19.8542 12.1146 19.375 11.9062 18.8125 11.9062Z" fill="black"/>
</svg>
