<svg width="28" height="28" viewBox="0 0 28 28" fill="none" xmlns="http://www.w3.org/2000/svg">
<path d="M25.9688 0.71875H2.03125C1.65625 0.71875 1.34375 0.84375 1.09375 1.09375C0.84375 1.34375 0.71875 1.65625 0.71875 2.03125V25.9688C0.71875 26.3438 0.84375 26.6562 1.09375 26.9062C1.34375 27.1562 1.65625 27.2812 2.03125 27.2812H25.9688C26.3438 27.2812 26.6562 27.1562 26.9062 26.9062C27.1562 26.6562 27.2812 26.3438 27.2812 25.9688V2.03125C27.2812 1.65625 27.1562 1.34375 26.9062 1.09375C26.6562 0.84375 26.3438 0.71875 25.9688 0.71875ZM26.4688 25.9688C26.4688 26.1146 26.4167 26.2396 26.3125 26.3438C26.2292 26.4271 26.1146 26.4688 25.9688 26.4688H2.03125C1.88542 26.4688 1.76042 26.4271 1.65625 26.3438C1.57292 26.2396 1.53125 26.1146 1.53125 25.9688V2.03125C1.53125 1.88542 1.57292 1.77083 1.65625 1.6875C1.76042 1.58333 1.88542 1.53125 2.03125 1.53125H25.9688C26.1146 1.53125 26.2292 1.58333 26.3125 1.6875C26.4167 1.77083 26.4688 1.88542 26.4688 2.03125V25.9688ZM12.9062 21.5312H15.0938V15.9375H12.9062V21.5312ZM16.0312 11.4375L19.9375 15.375L21.5 13.8438L17.5625 9.90625L16.0312 11.4375ZM6.46875 13.8438L8.03125 15.375L11.9375 11.4375L10.4062 9.90625L6.46875 13.8438Z" fill="black"/>
</svg>
