<svg width="28" height="28" viewBox="0 0 28 28" fill="none" xmlns="http://www.w3.org/2000/svg">
<path d="M2.09375 27.2812H25.9062C26.2812 27.2812 26.6042 27.1458 26.875 26.875C27.1458 26.6042 27.2812 26.2812 27.2812 25.9062V2.09375C27.2812 1.71875 27.1458 1.39583 26.875 1.125C26.6042 0.854167 26.2812 0.71875 25.9062 0.71875H2.09375C1.71875 0.71875 1.39583 0.854167 1.125 1.125C0.854167 1.39583 0.71875 1.71875 0.71875 2.09375V25.9062C0.71875 26.2812 0.854167 26.6042 1.125 26.875C1.39583 27.1458 1.71875 27.2812 2.09375 27.2812ZM1.6875 2.09375C1.6875 1.98958 1.72917 1.89583 1.8125 1.8125C1.89583 1.72917 1.98958 1.6875 2.09375 1.6875H25.9062C26.0104 1.6875 26.1042 1.72917 26.1875 1.8125C26.2708 1.89583 26.3125 1.98958 26.3125 2.09375V25.9062C26.3125 26.0104 26.2708 26.1042 26.1875 26.1875C26.1042 26.2708 26.0104 26.3125 25.9062 26.3125H2.09375C1.98958 26.3125 1.89583 26.2708 1.8125 26.1875C1.72917 26.1042 1.6875 26.0104 1.6875 25.9062C1.6875 25.9062 1.6875 24.6667 1.6875 22.1875C1.6875 19.7083 1.6875 16.9792 1.6875 14C1.6875 11.0208 1.6875 8.29167 1.6875 5.8125C1.6875 3.33333 1.6875 2.09375 1.6875 2.09375ZM19.125 14.5312C19.5833 14.5312 19.9792 14.3646 20.3125 14.0312C20.6458 13.6979 20.8125 13.3021 20.8125 12.8438C20.8125 12.3854 20.6458 11.9896 20.3125 11.6562C19.9792 11.3229 19.5833 11.1562 19.125 11.1562C18.6667 11.1562 18.2708 11.3229 17.9375 11.6562C17.6042 11.9896 17.4375 12.3854 17.4375 12.8438C17.4375 13.3021 17.6042 13.6979 17.9375 14.0312C18.2708 14.3646 18.6667 14.5312 19.125 14.5312ZM8.875 14.5312C9.33333 14.5312 9.72917 14.3646 10.0625 14.0312C10.3958 13.6979 10.5625 13.3021 10.5625 12.8438C10.5625 12.3854 10.3958 11.9896 10.0625 11.6562C9.72917 11.3229 9.33333 11.1562 8.875 11.1562C8.41667 11.1562 8.02083 11.3229 7.6875 11.6562C7.35417 11.9896 7.1875 12.3854 7.1875 12.8438C7.1875 13.3021 7.35417 13.6979 7.6875 14.0312C8.02083 14.3646 8.41667 14.5312 8.875 14.5312ZM14 18.7188C14.4583 18.7188 14.8542 18.5521 15.1875 18.2188C15.5208 17.8854 15.6875 17.4792 15.6875 17C15.6875 16.5417 15.5208 16.1458 15.1875 15.8125C14.8542 15.4792 14.4583 15.3125 14 15.3125C13.5417 15.3125 13.1458 15.4792 12.8125 15.8125C12.4792 16.1458 12.3125 16.5417 12.3125 17C12.3125 17.4792 12.4792 17.8854 12.8125 18.2188C13.1458 18.5521 13.5417 18.7188 14 18.7188Z" fill="black"/>
</svg>
