<svg width="28" height="28" viewBox="0 0 28 28" fill="none" xmlns="http://www.w3.org/2000/svg">
<path d="M25.9062 0.71875H2.09375C1.71875 0.71875 1.39583 0.854167 1.125 1.125C0.854167 1.39583 0.71875 1.71875 0.71875 2.09375V25.9062C0.71875 26.2812 0.854167 26.6042 1.125 26.875C1.39583 27.1458 1.71875 27.2812 2.09375 27.2812H25.9062C26.2812 27.2812 26.6042 27.1458 26.875 26.875C27.1458 26.6042 27.2812 26.2812 27.2812 25.9062V2.09375C27.2812 1.71875 27.1458 1.39583 26.875 1.125C26.6042 0.854167 26.2812 0.71875 25.9062 0.71875ZM26.3125 25.9062C26.3125 26.0104 26.2708 26.1042 26.1875 26.1875C26.1042 26.2708 26.0104 26.3125 25.9062 26.3125H2.09375C1.98958 26.3125 1.89583 26.2708 1.8125 26.1875C1.72917 26.1042 1.6875 26.0104 1.6875 25.9062V2.09375C1.6875 1.98958 1.72917 1.89583 1.8125 1.8125C1.89583 1.72917 1.98958 1.6875 2.09375 1.6875H25.9062C26.0104 1.6875 26.1042 1.72917 26.1875 1.8125C26.2708 1.89583 26.3125 1.98958 26.3125 2.09375C26.3125 2.09375 26.3125 3.33333 26.3125 5.8125C26.3125 8.29167 26.3125 11.0208 26.3125 14C26.3125 16.9792 26.3125 19.7083 26.3125 22.1875C26.3125 24.6667 26.3125 25.9062 26.3125 25.9062ZM9.1875 15.5312C8.72917 15.5312 8.33333 15.6979 8 16.0312C7.66667 16.3646 7.5 16.7604 7.5 17.2188C7.5 17.6979 7.66667 18.1042 8 18.4375C8.33333 18.7708 8.72917 18.9375 9.1875 18.9375C9.66667 18.9375 10.0729 18.7708 10.4062 18.4375C10.7396 18.1042 10.9062 17.6979 10.9062 17.2188C10.9062 16.7604 10.7396 16.3646 10.4062 16.0312C10.0729 15.6979 9.66667 15.5312 9.1875 15.5312ZM18.8125 15.5312C18.3333 15.5312 17.9271 15.6979 17.5938 16.0312C17.2604 16.3646 17.0938 16.7604 17.0938 17.2188C17.0938 17.6979 17.2604 18.1042 17.5938 18.4375C17.9271 18.7708 18.3333 18.9375 18.8125 18.9375C19.2708 18.9375 19.6667 18.7708 20 18.4375C20.3333 18.1042 20.5 17.6979 20.5 17.2188C20.5 16.7604 20.3333 16.3646 20 16.0312C19.6667 15.6979 19.2708 15.5312 18.8125 15.5312ZM14 6.75C13.3125 6.75 12.7188 6.98958 12.2188 7.46875C11.7396 7.94792 11.5 8.53125 11.5 9.21875C11.5 9.90625 11.7396 10.5 12.2188 11C12.7188 11.4792 13.3125 11.7188 14 11.7188C14.6875 11.7188 15.2708 11.4792 15.75 11C16.25 10.5 16.5 9.90625 16.5 9.21875C16.5 8.53125 16.25 7.94792 15.75 7.46875C15.2708 6.98958 14.6875 6.75 14 6.75Z" fill="black"/>
</svg>
