<svg width="28" height="28" viewBox="0 0 28 28" fill="none" xmlns="http://www.w3.org/2000/svg">
<path d="M25.9062 0.71875H2.09375C1.71875 0.71875 1.39583 0.854167 1.125 1.125C0.854167 1.39583 0.71875 1.71875 0.71875 2.09375V25.9062C0.71875 26.2812 0.854167 26.6042 1.125 26.875C1.39583 27.1458 1.71875 27.2812 2.09375 27.2812H25.9062C26.2812 27.2812 26.6042 27.1458 26.875 26.875C27.1458 26.6042 27.2812 26.2812 27.2812 25.9062V2.09375C27.2812 1.71875 27.1458 1.39583 26.875 1.125C26.6042 0.854167 26.2812 0.71875 25.9062 0.71875ZM26.3125 25.9062C26.3125 26.0104 26.2708 26.1042 26.1875 26.1875C26.1042 26.2708 26.0104 26.3125 25.9062 26.3125H2.09375C1.98958 26.3125 1.89583 26.2708 1.8125 26.1875C1.72917 26.1042 1.6875 26.0104 1.6875 25.9062V2.09375C1.6875 1.98958 1.72917 1.89583 1.8125 1.8125C1.89583 1.72917 1.98958 1.6875 2.09375 1.6875H25.9062C26.0104 1.6875 26.1042 1.72917 26.1875 1.8125C26.2708 1.89583 26.3125 1.98958 26.3125 2.09375C26.3125 2.09375 26.3125 3.33333 26.3125 5.8125C26.3125 8.29167 26.3125 11.0208 26.3125 14C26.3125 16.9792 26.3125 19.7083 26.3125 22.1875C26.3125 24.6667 26.3125 25.9062 26.3125 25.9062ZM7.90625 10.75H10.4688V17.2812H7.90625V10.75ZM17.5312 11.5312H20.0938V16.5H17.5312V11.5312Z" fill="black"/>
</svg>
