<svg width="28" height="28" viewBox="0 0 28 28" fill="none" xmlns="http://www.w3.org/2000/svg">
<path d="M25.9062 0.71875H2.09375C1.71875 0.71875 1.39583 0.854167 1.125 1.125C0.854167 1.39583 0.71875 1.71875 0.71875 2.09375V25.9062C0.71875 26.2812 0.854167 26.6042 1.125 26.875C1.39583 27.1458 1.71875 27.2812 2.09375 27.2812H25.9062C26.2812 27.2812 26.6042 27.1458 26.875 26.875C27.1458 26.6042 27.2812 26.2812 27.2812 25.9062V2.09375C27.2812 1.71875 27.1458 1.39583 26.875 1.125C26.6042 0.854167 26.2812 0.71875 25.9062 0.71875ZM26.3125 25.9062C26.3125 26.0104 26.2708 26.1042 26.1875 26.1875C26.1042 26.2708 26.0104 26.3125 25.9062 26.3125H2.09375C1.98958 26.3125 1.89583 26.2708 1.8125 26.1875C1.72917 26.1042 1.6875 26.0104 1.6875 25.9062V2.09375C1.6875 1.98958 1.72917 1.89583 1.8125 1.8125C1.89583 1.72917 1.98958 1.6875 2.09375 1.6875H25.9062C26.0104 1.6875 26.1042 1.72917 26.1875 1.8125C26.2708 1.89583 26.3125 1.98958 26.3125 2.09375C26.3125 2.09375 26.3125 3.33333 26.3125 5.8125C26.3125 8.29167 26.3125 11.0208 26.3125 14C26.3125 16.9792 26.3125 19.7083 26.3125 22.1875C26.3125 24.6667 26.3125 25.9062 26.3125 25.9062ZM14 3.90625C12.6042 3.90625 11.2917 4.17708 10.0625 4.71875C8.85417 5.23958 7.79167 5.95833 6.875 6.875C5.95833 7.79167 5.23958 8.85417 4.71875 10.0625C4.17708 11.2917 3.90625 12.6042 3.90625 14C3.90625 15.3958 4.17708 16.7083 4.71875 17.9375C5.23958 19.1458 5.95833 20.2083 6.875 21.125C7.79167 22.0417 8.85417 22.7604 10.0625 23.2812C11.2917 23.8229 12.6042 24.0938 14 24.0938C15.3958 24.0938 16.7083 23.8229 17.9375 23.2812C19.1458 22.7604 20.2083 22.0417 21.125 21.125C22.0417 20.2083 22.7604 19.1458 23.2812 17.9375C23.8229 16.7083 24.0938 15.3958 24.0938 14C24.0938 12.6042 23.8229 11.2917 23.2812 10.0625C22.7604 8.85417 22.0417 7.79167 21.125 6.875C20.2083 5.95833 19.1458 5.23958 17.9375 4.71875C16.7083 4.17708 15.3958 3.90625 14 3.90625ZM14 23.125C12.75 23.125 11.5729 22.8854 10.4688 22.4062C9.34375 21.9271 8.36458 21.2812 7.53125 20.4688C6.71875 19.6354 6.07292 18.6562 5.59375 17.5312C5.11458 16.4271 4.875 15.25 4.875 14C4.875 12.75 5.11458 11.5729 5.59375 10.4688C6.07292 9.34375 6.71875 8.375 7.53125 7.5625C8.36458 6.72917 9.34375 6.07292 10.4688 5.59375C11.5729 5.11458 12.75 4.875 14 4.875C15.25 4.875 16.4271 5.11458 17.5312 5.59375C18.6562 6.07292 19.625 6.72917 20.4375 7.5625C21.2708 8.375 21.9271 9.34375 22.4062 10.4688C22.8854 11.5729 23.125 12.75 23.125 14C23.125 15.25 22.8854 16.4271 22.4062 17.5312C21.9271 18.6562 21.2708 19.6354 20.4375 20.4688C19.625 21.2812 18.6562 21.9271 17.5312 22.4062C16.4271 22.8854 15.25 23.125 14 23.125ZM9.1875 12.3438C8.72917 12.3438 8.33333 12.5104 8 12.8438C7.66667 13.1771 7.5 13.5729 7.5 14.0312C7.5 14.4896 7.66667 14.8854 8 15.2188C8.33333 15.5521 8.72917 15.7188 9.1875 15.7188C9.66667 15.7188 10.0729 15.5521 10.4062 15.2188C10.7396 14.8854 10.9062 14.4896 10.9062 14.0312C10.9062 13.5729 10.7396 13.1771 10.4062 12.8438C10.0729 12.5104 9.66667 12.3438 9.1875 12.3438ZM18.8125 12.3438C18.3333 12.3438 17.9271 12.5104 17.5938 12.8438C17.2604 13.1771 17.0938 13.5729 17.0938 14.0312C17.0938 14.4896 17.2604 14.8854 17.5938 15.2188C17.9271 15.5521 18.3333 15.7188 18.8125 15.7188C19.2708 15.7188 19.6667 15.5521 20 15.2188C20.3333 14.8854 20.5 14.4896 20.5 14.0312C20.5 13.5729 20.3333 13.1771 20 12.8438C19.6667 12.5104 19.2708 12.3438 18.8125 12.3438ZM14 6.75C13.5417 6.75 13.1458 6.91667 12.8125 7.25C12.4792 7.58333 12.3125 7.97917 12.3125 8.4375C12.3125 8.89583 12.4792 9.29167 12.8125 9.625C13.1458 9.95833 13.5417 10.125 14 10.125C14.4583 10.125 14.8542 9.95833 15.1875 9.625C15.5208 9.29167 15.6875 8.89583 15.6875 8.4375C15.6875 7.97917 15.5208 7.58333 15.1875 7.25C14.8542 6.91667 14.4583 6.75 14 6.75ZM14 9.125C13.8125 9.125 13.6354 9.0625 13.4688 8.9375C13.3229 8.79167 13.25 8.61458 13.25 8.40625C13.25 8.19792 13.3229 8.02083 13.4688 7.875C13.6146 7.72917 13.7917 7.65625 14 7.65625C14.1875 7.65625 14.3542 7.72917 14.5 7.875C14.6667 8.02083 14.75 8.19792 14.75 8.40625C14.75 8.59375 14.6667 8.76042 14.5 8.90625C14.3542 9.05208 14.1875 9.125 14 9.125Z" fill="black"/>
</svg>
