<svg width="28" height="28" viewBox="0 0 28 28" fill="none" xmlns="http://www.w3.org/2000/svg">
<path d="M25.9062 0.71875H2.09375C1.71875 0.71875 1.39583 0.854167 1.125 1.125C0.854167 1.39583 0.71875 1.71875 0.71875 2.09375V25.9062C0.71875 26.2812 0.854167 26.6042 1.125 26.875C1.39583 27.1458 1.71875 27.2812 2.09375 27.2812H25.9062C26.2812 27.2812 26.6042 27.1458 26.875 26.875C27.1458 26.6042 27.2812 26.2812 27.2812 25.9062V2.09375C27.2812 1.71875 27.1458 1.39583 26.875 1.125C26.6042 0.854167 26.2812 0.71875 25.9062 0.71875ZM26.3125 25.9062C26.3125 26.0104 26.2708 26.1042 26.1875 26.1875C26.1042 26.2708 26.0104 26.3125 25.9062 26.3125H2.09375C1.98958 26.3125 1.89583 26.2708 1.8125 26.1875C1.72917 26.1042 1.6875 26.0104 1.6875 25.9062V2.09375C1.6875 1.98958 1.72917 1.89583 1.8125 1.8125C1.89583 1.72917 1.98958 1.6875 2.09375 1.6875H25.9062C26.0104 1.6875 26.1042 1.72917 26.1875 1.8125C26.2708 1.89583 26.3125 1.98958 26.3125 2.09375C26.3125 2.09375 26.3125 3.33333 26.3125 5.8125C26.3125 8.29167 26.3125 11.0208 26.3125 14C26.3125 16.9792 26.3125 19.7083 26.3125 22.1875C26.3125 24.6667 26.3125 25.9062 26.3125 25.9062ZM14 3.90625C12.6042 3.90625 11.2917 4.17708 10.0625 4.71875C8.85417 5.23958 7.79167 5.95833 6.875 6.875C5.95833 7.79167 5.23958 8.85417 4.71875 10.0625C4.17708 11.2917 3.90625 12.6042 3.90625 14C3.90625 15.3958 4.17708 16.7083 4.71875 17.9375C5.23958 19.1458 5.95833 20.2083 6.875 21.125C7.79167 22.0417 8.85417 22.7604 10.0625 23.2812C11.2917 23.8229 12.6042 24.0938 14 24.0938C15.3958 24.0938 16.7083 23.8229 17.9375 23.2812C19.1458 22.7604 20.2083 22.0417 21.125 21.125C22.0417 20.2083 22.7604 19.1458 23.2812 17.9375C23.8229 16.7083 24.0938 15.3958 24.0938 14C24.0938 12.6042 23.8229 11.2917 23.2812 10.0625C22.7604 8.85417 22.0417 7.79167 21.125 6.875C20.2083 5.95833 19.1458 5.23958 17.9375 4.71875C16.7083 4.17708 15.3958 3.90625 14 3.90625ZM14 23.125C12.75 23.125 11.5729 22.8854 10.4688 22.4062C9.34375 21.9271 8.36458 21.2812 7.53125 20.4688C6.71875 19.6354 6.07292 18.6562 5.59375 17.5312C5.11458 16.4271 4.875 15.25 4.875 14C4.875 12.75 5.11458 11.5729 5.59375 10.4688C6.07292 9.34375 6.71875 8.375 7.53125 7.5625C8.36458 6.72917 9.34375 6.07292 10.4688 5.59375C11.5729 5.11458 12.75 4.875 14 4.875C15.25 4.875 16.4271 5.11458 17.5312 5.59375C18.6562 6.07292 19.625 6.72917 20.4375 7.5625C21.2708 8.375 21.9271 9.34375 22.4062 10.4688C22.8854 11.5729 23.125 12.75 23.125 14C23.125 15.25 22.8854 16.4271 22.4062 17.5312C21.9271 18.6562 21.2708 19.6354 20.4375 20.4688C19.625 21.2812 18.6562 21.9271 17.5312 22.4062C16.4271 22.8854 15.25 23.125 14 23.125ZM9.1875 11.9062C8.625 11.9062 8.13542 12.1146 7.71875 12.5312C7.32292 12.9271 7.125 13.4167 7.125 14C7.125 14.5833 7.32292 15.0833 7.71875 15.5C8.13542 15.8958 8.625 16.0938 9.1875 16.0938C9.77083 16.0938 10.2604 15.8958 10.6562 15.5C11.0729 15.0833 11.2812 14.5833 11.2812 14C11.2812 13.4167 11.0729 12.9271 10.6562 12.5312C10.2604 12.1146 9.77083 11.9062 9.1875 11.9062ZM18.8125 11.9062C18.2292 11.9062 17.7292 12.1146 17.3125 12.5312C16.9167 12.9271 16.7188 13.4167 16.7188 14C16.7188 14.5833 16.9167 15.0833 17.3125 15.5C17.7292 15.8958 18.2292 16.0938 18.8125 16.0938C19.375 16.0938 19.8542 15.8958 20.25 15.5C20.6667 15.0833 20.875 14.5833 20.875 14C20.875 13.4167 20.6667 12.9271 20.25 12.5312C19.8542 12.1146 19.375 11.9062 18.8125 11.9062Z" fill="black"/>
</svg>
