<svg width="28" height="28" viewBox="0 0 28 28" fill="none" xmlns="http://www.w3.org/2000/svg">
<path d="M25.9062 0.71875H2.09375C1.71875 0.71875 1.39583 0.854167 1.125 1.125C0.854167 1.39583 0.71875 1.71875 0.71875 2.09375V25.9062C0.71875 26.2812 0.854167 26.6042 1.125 26.875C1.39583 27.1458 1.71875 27.2812 2.09375 27.2812H25.9062C26.2812 27.2812 26.6042 27.1458 26.875 26.875C27.1458 26.6042 27.2812 26.2812 27.2812 25.9062V2.09375C27.2812 1.71875 27.1458 1.39583 26.875 1.125C26.6042 0.854167 26.2812 0.71875 25.9062 0.71875ZM26.3125 25.9062C26.3125 26.0104 26.2708 26.1042 26.1875 26.1875C26.1042 26.2708 26.0104 26.3125 25.9062 26.3125H2.09375C1.98958 26.3125 1.89583 26.2708 1.8125 26.1875C1.72917 26.1042 1.6875 26.0104 1.6875 25.9062V2.09375C1.6875 1.98958 1.72917 1.89583 1.8125 1.8125C1.89583 1.72917 1.98958 1.6875 2.09375 1.6875H25.9062C26.0104 1.6875 26.1042 1.72917 26.1875 1.8125C26.2708 1.89583 26.3125 1.98958 26.3125 2.09375C26.3125 2.09375 26.3125 3.33333 26.3125 5.8125C26.3125 8.29167 26.3125 11.0208 26.3125 14C26.3125 16.9792 26.3125 19.7083 26.3125 22.1875C26.3125 24.6667 26.3125 25.9062 26.3125 25.9062ZM14 3.90625C12.6042 3.90625 11.2917 4.17708 10.0625 4.71875C8.85417 5.23958 7.79167 5.95833 6.875 6.875C5.95833 7.79167 5.23958 8.85417 4.71875 10.0625C4.17708 11.2917 3.90625 12.6042 3.90625 14C3.90625 15.3958 4.17708 16.7083 4.71875 17.9375C5.23958 19.1458 5.95833 20.2083 6.875 21.125C7.79167 22.0417 8.85417 22.7604 10.0625 23.2812C11.2917 23.8229 12.6042 24.0938 14 24.0938C15.3958 24.0938 16.7083 23.8229 17.9375 23.2812C19.1458 22.7604 20.2083 22.0417 21.125 21.125C22.0417 20.2083 22.7604 19.1458 23.2812 17.9375C23.8229 16.7083 24.0938 15.3958 24.0938 14C24.0938 12.6042 23.8229 11.2917 23.2812 10.0625C22.7604 8.85417 22.0417 7.79167 21.125 6.875C20.2083 5.95833 19.1458 5.23958 17.9375 4.71875C16.7083 4.17708 15.3958 3.90625 14 3.90625ZM14 23.125C12.75 23.125 11.5729 22.8854 10.4688 22.4062C9.34375 21.9271 8.36458 21.2812 7.53125 20.4688C6.71875 19.6354 6.07292 18.6562 5.59375 17.5312C5.11458 16.4271 4.875 15.25 4.875 14C4.875 12.75 5.11458 11.5729 5.59375 10.4688C6.07292 9.34375 6.71875 8.375 7.53125 7.5625C8.36458 6.72917 9.34375 6.07292 10.4688 5.59375C11.5729 5.11458 12.75 4.875 14 4.875C15.25 4.875 16.4271 5.11458 17.5312 5.59375C18.6562 6.07292 19.625 6.72917 20.4375 7.5625C21.2708 8.375 21.9271 9.34375 22.4062 10.4688C22.8854 11.5729 23.125 12.75 23.125 14C23.125 15.25 22.8854 16.4271 22.4062 17.5312C21.9271 18.6562 21.2708 19.6354 20.4375 20.4688C19.625 21.2812 18.6562 21.9271 17.5312 22.4062C16.4271 22.8854 15.25 23.125 14 23.125ZM14 16.25C13.6458 16.25 13.3438 16.375 13.0938 16.625C12.8438 16.875 12.7188 17.1771 12.7188 17.5312V19.125C12.7188 19.4792 12.8438 19.7812 13.0938 20.0312C13.3438 20.2812 13.6458 20.4062 14 20.4062C14.3542 20.4062 14.6562 20.2812 14.9062 20.0312C15.1562 19.7812 15.2812 19.4792 15.2812 19.125V17.5312C15.2812 17.1771 15.1562 16.875 14.9062 16.625C14.6562 16.375 14.3542 16.25 14 16.25ZM10.3438 11.7188C10.1146 11.4896 9.8125 11.375 9.4375 11.375C9.08333 11.375 8.78125 11.4896 8.53125 11.7188C8.28125 11.9896 8.15625 12.3021 8.15625 12.6562C8.15625 12.9896 8.28125 13.2917 8.53125 13.5625L9.65625 14.6875C9.78125 14.8125 9.91667 14.9062 10.0625 14.9688C10.2292 15.0312 10.3854 15.0625 10.5312 15.0625C10.6979 15.0625 10.8646 15.0312 11.0312 14.9688C11.1979 14.9062 11.3333 14.8125 11.4375 14.6875C11.5625 14.5417 11.6562 14.3958 11.7188 14.25C11.7812 14.1042 11.8125 13.9479 11.8125 13.7812C11.8125 13.6146 11.7812 13.4583 11.7188 13.3125C11.6562 13.1458 11.5625 13 11.4375 12.875L10.3438 11.7188ZM18.5625 11.3438C18.3958 11.3438 18.2292 11.375 18.0625 11.4375C17.9167 11.5 17.7917 11.5938 17.6875 11.7188L16.5625 12.8438C16.4375 12.9688 16.3438 13.1146 16.2812 13.2812C16.2188 13.4271 16.1875 13.5833 16.1875 13.75C16.1875 13.8958 16.2188 14.0521 16.2812 14.2188C16.3438 14.3854 16.4375 14.5208 16.5625 14.625C16.6875 14.7708 16.8229 14.875 16.9688 14.9375C17.1354 15 17.3021 15.0312 17.4688 15.0312C17.6354 15.0312 17.7917 15 17.9375 14.9375C18.1042 14.875 18.2396 14.7708 18.3438 14.625L19.4688 13.5312C19.7188 13.2604 19.8438 12.9583 19.8438 12.625C19.8438 12.2708 19.7188 11.9583 19.4688 11.6875C19.3438 11.5833 19.1979 11.5 19.0312 11.4375C18.8854 11.375 18.7292 11.3438 18.5625 11.3438Z" fill="black"/>
</svg>
